<svg xmlns="http://www.w3.org/2000/svg" viewBox="0 0 67.733 67.733">
  <path d="M7.938 7.938h51.594v34.396H7.938z" transform="matrix(1.05128 0 0 1.07692 -1.73 -1.933)" fill="none" stroke="currentColor" stroke-width="2.381" stroke-linecap="round" stroke-linejoin="round"/>
  <path d="M10.583 15.875h46.302" transform="matrix(1.05128 0 0 1.07692 -1.73 -1.933)" fill="none" stroke="currentColor" stroke-width=".265"/>
  <path d="M10.583 34.396h46.302" transform="matrix(1.05128 0 0 1.07692 -1.73 -1.933)" fill="none" stroke="currentColor" stroke-width=".265"/>
  <path d="M10.583 25.135h46.302" transform="matrix(1.05128 0 0 1.07692 -1.73 -1.933)" fill="none" stroke="currentColor" stroke-width=".265"/>
  <path d="M34.396 39.687V10.583" transform="matrix(1.05128 0 0 1.07692 -1.73 -1.933)" fill="none" stroke="currentColor" stroke-width=".265"/>
  <path d="M22.49 39.688V10.582" transform="matrix(1.05128 0 0 1.07692 -1.73 -1.933)" fill="none" stroke="currentColor" stroke-width=".265"/>
  <path d="M46.302 39.688V10.582" transform="matrix(1.05128 0 0 1.07692 -1.73 -1.933)" fill="none" stroke="currentColor" stroke-width=".265"/>
  <path d="M10.583 25.135c.016 0 .031-.074.047-.074.015 0 .03-.075.046-.075s.03-.075.046-.075.031-.074.047-.075c.015 0 .03-.074.046-.075.016 0 .031-.074.046-.075.016 0 .031-.073.047-.075.015 0 .03-.073.046-.074.016-.002.031-.074.047-.075.015-.002.03-.073.046-.075.015-.001.03-.073.046-.075.016-.001.031-.072.047-.074.015-.002.03-.073.046-.075.015-.002.03-.072.046-.075.016-.002.031-.072.047-.074.015-.002.03-.072.046-.075.015-.002.03-.071.046-.074.016-.003.031-.072.047-.075.015-.002.03-.071.046-.074.015-.003.03-.071.046-.074.016-.003.031-.071.047-.075.015-.003.03-.07.046-.074.015-.003.03-.07.046-.074.016-.003.031-.07.047-.074.015-.004.03-.07.046-.074.016-.004.03-.07.046-.074.016-.004.031-.07.047-.074.015-.004.03-.07.046-.073.016-.005.031-.07.046-.074.016-.005.031-.07.047-.074.015-.004.03-.068.046-.073.016-.005.031-.069.047-.074.015-.005.03-.068.046-.073.015-.005.03-.068.046-.073.016-.006.031-.068.047-.073.015-.006.03-.068.046-.073.015-.006.03-.067.046-.073.016-.006.031-.067.047-.073.015-.006.03-.067.046-.073.015-.006.03-.066.046-.072.016-.007.031-.066.047-.073.015-.006.03-.066.046-.072.015-.007.03-.066.046-.072.016-.007.031-.066.047-.073.015-.006.03-.064.046-.072.016-.007.03-.064.046-.071.016-.008.031-.065.047-.072.015-.007.03-.064.046-.072.016-.007.031-.063.046-.071.016-.008.031-.063.047-.071.015-.008.03-.063.046-.071.016-.008.031-.063.047-.071.015-.009.03-.063.046-.071.015-.009.03-.063.046-.071.016-.008.031-.062.047-.07.015-.01.03-.062.046-.07.015-.01.03-.062.046-.071.016-.01.031-.061.047-.07.015-.01.03-.06.046-.07.015-.01.03-.06.046-.07.016-.01.031-.06.047-.07.015-.009.03-.059.046-.069.015-.01.03-.059.046-.069.016-.01.031-.059.047-.069.015-.01.03-.058.046-.069.015-.01.03-.058.046-.068.016-.01.031-.058.047-.069.015-.01.03-.057.046-.068.016-.01.03-.057.046-.068.016-.01.031-.057.047-.068.015-.01.03-.056.046-.067.016-.012.031-.056.046-.068.016-.011.031-.056.047-.067.015-.011.03-.055.046-.067.016-.012.031-.055.047-.067.015-.012.03-.055.046-.066.015-.012.03-.055.046-.067.016-.012.031-.054.047-.066.015-.012.03-.054.046-.066.015-.012.03-.053.046-.066.016-.012.031-.052.047-.065.015-.013.03-.053.046-.065.015-.013.03-.052.046-.065.016-.013.031-.052.047-.065.015-.013.03-.051.046-.065.015-.013.03-.05.046-.064.016-.014.031-.05.047-.064.015-.014.03-.05.046-.064.015-.014.03-.05.046-.064.016-.014.031-.049.047-.063.015-.014.03-.049.046-.063.016-.014.03-.048.046-.063.016-.014.031-.048.047-.062.015-.015.03-.048.046-.063.016-.014.031-.047.046-.062.016-.015.031-.046.047-.062.015-.015.03-.046.046-.061s.031-.046.047-.061c.015-.016.03-.046.046-.061.015-.016.03-.045.046-.061s.031-.044.047-.06c.015-.016.03-.044.046-.06.015-.016.03-.044.046-.06s.031-.044.047-.06c.015-.016.03-.043.046-.06.015-.016.03-.042.046-.058.016-.017.031-.042.047-.059.015-.017.03-.041.046-.058.015-.017.03-.041.046-.058.016-.018.031-.041.047-.058.015-.017.03-.04.046-.058.016-.017.03-.04.046-.057.016-.018.031-.04.047-.057.015-.018.03-.039.046-.056.016-.018.031-.039.046-.057l.047-.056.046-.055.046-.056.047-.055.046-.054.047-.055.046-.054c.015-.02.03-.034.046-.054l.047-.053c.015-.02.03-.034.046-.053.015-.02.03-.033.046-.053.016-.02.031-.032.047-.052.015-.02.03-.032.046-.052.015-.02.03-.032.046-.052.016-.02.031-.031.047-.051.015-.02.03-.031.046-.052.015-.02.03-.03.046-.05.016-.021.031-.03.047-.05.015-.021.03-.03.046-.05.016-.022.03-.03.046-.05.016-.021.031-.028.047-.05.015-.02.03-.027.046-.048.016-.022.031-.027.046-.05.016-.02.031-.025.047-.047.015-.022.03-.026.046-.048.016-.022.031-.026.047-.048.015-.022.03-.024.046-.047.015-.022.03-.024.046-.047.016-.022.031-.023.047-.046.015-.023.03-.023.046-.046.015-.023.03-.023.046-.046s.031-.022.047-.045c.015-.023.03-.022.046-.045.015-.023.03-.021.046-.044.016-.024.031-.021.047-.044.015-.024.03-.02.046-.044.015-.024.03-.02.046-.044.016-.024.031-.019.047-.043.015-.024.03-.018.046-.042.015-.024.03-.018.046-.042.016-.025.031-.018.047-.042.015-.025.03-.017.046-.042.016-.024.03-.016.046-.04.016-.026.031-.017.047-.041.015-.025.03-.016.046-.04.016-.026.031-.015.046-.04.016-.026.031-.015.047-.04.015-.025.03-.014.046-.04.016-.025.031-.012.047-.038.015-.026.03-.012.046-.038.015-.026.03-.012.046-.038s.031-.011.047-.037c.015-.027.03-.011.046-.037.015-.027.03-.01.046-.037.016-.027.031-.01.047-.036.015-.027.03-.01.046-.036.015-.027.03-.008.046-.035.016-.027.031-.008.047-.035.015-.028.03-.008.046-.035.015-.027.03-.007.046-.034.016-.027.031-.006.047-.034.015-.027.03-.005.046-.033s.03-.005.046-.033.031-.004.047-.032c.015-.028.03-.004.046-.032.016-.029.03-.004.046-.032s.031-.003.047-.031c.015-.029.03-.002.046-.03.016-.03.031-.002.046-.031.016-.03.031-.001.047-.03.015-.03.03 0 .046-.03.016-.029.031 0 .047-.029.015-.029.03.001.046-.028.015-.03.03.001.046-.028.016-.03.031.002.047-.028.015-.03.03.003.046-.027.015-.03.03.003.046-.027s.031.004.047-.026c.015-.03.03.004.046-.026.015-.03.03.005.046-.026.016-.03.031.006.047-.025.015-.03.03.006.046-.025.015-.03.03.007.046-.024.016-.03.031.008.047-.023.015-.032.03.008.046-.024.016-.031.03.009.046-.022.016-.032.031.009.047-.023.015-.032.03.01.046-.022s.031.01.046-.021c.016-.032.031.01.047-.021.015-.032.03.011.046-.02.016-.033.031.011.047-.021.015-.032.03.013.046-.02.015-.032.03.014.046-.019s.031.014.047-.019c.015-.033.03.015.046-.018.015-.033.03.016.046-.018.016-.033.031.016.047-.017.015-.034.03.017.046-.017.015-.034.03.017.046-.017.016-.033.031.018.047-.016.015-.033.03.019.046-.015.015-.034.03.019.046-.015s.031.02.047-.015c.015-.034.03.02.046-.014.015-.035.03.021.046-.014.016-.034.031.022.047-.013.015-.035.03.022.046-.013.016-.035.03.023.046-.012s.031.023.047-.012c.015-.035.03.024.046-.011.016-.036.031.025.046-.011.016-.036.031.025.047-.01.015-.036.03.025.046-.01.016-.036.031.026.047-.01.015-.036.03.027.046-.01.015-.035.03.029.046-.008.016-.036.031.029.047-.008.015-.036.03.03.046-.007.015-.037.03.03.046-.008.016-.036.031.03.047-.006.015-.037.03.03.046-.007.015-.037.03.032.046-.005.016-.038.031.032.047-.006.015-.037.03.033.046-.004.015-.038.03.033.046-.005s.031.034.047-.004c.015-.038.03.035.046-.003.016-.038.03.035.046-.003.016-.038.031.036.047-.002.015-.039.03.036.046-.002.016-.04.03.037.046-.002s.031.038.047-.001c.015-.039.03.038.046 0 .016-.04.031.038.046 0 .016-.04.031.039.047 0 .015-.04.03.04.046 0s.031.041.047.002c.015-.04.03.041.046.001.015-.04.03.043.046.003.016-.04.031.043.047.002.015-.04.03.044.046.004.015-.04.03.044.046.003.016-.04.031.045.047.004.015-.04.03.046.046.005.015-.04.03.046.046.005s.031.047.047.006c.015-.042.03.047.046.006.015-.042.03.047.046.006s.031.049.047.007c.015-.042.03.05.046.007.016-.041.03.05.046.008s.031.05.047.009c.015-.043.03.05.046.008s.031.052.046.01c.016-.043.031.052.047.01.015-.043.03.052.046.01.016-.043.031.053.047.01.015-.043.03.054.046.011.015-.043.03.055.046.012s.031.055.047.012c.015-.043.03.056.046.013.015-.044.03.056.046.013.016-.044.031.057.047.013.015-.044.03.058.046.014.015-.044.03.059.046.014.016-.044.031.06.047.015.015-.044.03.06.046.016.015-.045.03.06.046.015.016-.044.031.061.047.017.015-.045.03.061.046.016.015-.045.03.063.046.017.016-.045.031.063.047.018.015-.045.03.064.046.018.016-.045.03.064.046.019.016-.046.031.064.047.019.015-.046.03.065.046.02.016-.047.031.065.046.019.016-.046.031.067.047.02.015-.046.03.067.046.021s.031.068.047.021c.015-.046.03.069.046.022.015-.047.03.069.046.022.016-.047.031.07.047.023.015-.047.03.07.046.023.015-.047.03.07.046.023.016-.047.031.072.047.024.015-.047.03.072.046.025.015-.048.03.072.046.025.016-.048.031.073.047.025.015-.048.03.074.046.026.015-.048.03.074.046.026s.031.075.047.026c.015-.048.03.076.046.027.015-.048.03.077.046.028s.031.077.047.028c.015-.05.03.077.046.028s.03.078.046.029c.016-.05.031.078.047.03.015-.05.03.078.046.029.016-.05.031.08.046.03.016-.05.031.08.047.03.015-.05.03.081.046.031s.031.082.047.032c.015-.05.03.082.046.032.015-.05.03.082.046.032s.031.083.047.032c.015-.05.03.084.046.034.015-.051.03.084.046.033.016-.05.031.085.047.034.015-.051.03.086.046.034.015-.05.03.086.046.035.016-.051.031.087.047.035.015-.051.03.088.046.036.015-.052.03.088.046.036s.031.088.047.036c.015-.052.03.09.046.037.016-.052.03.09.046.037.016-.052.031.09.047.038.015-.052.03.09.046.038.016-.053.031.091.046.039.016-.053.031.091.047.038.015-.053.03.093.046.04s.031.093.047.04c.015-.054.03.093.046.04.015-.054.03.093.046.04.016-.054.031.094.047.04.015-.053.03.096.046.042.015-.054.03.096.046.042s.031.096.047.042c.015-.055.03.096.046.042.015-.054.03.097.046.043.016-.055.031.098.047.043.015-.055.03.098.046.044.015-.055.03.098.046.044.016-.055.031.099.047.044.015-.055.03.1.046.045.015-.056.03.1.046.045.016-.056.031.1.047.045.015-.055.03.102.046.046.016-.056.03.102.046.046.016-.056.031.103.047.047.015-.056.03.103.046.047.016-.056.031.103.046.047.016-.056.031.104.047.048.015-.057.03.104.046.048.016-.057.031.105.047.048.015-.057.03.106.046.049.015-.057.03.106.046.049.016-.057.031.107.047.05.015-.058.03.107.046.05.015-.058.03.107.046.05.016-.058.031.108.047.05.015-.058.03.109.046.05.015-.057.03.11.046.052s.031.11.047.052c.015-.059.03.11.046.052.015-.059.03.11.046.052.016-.059.031.111.047.052.015-.058.03.112.046.053.015-.059.03.113.046.054.016-.06.031.112.047.053.015-.06.03.113.046.054.016-.06.03.114.046.054.016-.06.031.114.047.055.015-.06.03.115.046.055.016-.06.031.115.046.055.016-.06.031.116.047.055.015-.06.03.117.046.056.016-.06.031.117.047.056.015-.06.03.117.046.057.015-.06.03.117.046.057.016-.061.031.118.047.057.015-.061.03.118.046.057.015-.061.03.119.046.058.016-.062.031.119.047.058.015-.062.03.12.046.058.015-.062.03.12.046.058.016-.061.031.121.047.06.015-.063.03.12.046.058.015-.062.03.122.046.06s.031.122.047.06c.015-.063.03.122.046.06.016-.063.03.122.046.06.016-.063.031.123.047.06.015-.062.03.124.046.061s.031.124.046.061c.016-.063.031.125.047.062.015-.064.03.125.046.061.016-.063.031.126.046.062.016-.063.031.126.047.062.015-.063.03.127.046.063s.031.127.047.063c.015-.064.03.127.046.063.015-.065.03.127.046.063.016-.065.031.128.047.063.015-.064.03.129.046.064.015-.065.03.129.046.064s.031.129.047.064c.015-.065.03.13.046.064.015-.065.03.13.046.065s.031.13.047.065c.015-.065.03.13.046.065.015-.065.03.131.046.066.016-.066.031.131.047.065.015-.066.03.132.046.066s.03.132.046.066.031.133.047.066c.015-.066.03.133.046.067.016-.067.031.133.046.067.016-.067.031.133.047.066.015-.066.03.135.046.068s.031.134.047.067c.015-.067.03.135.046.067.015-.067.03.136.046.068.016-.067.031.136.047.068.015-.068.03.136.046.068.015-.068.03.137.046.069s.031.136.047.068c.015-.068.03.137.046.069.015-.068.03.137.046.069.016-.069.031.137.047.069.015-.069.03.138.046.069.015-.069.03.138.046.07.016-.07.031.138.047.07.015-.07.03.138.046.069.015-.07.03.14.046.07s.031.14.047.07c.015-.07.03.14.046.07s.03.14.046.07.031.141.047.071c.015-.07.03.141.046.071.016-.07.031.141.046.071.016-.07.031.142.047.071.015-.07.03.142.046.071.016-.07.031.142.047.072.015-.071.03.142.046.071.015-.07.03.143.046.072s.031.143.047.072c.015-.072.03.143.046.071.015-.071.03.144.046.072.016-.071.031.144.047.073.015-.072.03.144.046.072.015-.072.03.144.046.072s.031.145.047.073c.015-.072.03.145.046.073.015-.073.03.145.046.072.016-.072.031.146.047.073.015-.073.03.146.046.073s.03.146.046.073.031.147.047.073c.015-.073.03.147.046.074.016-.074.03.146.046.073s.031.147.047.073c.015-.073.03.148.046.074s.031.148.046.074c.016-.074.031.148.047.073.015-.074.03.148.046.074s.031.149.047.074c.015-.074.03.149.046.074.015-.075.03.149.046.074s.031.149.047.074c.015-.075.03.15.046.074.015-.075.03.15.046.075.016-.076.031.15.047.074.015-.075.03.15.046.074.015-.075.03.15.046.075.016-.076.031.15.047.074.015-.076.03.15.046.075.015-.076.03.15.046.074s.031.151.047.075c.015-.077.03.15.046.074s.03.152.046.075.031.152.047.075c.015-.077.03.151.046.074.016-.076.031.152.046.075.016-.077.031.152.047.075.015-.077.03.152.046.075.016-.078.031.152.047.075.015-.078.03.152.046.075.015-.078.03.152.046.074.016-.077.031.153.047.075.015-.078.03.153.046.075.015-.078.03.153.046.075s.031.153.047.075c.015-.079.03.153.046.075.015-.079.03.153.046.075.016-.08.031.154.047.075.015-.08.03.154.046.074.015-.079.03.155.046.075s.031.155.047.075c.015-.08.03.154.046.075.015-.08.03.154.046.075.016-.08.031.154.047.074.015-.08.03.155.046.075s.03.155.046.075.031.155.047.075c.015-.08.03.155.046.074.016-.08.031.155.046.075.016-.081.031.155.047.074.015-.08.03.156.046.075s.031.155.047.074c.015-.08.03.156.046.075.015-.082.03.156.046.074.016-.081.031.156.047.074.015-.081.03.156.046.075.015-.082.03.156.046.074s.031.156.047.074c.015-.082.03.156.046.074.015-.082.03.156.046.074.016-.083.031.156.047.074.015-.083.03.156.046.074.015-.083.03.156.046.073s.031.157.047.074c.015-.083.03.157.046.073.016-.083.03.157.046.074s.031.157.047.073c.015-.083.03.157.046.074.016-.084.03.157.046.073s.031.157.047.073c.015-.084.03.157.046.073s.031.157.046.073c.016-.085.031.157.047.072.015-.084.03.158.046.073s.031.157.047.073c.015-.085.03.157.046.072.015-.085.03.157.046.072s.031.158.047.072c.015-.085.03.158.046.072.015-.085.03.158.046.072.016-.085.031.158.047.072.015-.086.03.158.046.072.015-.086.03.157.046.071.016-.086.031.158.047.072.015-.087.03.157.046.07.015-.086.03.158.046.072.016-.087.031.157.047.07.015-.086.03.158.046.072.016-.087.03.157.046.07s.031.158.047.07c.015-.086.03.158.046.07.016-.086.031.158.046.071.016-.087.031.158.047.07.015-.088.03.158.046.07s.031.157.047.07c.015-.089.03.157.046.069.015-.088.03.157.046.07.016-.09.031.157.047.068.015-.088.03.158.046.069.015-.088.03.158.046.069s.031.157.047.068c.015-.089.03.158.046.069.015-.09.03.157.046.068.016-.09.031.157.047.068.015-.09.03.157.046.067.015-.089.03.158.046.068s.031.157.047.067c.015-.09.03.157.046.067.015-.09.03.158.046.067.016-.09.031.157.047.067.015-.09.03.157.046.067s.03.156.046.066.031.157.047.066c.015-.09.03.157.046.066s.031.156.046.065c.016-.09.031.157.047.066.015-.091.03.156.046.065s.031.156.047.065c.015-.092.03.156.046.064.015-.091.03.157.046.065s.031.156.047.064c.015-.092.03.156.046.064.015-.092.03.156.046.064.016-.093.031.156.047.063.015-.092.03.156.046.063.015-.092.03.156.046.063.016-.092.031.156.047.063.015-.093.03.156.046.062.015-.093.03.156.046.063.016-.094.031.155.047.062.015-.094.03.155.046.061.015-.093.03.155.046.062.016-.094.031.155.047.06.015-.093.03.156.046.062.016-.095.03.154.046.06s.031.155.047.06c.015-.094.03.155.046.06.016-.094.031.155.046.06.016-.095.031.154.047.06.015-.095.03.154.046.059s.031.154.047.058c.015-.095.03.154.046.059.015-.095.03.154.046.058.016-.095.031.154.047.058.015-.095.03.154.046.058.015-.096.03.153.046.057s.031.153.047.057c.015-.096.03.153.046.057.015-.096.03.153.046.057.016-.097.031.152.047.056.015-.097.03.152.046.056.015-.097.03.152.046.055s.031.152.047.055c.015-.097.03.152.046.055s.03.152.046.055c.016-.098.031.151.047.054.015-.098.03.151.046.054.016-.098.031.151.046.053.016-.097.031.152.047.054.015-.098.03.15.046.052s.031.151.047.053c.015-.098.03.15.046.052.015-.098.03.15.046.052s.031.15.047.052c.015-.099.03.15.046.05.015-.098.03.15.046.052.016-.1.031.15.047.05.015-.099.03.15.046.05.015-.099.03.15.046.05.016-.1.031.15.047.05.015-.1.03.149.046.049.015-.1.03.149.046.049.016-.1.031.148.047.048.015-.1.03.148.046.048.015-.1.03.148.046.048.016-.1.031.148.047.047.015-.1.03.148.046.047.016-.1.03.148.046.047.016-.101.031.147.047.046.015-.101.03.147.046.046.016-.101.031.147.046.045.016-.101.031.147.047.045.015-.101.03.147.046.045s.031.146.047.044c.015-.101.03.146.046.044.015-.102.03.146.046.044s.031.145.047.043c.015-.102.03.145.046.043.015-.103.03.145.046.042.016-.102.031.145.047.042.015-.102.03.145.046.042.015-.103.03.144.046.041.016-.103.031.144.047.041.015-.103.03.144.046.04.015-.103.03.144.046.04.016-.103.031.144.047.04.015-.103.03.143.046.04.015-.104.03.143.046.038.016-.104.031.143.047.039.015-.104.03.142.046.038.016-.104.03.142.046.038.016-.105.031.142.047.037.015-.105.03.142.046.037.016-.105.031.141.046.036.016-.105.031.141.047.036.015-.105.03.141.046.036.016-.106.031.14.047.035.015-.106.03.14.046.035.015-.106.03.14.046.034.016-.106.031.14.047.034.015-.106.03.14.046.033.015-.106.03.14.046.033.016-.106.031.14.047.033.015-.106.03.139.046.032.015-.106.03.139.046.032.016-.107.031.138.047.032.015-.107.03.138.046.03.015-.107.03.138.046.03.016-.106.031.138.047.031.015-.107.03.137.046.03.016-.108.03.137.046.029.016-.108.031.137.047.029.015-.108.03.136.046.028.016-.108.031.136.046.028.016-.108.031.136.047.028.015-.109.03.135.046.027.016-.109.031.135.046.026.016-.108.031.135.047.026.015-.108.03.135.046.026.016-.109.031.134.047.025.015-.109.03.134.046.025.015-.11.03.134.046.025.016-.11.031.133.047.024.015-.11.03.133.046.023.015-.11.03.133.046.023.016-.11.031.133.047.023.015-.11.03.132.046.022.015-.11.03.132.046.022.016-.11.031.131.047.02.015-.11.03.132.046.022.015-.111.03.13.046.02.016-.111.031.13.047.02.015-.111.03.13.046.02.016-.112.03.13.046.018.016-.111.031.13.047.019.015-.112.03.13.046.018s.031.13.046.017c.016-.111.031.13.047.018.015-.112.03.128.046.016s.031.129.047.017c.015-.113.03.128.046.015.015-.112.03.128.046.016.016-.113.031.127.047.014.015-.112.03.128.046.015.015-.113.03.127.046.014s.031.126.047.013c.015-.113.03.127.046.013.015-.113.03.126.046.013.016-.114.031.126.047.012.015-.114.03.125.046.011.015-.113.03.126.046.012s.031.124.047.01c.015-.114.03.125.046.01.015-.114.03.125.046.01.016-.114.031.124.047.01.015-.115.03.123.046.008.016-.114.03.124.046.009s.031.123.047.008c.015-.115.03.122.046.007.016-.115.031.122.046.007.016-.115.031.122.047.006.015-.115.03.122.046.006.016-.115.031.122.047.006.015-.116.03.12.046.005.015-.116.03.12.046.005.016-.117.031.12.047.004.015-.117.03.12.046.003.015-.116.03.12.046.004.016-.117.031.119.047.002.015-.117.03.12.046.002.015-.116.03.12.046.002.016-.117.031.119.047.002.015-.118.03.118.046 0 .015-.117.03.118.046 0 .016-.117.031.118.047 0 .015-.117.03.118.046 0s.03.117.046-.001c.016-.118.031.117.047-.002.015-.118.03.117.046-.002.016-.118.03.116.046-.002.016-.119.031.116.047-.003.015-.119.03.115.046-.003.016-.12.031.115.046-.004.016-.12.031.114.047-.005.015-.119.03.115.046-.004.016-.12.031.114.047-.006.015-.12.03.114.046-.006.015-.12.03.114.046-.006.016-.12.031.113.047-.006.015-.12.03.112.046-.008.015-.12.03.113.046-.007.016-.12.031.112.047-.008.015-.12.03.112.046-.009.015-.12.03.112.046-.01.016-.12.031.112.047-.009.015-.12.03.112.046-.01.015-.12.03.111.046-.01s.031.11.047-.01c.015-.122.03.11.046-.012s.03.11.046-.012.031.11.047-.012c.015-.122.03.109.046-.013s.031.109.046-.013c.016-.123.031.108.047-.014.015-.122.03.108.046-.014.016-.123.031.108.047-.015.015-.122.03.108.046-.015.015-.123.03.107.046-.016.016-.122.031.108.047-.016.015-.123.03.107.046-.016.015-.123.03.106.046-.017s.031.106.047-.017c.015-.124.03.106.046-.018.015-.124.03.105.046-.018.016-.124.031.105.047-.02.015-.123.03.106.046-.018.015-.125.03.104.046-.02s.031.104.047-.02c.015-.125.03.104.046-.02.015-.125.03.103.046-.022s.031.104.047-.021c.015-.125.03.103.046-.022s.03.103.046-.023c.016-.125.031.103.047-.022.015-.126.03.102.046-.024.016-.125.031.102.046-.023.016-.126.031.101.047-.025.015-.125.03.102.046-.024s.031.1.047-.025c.015-.126.03.1.046-.026.015-.126.03.1.046-.026s.031.1.047-.026c.015-.127.03.1.046-.027.015-.127.03.1.046-.027s.031.1.047-.028c.015-.127.03.1.046-.028.015-.127.03.099.046-.029.016-.127.031.099.047-.029.015-.127.03.099.046-.03.015-.127.03.099.046-.029s.031.098.047-.03c.015-.128.03.097.046-.031s.03.097.046-.031c.016-.129.031.097.047-.032.015-.128.03.097.046-.032.016-.128.03.097.046-.032.016-.13.031.096.047-.033.015-.13.03.096.046-.033.016-.13.031.095.046-.034.016-.13.031.095.047-.034.015-.13.03.095.046-.035s.031.095.047-.035c.015-.13.03.095.046-.035.015-.13.03.094.046-.036s.031.094.047-.036c.015-.13.03.094.046-.037.015-.13.03.094.046-.037.016-.13.031.094.047-.037.015-.131.03.093.046-.038.015-.131.03.093.046-.038s.031.092.047-.039c.015-.131.03.092.046-.04.015-.13.03.093.046-.038.016-.132.031.091.047-.04.015-.132.03.091.046-.04.016-.132.03.09.046-.041.016-.132.031.09.047-.041.015-.132.03.09.046-.042s.031.09.046-.042c.016-.132.031.09.047-.042.015-.132.03.09.046-.042.016-.133.031.09.047-.043.015-.133.03.09.046-.044.015-.133.03.09.046-.044.016-.133.031.09.047-.044.015-.133.03.09.046-.044.015-.134.03.089.046-.045s.031.088.047-.045c.015-.134.03.088.046-.046.015-.134.03.088.046-.046s.031.088.047-.047c.015-.134.03.088.046-.046.015-.135.03.087.046-.047.016-.135.031.087.047-.048.015-.135.03.087.046-.048.015-.135.03.087.046-.048s.031.087.047-.049c.015-.135.03.087.046-.049.016-.135.03.087.046-.049.016-.135.031.086.047-.05.015-.135.03.086.046-.05.016-.135.031.086.046-.05.016-.136.031.086.047-.05.015-.137.03.085.046-.052.016-.136.031.086.047-.051.015-.137.03.085.046-.052.015-.136.03.085.046-.052s.031.085.047-.052c.015-.137.03.084.046-.053.015-.137.03.084.046-.053s.031.084.047-.053c.015-.138.03.084.046-.054.015-.138.03.084.046-.054s.031.083.047-.055c.015-.138.03.084.046-.054.015-.138.03.083.046-.055.016-.139.031.083.047-.056.015-.138.03.083.046-.055.015-.139.03.082.046-.056.016-.14.031.082.047-.057.015-.139.03.083.046-.056.016-.14.03.082.046-.057.016-.14.031.082.047-.057.015-.14.03.082.046-.058s.031.082.046-.058c.016-.14.031.082.047-.058.015-.14.03.082.046-.058s.031.081.047-.059c.015-.14.03.081.046-.059.015-.14.03.081.046-.06.016-.14.031.082.047-.059.015-.14.03.081.046-.06.015-.14.03.081.046-.06.016-.14.031.08.047-.06.015-.141.03.08.046-.06.015-.142.03.08.046-.062.016-.141.031.08.047-.061.015-.142.03.08.046-.062.015-.141.03.08.046-.061.016-.142.031.08.047-.062.015-.142.03.08.046-.063.016-.142.03.08.046-.062.016-.143.031.08.047-.063.015-.143.03.08.046-.063.016-.143.031.08.046-.063.016-.143.031.079.047-.064.015-.143.03.08.046-.064.016-.143.031.08.046-.064.016-.143.031.08.047-.064.015-.144.03.079.046-.065.016-.143.031.08.047-.065.015-.143.03.08.046-.065.015-.144.03.08.046-.065.016-.144.031.079.047-.065.015-.145.03.078.046-.066.015-.145.03.079.046-.066.016-.145.031.079.047-.066.015-.145.03.078.046-.067.015-.145.03.079.046-.066.016-.145.031.078.047-.067.015-.145.03.078.046-.067.015-.145.03.078.046-.067.016-.146.031.078.047-.068.015-.145.03.078.046-.067.016-.146.03.078.046-.068.016-.146.031.078.047-.068.015-.146.03.078.046-.068.016-.147.031.078.046-.069.016-.146.031.078.047-.069.015-.146.03.078.046-.068.016-.147.031.078.047-.07.015-.146.03.079.046-.068.015-.148.03.077.046-.07.016-.147.031.078.047-.07.015-.147.03.078.046-.07.015-.147.03.079.046-.069.016-.148.031.078.047-.07.015-.148.03.078.046-.07.015-.148.03.078.046-.07.016-.149.031.077.047-.071.015-.148.03.078.046-.07.015-.15.03.077.046-.072.016-.148.031.078.047-.07.015-.15.03.077.046-.072.015-.149.03.078.046-.071.016-.15.031.078.047-.071.015-.15.03.077.046-.072.016-.15.03.078.046-.072s.031.078.047-.072c.015-.15.03.078.046-.072s.031.078.046-.072c.016-.15.031.078.047-.072.015-.15.03.078.046-.072s.031.078.047-.073c.015-.15.03.078.046-.072.015-.151.03.078.046-.073.016-.15.031.078.047-.073.015-.15.03.078.046-.073.015-.15.03.079.046-.073.016-.151.031.079.047-.073.015-.151.03.079.046-.073.015-.152.03.078.046-.073.016-.152.031.078.047-.074.015-.152.03.079.046-.073.015-.152.03.078.046-.074s.031.079.047-.074c.015-.152.03.08.046-.073s.03.079.046-.074.031.079.047-.074c.015-.153.03.079.046-.074s.031.079.046-.074c.016-.153.031.079.047-.074.015-.154.03.079.046-.075.016-.153.031.08.046-.074.016-.153.031.08.047-.074.015-.154.03.08.046-.075.016-.154.031.08.047-.074.015-.154.03.08.046-.074.015-.155.03.08.046-.075.016-.154.031.08.047-.075.015-.154.03.08.046-.074.015-.155.03.08.046-.075s.031.08.047-.074c.015-.156.03.08.046-.075.015-.155.03.08.046-.075s.031.08.047-.075c.015-.155.03.081.046-.075.015-.155.03.082.046-.074s.031.08.047-.075c.015-.156.03.081.046-.075s.03.081.046-.075.031.082.047-.075c.015-.156.03.082.046-.075.016-.156.031.082.046-.075" transform="matrix(1.05128 0 0 1.07692 -1.73 -1.933)" fill="none" stroke="currentColor" stroke-width="1.587" stroke-linecap="round" stroke-linejoin="round"/>
  <text x="50%" y="93%" font-size="12" alignment="bottom" text-anchor="middle">analysis m.</text>
</svg>
