<svg xmlns="http://www.w3.org/2000/svg" viewBox="0 0 67.733 67.733">
  <path d="M15.357 9.766v7.939h7.94v-7.94zm9.772 0v7.939h7.942v-7.94zm9.775 0v7.939h7.94v-7.94zm9.772 0v7.939h7.94v-7.94zm-7.942 1.833h4.276v4.276h-4.276zm9.775 0h4.274v4.276h-4.274z" color="currentColor" overflow="visible" fill="currentColor" paint-order="markers stroke fill" stop-color="currentColor"/>
  <path d="M15.357 21.01v7.94h7.94v-7.94zm9.772 0v7.94h7.942v-7.94zm9.775 0v7.94h7.94v-7.94zm9.772 0v7.94h7.94v-7.94zm-7.942 1.833h4.276v4.277h-4.276zm9.775 0h4.274v4.277h-4.274z" color="currentColor" overflow="visible" fill="currentColor" paint-order="markers stroke fill" stop-color="currentColor"/>
  <path d="M15.357 32.255v7.939h7.94v-7.939zm9.772 0v7.939h7.942v-7.939zm9.775 0v7.939h7.94v-7.939zm9.772 0v7.939h7.94v-7.939zm-7.942 1.833h4.276v4.277h-4.276zm9.775 0h4.274v4.277h-4.274z" color="currentColor" overflow="visible" fill="currentColor" paint-order="markers stroke fill" stop-color="currentColor"/>
  <text x="50%" y="93%" font-size="12" alignment="bottom" text-anchor="middle">RST</text>

</svg>
