<svg xmlns="http://www.w3.org/2000/svg" viewBox="0 0 67.733 67.733">
  <path d="M33.863 14.711a9.391 9.391 0 0 0-7.435 3.66l-15.556 3.333v5.032l15.637 3.351.02-.095a9.39 9.39 0 0 0 7.334 3.528 9.392 9.392 0 0 0 7.283-3.463l.007.03 15.637-3.351v-5.032l-15.477-3.317a9.395 9.395 0 0 0-7.45-3.676zm0 1.71a7.682 7.682 0 0 1 7.695 7.696 7.682 7.682 0 0 1-7.695 7.695 7.682 7.682 0 0 1-7.695-7.695 7.682 7.682 0 0 1 7.695-7.696zm0 .608a7.087 7.087 0 0 0-7.086 7.087 7.087 7.087 0 0 0 7.087 7.087 7.087 7.087 0 0 0 7.087-7.087 7.087 7.087 0 0 0-7.087-7.087Zm.075 1.761a5.329 5.329 0 0 1 5.25 5.164l.016.533-1.068.034-.016-.536a4.257 4.257 0 0 0-5.126-4.037l-.524.109-.218-1.046.524-.109c.386-.08.775-.117 1.162-.112zm-8.699 1.583a9.339 9.339 0 0 0-.771 3.41H12.582v-.697zm17.257.016 12.584 2.697v.697H43.26a9.336 9.336 0 0 0-.764-3.394zm-29.914 4.037h11.886a9.335 9.335 0 0 0 .875 3.661l-12.76-2.734Zm30.679 0H55.08v.927l-12.687 2.719a9.333 9.333 0 0 0 .868-3.646z" color="currentColor" overflow="visible" fill="currentColor" paint-order="markers fill stroke" stop-color="currentColor"/>
  <path d="M107.453 31.363a4.317 4.317 0 0 0-3.02 1.237L62.575 73.654l15.783-3.383 26.248-25.744-13.19 22.946 4.257-.914 14.726-25.618 11.375 11.455c1.347-.235 2.705-.4 4.07-.49L114.02 40H145l-11.988 12.074c1.307.155 2.603.387 3.888.672l11.153-11.23 14.593 25.382 4.26.915-13.386-23.288 26.638 26.127 15.783 3.383L153.693 32.6a4.317 4.317 0 0 0-3.027-1.237zm111.695 65.434v7.695l-3.681.79 11.81 11.583v11.633h-25.37l-.264-.266-10.23-17.794-3.325.712 4.69 8.155-7.5-7.553-3.764.807 15.826 15.94h-55.127c-8.649 3.225-18.43 3.087-27.133 0H61.686l15.427-15.538-3.767-.809-9.221 9.285 5.764-10.025-3.328-.713-10.235 17.799H30.852v-11.633l11.562-11.342-4.814-1.03V98.15l-14.086 13.817a4.317 4.317 0 0 0-1.3 3.082v17.767a4.317 4.317 0 0 0 4.317 4.319h205.063a4.317 4.317 0 0 0 4.32-4.319V115.05a4.317 4.317 0 0 0-1.299-3.082z" transform="scale(.26458)" color="currentColor" overflow="visible" fill="currentColor" stop-color="currentColor"/>
  <text x="50%" y="93%" font-size="17" alignment="bottom" text-anchor="middle">???</text>

</svg>
