<svg xmlns="http://www.w3.org/2000/svg" viewBox="0 0 67.733 67.733">
  <path d="M43.355 29.456a6.169 6.169 0 0 0-4.884 2.403l-10.218 2.19v3.305l10.272 2.202.013-.063a6.168 6.168 0 0 0 9.601.043l.004.02 10.272-2.202V34.05L48.25 31.87a6.171 6.171 0 0 0-4.894-2.414Zm0 1.123a5.046 5.046 0 0 1 5.055 5.055 5.046 5.046 0 0 1-5.055 5.054 5.046 5.046 0 0 1-5.054-5.054 5.046 5.046 0 0 1 5.054-5.055zm0 .4a4.655 4.655 0 0 0-4.655 4.655 4.655 4.655 0 0 0 4.656 4.655 4.655 4.655 0 0 0 4.655-4.655 4.655 4.655 0 0 0-4.655-4.656zm.05 1.156a3.5 3.5 0 0 1 3.448 3.392l.01.35-.701.022-.01-.351a2.796 2.796 0 0 0-3.368-2.652l-.344.071-.143-.687.344-.071c.253-.053.51-.077.763-.074zm-5.714 1.04a6.134 6.134 0 0 0-.507 2.24h-7.807v-.458zm11.334.01 8.267 1.772v.458h-7.764a6.133 6.133 0 0 0-.503-2.23zm-19.648 2.652h7.807c.028.857.23 1.67.574 2.405l-8.381-1.796zm20.151 0h7.764v.61l-8.334 1.785a6.13 6.13 0 0 0 .57-2.395z" color="currentColor" overflow="visible" fill="currentColor" paint-order="markers fill stroke" stop-color="currentColor"/>
  <rect width="55.704" height="38.359" x="6.07" y="5.986" rx="1.63" ry="1.644" fill="none" stroke="currentColor" stroke-width="1.323" stroke-linecap="square" paint-order="markers fill stroke"/>
  <path d="m9.12 9.254 16.015.006" fill="none" stroke="currentColor" stroke-width=".794" stop-color="currentColor"/>
  <path d="M9.26 11.906h7.938" fill="none" stroke="currentColor" stroke-width=".794" stop-color="currentColor"/>
  <path d="M9.26 33.073v7.937h13.23" fill="none" stroke="currentColor" stroke-width=".794" stop-color="currentColor"/>
  <path d="M44.98 9.26v7.938h13.228V9.26Z" fill="none" stroke="currentColor" stroke-width=".794" stop-color="currentColor"/>
  <text x="50%" y="93%" font-size="17" alignment="bottom" text-anchor="middle">???</text>

</svg>
