<svg xmlns="http://www.w3.org/2000/svg" viewBox="0 0 67.733 67.733">
  <path d="M127.74 20.18c-36.391 0-66.724 26.08-73.355 60.549l5.478-1.174c6.981-31.068 34.686-54.248 67.877-54.248 33.144 0 60.825 23.113 67.858 54.113l5.482 1.174c-6.685-34.403-36.995-60.414-73.34-60.414Zm0 17.763c-25.01 0-46.271 16.177-53.916 38.62l5.926-1.27c7.722-18.914 26.277-32.225 47.99-32.225 21.659 0 40.179 13.243 47.936 32.08l5.941 1.276c-7.687-22.371-28.917-38.48-53.877-38.48Zm.276 26.391c-10.145 0-19.182 4.821-24.963 12.285l-52.23 11.192v16.896l52.503 11.25.069-.318c5.792 7.214 14.674 11.847 24.62 11.847 9.847 0 18.659-4.537 24.456-11.627l.02.098 52.503-11.25V87.811L153.03 76.676c-5.78-7.497-14.842-12.342-25.013-12.342Zm0 5.742c14.302 0 25.838 11.534 25.838 25.836 0 14.302-11.536 25.836-25.838 25.836-14.303 0-25.834-11.534-25.834-25.836 0-14.302 11.531-25.836 25.834-25.836zm.002 2.041a23.794 23.794 0 0 0-23.795 23.793 23.794 23.794 0 0 0 23.795 23.795 23.794 23.794 0 0 0 23.794-23.795 23.794 23.794 0 0 0-23.794-23.793ZM99.062 83.342a31.364 31.364 0 0 0-2.59 11.453H56.567v-2.342zm57.938.053 42.252 9.058v2.342h-39.686a31.359 31.359 0 0 0-2.566-11.4Zm-41.37 10.724h25.003v3.994H115.63zm-59.064 2.83h39.905a31.358 31.358 0 0 0 2.937 12.297l-42.842-9.182zm103.004 0h39.682v3.115l-42.598 9.13a31.346 31.346 0 0 0 2.916-12.245zm-104.6 14.86c7.675 33.102 37.35 57.816 72.77 57.816 35.373 0 65.02-24.647 72.744-57.682l-5.568 1.194c-8.008 29.604-35.023 51.363-67.176 51.363-32.201 0-59.245-21.823-67.205-51.496-1.855-.398-3.71-.798-5.564-1.195zm19.907 4.267c8.415 20.958 28.92 35.79 52.863 35.79 23.89 0 44.364-14.765 52.817-35.65l-6.172 1.323c-8.396 17.29-26.111 29.191-46.645 29.191-20.591 0-38.353-11.967-46.719-29.335l-6.144-1.319z" transform="scale(.26458)" color="currentColor" overflow="visible" fill="currentColor" paint-order="markers fill stroke" stop-color="currentColor"/>
  <g style="line-height:1.25;" font-weight="400" font-size="16.933" font-family="Consolas" fill="currentColor" stroke-width=".265">
    <path d="M58.886 41.101h-3.25v3.374h-1.421V41.1h-3.25v-1.256h3.25v-3.349h1.422v3.349h3.25z" style="" transform="translate(38.29 -2.737)" aria-label="+"/>
  </g>
  <text x="50%" y="93%" font-size="12" alignment="bottom" text-anchor="middle">???</text>

</svg>
