<svg xmlns="http://www.w3.org/2000/svg" viewBox="0 0 67.733 67.733">
  <path d="M127.826 20.09c-.51 0-1.017.016-1.523.039-35.001.705-64.097 25.556-71.317 58.566l8.672-1.86c3.424-4.683 8.163-8.962 14.016-12.646a70.726 70.726 0 0 1 6.332-3.515 99.814 99.814 0 0 0-3.315 12.51l4.489-.963c1.06-4.909 2.447-9.579 4.136-13.93 6.261-2.545 13.213-4.506 20.663-5.719-.47 2.5-.88 5.15-1.262 7.862a40.194 40.194 0 0 1 4.549-2.192c.337-2.166.696-4.277 1.091-6.281 4.361-.527 8.86-.815 13.47-.815 4.61 0 9.113.287 13.476.815.381 1.935.73 3.966 1.058 6.053a40.356 40.356 0 0 1 4.532 2.1c-.37-2.6-.765-5.14-1.217-7.542 7.449 1.213 14.402 3.174 20.662 5.719 1.681 4.33 3.064 8.975 4.123 13.857l4.488.963a99.792 99.792 0 0 0-3.3-12.437 70.704 70.704 0 0 1 6.33 3.515c5.817 3.662 10.534 7.912 13.953 12.563l8.72 1.87c-7.247-32.975-36.328-57.788-71.302-58.493a33.447 33.447 0 0 0-1.524-.04zm0 4.185c1.607 0 3.624 1.341 5.752 4.72 2.128 3.377 4.177 8.53 5.89 14.962.316 1.184.616 2.424.909 3.691a117.63 117.63 0 0 0-12.55-.68c-4.277 0-8.462.24-12.542.678.293-1.267.593-2.506.908-3.689 1.714-6.432 3.755-11.585 5.883-14.963 2.128-3.378 4.143-4.719 5.75-4.719zm-8.457 1.262c-.282.396-.56.8-.828 1.227-2.494 3.959-4.61 9.427-6.393 16.115-.452 1.7-.882 3.48-1.289 5.332-6.816 1.007-13.273 2.607-19.238 4.72 1.41-2.98 2.958-5.788 4.64-8.376 6.3-9.693 14.288-16.382 23.108-19.018zm16.914 0c8.821 2.636 16.81 9.324 23.11 19.018 1.681 2.587 3.228 5.393 4.638 8.373-5.964-2.113-12.422-3.71-19.236-4.717a123.646 123.646 0 0 0-1.29-5.332c-1.78-6.688-3.898-12.156-6.392-16.115a25.257 25.257 0 0 0-.83-1.227zm-30.178 2.164c-5.015 3.731-9.524 8.695-13.35 14.58-2.522 3.881-4.75 8.181-6.66 12.807-3.806 1.641-7.37 3.5-10.642 5.558-6.1 3.839-11.202 8.398-14.98 13.479 6.69-21.972 23.824-39.365 45.632-46.424Zm43.44 0c21.807 7.057 38.942 24.445 45.635 46.414-3.776-5.077-8.875-9.632-14.971-13.469-3.273-2.06-6.842-3.918-10.652-5.56-1.91-4.625-4.137-8.924-6.659-12.805-3.825-5.886-8.337-10.849-13.353-14.58zm-94.272 84.154c7.651 32.416 36.45 56.68 71.03 57.377.506.024 1.013.04 1.523.04s1.018-.016 1.524-.04c34.552-.696 63.335-24.923 71.013-57.3l-9.463 2.027c-3.315 4.127-7.668 7.914-12.921 11.22a70.63 70.63 0 0 1-6.33 3.516 99.401 99.401 0 0 0 3.064-11.265l-4.51.966c-1.023 4.454-2.32 8.7-3.867 12.682-6.26 2.544-13.213 4.503-20.662 5.715.428-2.276.807-4.677 1.162-7.13a35.143 35.143 0 0 1-4.54 2.148c-.307 1.927-.64 3.795-.993 5.591-4.363.527-8.866.813-13.477.813-4.61 0-9.108-.286-13.469-.813a158.55 158.55 0 0 1-1.043-5.93 39.622 39.622 0 0 1-4.543-2.14c.368 2.57.76 5.084 1.208 7.461-7.449-1.212-14.4-3.171-20.66-5.715-1.557-4.005-2.86-8.278-3.885-12.76l-4.508-.964a99.42 99.42 0 0 0 3.08 11.341 70.65 70.65 0 0 1-6.332-3.515c-5.291-3.33-9.67-7.147-12.994-11.309l-9.407-2.016zm5.198 3.383c3.778 5.08 8.882 9.638 14.982 13.477 3.27 2.058 6.835 3.917 10.64 5.558 1.912 4.629 4.14 8.932 6.663 12.815 3.827 5.888 8.338 10.852 13.357 14.582-21.814-7.058-38.953-24.454-45.642-46.432Zm134.71.01c-6.691 21.975-23.831 39.368-45.644 46.424 5.02-3.73 9.534-8.694 13.361-14.584 2.524-3.882 4.752-8.183 6.663-12.81 3.808-1.643 7.376-3.504 10.648-5.563 6.097-3.837 11.196-8.39 14.973-13.467zM91.624 136.436c5.964 2.115 12.423 3.713 19.238 4.72.406 1.85.835 3.63 1.287 5.329 1.782 6.687 3.9 12.154 6.393 16.113.27.43.55.836.834 1.234-8.823-2.637-16.812-9.328-23.113-19.023-1.682-2.588-3.229-5.394-4.639-8.373zm72.406.002c-1.41 2.978-2.955 5.784-4.636 8.37-6.302 9.697-14.292 16.388-23.116 19.024.284-.398.566-.805.836-1.234 2.494-3.96 4.611-9.426 6.393-16.113.452-1.699.881-3.479 1.287-5.328 6.814-1.008 13.272-2.605 19.236-4.72zm-48.742 5.283c4.08.439 8.264.68 12.54.68 4.277 0 8.465-.24 12.548-.68a115.561 115.561 0 0 1-.906 3.686c-1.714 6.432-3.763 11.584-5.89 14.962-2.129 3.379-4.146 4.725-5.753 4.725-1.607 0-3.622-1.346-5.75-4.725-2.128-3.378-4.17-8.53-5.883-14.962a119.433 119.433 0 0 1-.906-3.686z" transform="scale(.26458)" color="currentColor" overflow="visible" fill="currentColor" paint-order="markers fill stroke" stop-color="currentColor"/>
  <path d="M33.863 15.77a9.391 9.391 0 0 0-7.435 3.659l-15.556 3.333v5.032l15.637 3.351.02-.095a9.39 9.39 0 0 0 7.334 3.529 9.392 9.392 0 0 0 7.283-3.463l.007.03 15.637-3.352v-5.032l-15.477-3.316a9.395 9.395 0 0 0-7.45-3.677zm0 1.71a7.682 7.682 0 0 1 7.695 7.695 7.682 7.682 0 0 1-7.695 7.695 7.682 7.682 0 0 1-7.695-7.695 7.682 7.682 0 0 1 7.695-7.695zm0 .608a7.087 7.087 0 0 0-7.086 7.086 7.087 7.087 0 0 0 7.087 7.088 7.087 7.087 0 0 0 7.087-7.088 7.087 7.087 0 0 0-7.087-7.086zm.075 1.76a5.329 5.329 0 0 1 5.25 5.164l.016.534-1.068.033-.016-.535a4.257 4.257 0 0 0-5.126-4.038l-.524.109-.218-1.046.524-.109c.386-.08.775-.117 1.162-.112zm-8.699 1.583a9.339 9.339 0 0 0-.771 3.41H12.582v-.696zm17.257.016 12.584 2.698v.697H43.26a9.336 9.336 0 0 0-.764-3.395zm-29.914 4.037h11.886a9.335 9.335 0 0 0 .875 3.662l-12.76-2.734Zm30.679 0H55.08v.928L42.393 29.13a9.333 9.333 0 0 0 .868-3.646z" color="currentColor" overflow="visible" fill="currentColor" paint-order="markers fill stroke" stop-color="currentColor"/>
  <text x="50%" y="93%" font-size="17" alignment="bottom" text-anchor="middle">???</text>

</svg>
