<svg xmlns="http://www.w3.org/2000/svg" viewBox="0 0 67.733 67.733">
  <path d="M29.514 5.674a.823.823 0 0 0-.576.236l-15.43 15.133a.823.823 0 0 0-.247.588v3.388a.823.823 0 0 0 .823.823h39.1a.823.823 0 0 0 .823-.823V21.63a.823.823 0 0 0-.247-.588L38.33 5.91a.823.823 0 0 0-.577-.236Zm1.252 1.647h5.907l-2.954 2.974zm-.691.18 3.21 3.232-12.033 12.116zm7.18.109 7.162 12.457 1.365 2.375-11.628-11.709Zm1.042.574 14.064 13.793v2.218h-4.838l-.05-.05-3.068-5.337zm-9.326 0-9.206 16.011h-4.858v-2.218zm4.748 2.987 12.934 13.024H20.787z" color="currentColor" overflow="visible" fill="currentColor" stop-color="currentColor"/>
  <path d="m37.248 33.916-2.146-2.146 2.146-2.146 2.146 2.146z" fill="currentColor" paint-order="markers fill stroke"/>
  <path d="m33.573 37.59-2.146-2.145 2.146-2.146 2.146 2.146z" fill="currentColor" paint-order="markers fill stroke"/>
  <path d="m33.543 30.212-2.146-2.146 2.146-2.146 2.146 2.146z" fill="currentColor" paint-order="markers fill stroke"/>
  <path d="m29.869 33.887-2.146-2.146 2.146-2.146 2.146 2.146z" fill="currentColor" paint-order="markers fill stroke"/>
  <path d="m44.656 41.324-2.146-2.146 2.146-2.146 2.146 2.146z" fill="currentColor" paint-order="markers fill stroke"/>
  <path d="m40.981 44.999-2.146-2.146 2.146-2.146 2.146 2.146z" fill="currentColor" paint-order="markers fill stroke"/>
  <path d="m40.952 37.62-2.146-2.146 2.146-2.146 2.146 2.146z" fill="currentColor" paint-order="markers fill stroke"/>
  <path d="m37.277 41.295-2.146-2.146 2.146-2.146 2.146 2.146z" fill="currentColor" paint-order="markers fill stroke"/>
  <path d="m29.869 41.353-2.146-2.145 2.146-2.146 2.146 2.146z" fill="currentColor" paint-order="markers fill stroke"/>
  <path d="m26.194 45.028-2.146-2.146 2.146-2.146 2.146 2.146z" fill="currentColor" paint-order="markers fill stroke"/>
  <path d="m26.164 37.65-2.146-2.147 2.146-2.146 2.146 2.146z" fill="currentColor" paint-order="markers fill stroke"/>
  <path d="m22.49 41.324-2.146-2.146 2.146-2.146 2.146 2.146z" fill="currentColor" paint-order="markers fill stroke"/>
  <path d="m33.573 44.999-2.146-2.146 2.146-2.146 2.146 2.146z" fill="currentColor" paint-order="markers fill stroke"/>

  <text x="50%" y="93%" font-size="12" alignment="bottom" text-anchor="middle">chaff</text>

</svg>
