<svg xmlns="http://www.w3.org/2000/svg" viewBox="0 0 67.733 67.733">
  <path d="M116.94 71.041a2 2 0 0 0-.085.002 2 2 0 0 0-1.89 1.844l30.139 30.138 10.898-6.293a2 2 0 0 0 0-3.462l-38.04-21.961a2 2 0 0 0-1.023-.268zm-1.981 15.984v29.934a2 2 0 0 0 3.004 1.734l18.172-10.492-21.176-21.176z" transform="scale(.26458)" color="currentColor" overflow="visible" fill="currentColor" stop-color="currentColor"/>
  <circle cx="34.727" cy="25.074" r="11.245" fill="none" stroke="currentColor" stroke-width="1.587" stroke-linejoin="round" stroke-dashoffset="6"/>
  <path style="mix-blend-mode:normal" d="m26.458 17.198 15.875 15.875" fill="none" stroke="currentColor" stroke-width="1.587"/>
  <text x="50%" y="93%" font-size="17" alignment="bottom" text-anchor="middle">???</text>

</svg>
