<svg xmlns="http://www.w3.org/2000/svg" viewBox="0 0 67.733 67.733">
  <path d="m20.815 9.567.094 3.516 17.999 18 3.2-3.2.222-.223-17.999-18zm26.295 0-3.516.094-9.174 9.174 1.483 1.483 9.127-9.126.445.446-9.126 9.126 1.493 1.494 9.174-9.175zm-24.214 1.625L40.185 28.48l-.446.446-17.29-17.29Zm7.187 11.98-4.488 4.488.224.223 3.199 3.2 4.487-4.488-1.493-1.493-3.826 3.825-.446-.446 3.826-3.825-1.483-1.484zm-5.827 1.92-.61 1.666 2.097 2.096-5.442 5.443-.464-.464-.314.314 3.14 3.14.314-.314-.583-.583 5.442-5.442 1.843 1.842 1.665-.61-.152-.417-1.4.512-5.63-5.631.512-1.4zm19.413 0-.418.153.513 1.399-5.631 5.63-1.4-.51-.152.416 1.666.61 1.842-1.842 5.443 5.442-.584.583.314.314 3.14-3.14-.313-.314-.464.464-5.443-5.443 2.097-2.096z" fill="currentColor" paint-order="markers stroke fill"/>
  <path d="M54.344 6.615v24.694c-.032 5.067-6.584 9.204-20.506 12.347-13.922-3.143-20.473-7.28-20.505-12.347V6.615h20.505z" fill="none" stroke="currentColor" stroke-width="2.381" stop-color="currentColor"/>
  <text x="50%" y="93%" font-size="12" alignment="bottom" text-anchor="middle">???</text>

</svg>
