<svg xmlns="http://www.w3.org/2000/svg" viewBox="0 0 67.733 67.733">
  <path d="M18.968 12.75c-1.049 0-1.893.874-1.893 1.96v15.672c0 1.085.844 1.96 1.893 1.96H40.73l-2.365 7.346 7.096-7.347h4.022c1.048 0 1.892-.874 1.892-1.959V14.71c0-1.086-.844-1.96-1.892-1.96zm30.345.635-.023.002c.667-.056 1.4.323 1.57 1.046a.328.327 0 0 1 .01.07c.078 4.665.025 9.332.038 13.991a.328.327 0 0 1-.002.036c-.042.403.017.88.024 1.383.007.503-.043 1.048-.37 1.535a.328.327 0 0 1-.065.072c-.403.327-.884.4-1.324.407-.438.005-.859-.05-1.2-.034-1.064.123-2.046-.156-2.814.198-1.518 1.509-2.99 3.085-4.498 4.627a.328.327 0 0 1-.546-.327l.928-2.886a.328.327 0 0 1 .033-.071 1.4 1.4 0 0 0 .162-.939c-.06-.298-.21-.5-.506-.59H19.81a2.452 2.452 0 0 1-1.167-.084c-.399-.14-.778-.453-.896-.944a.328.327 0 0 1-.01-.072c-.08-5.049-.025-10.1-.039-15.143l.004.036c-.04-.367-.059-.82.062-1.25.121-.431.426-.862.955-1.005a.328.327 0 0 1 .08-.01c2.404-.047 4.808-.01 7.202-.025a.328.327 0 0 1 .002 0c7.772-.02 15.544.022 23.31-.023zm.005.653c-7.771.045-15.545.002-23.314.022-2.38.015-4.757-.02-7.123.024-.28.082-.406.251-.486.538-.083.294-.078.682-.042 1.005a.328.327 0 0 1 .001.034c.014 5.028-.04 10.057.039 15.073.066.254.217.384.466.471.254.089.595.099.875.053a.328.327 0 0 1 .053-.004H40.81a.328.327 0 0 1 .087.01c.556.155.885.622.982 1.103a1.98 1.98 0 0 1-.224 1.37l-.49 1.522c1.188-1.233 2.368-2.478 3.587-3.687a.328.327 0 0 1 .087-.063c1.07-.52 2.192-.158 3.078-.265a.328.327 0 0 1 .024-.004c.427-.02.848.04 1.222.034.353-.004.63-.075.867-.247.191-.315.251-.675.245-1.104-.006-.442-.068-.93-.02-1.427-.013-4.644.036-9.289-.041-13.922-.087-.332-.504-.567-.869-.536a.328.327 0 0 1-.026 0zm-28.511 2.657h24.837v1.09H20.807Zm0 3.673h17.74v1.09h-17.74Zm0 3.673h22.47v1.09h-22.47Zm0 3.673h9.461v1.09h-9.461z" fill="currentColor" paint-order="markers fill stroke"/>
  <path d="M6.689 5.368a1.248 1.285 0 0 0-1.246 1.285v37.109a1.248 1.285 0 0 0 1.246 1.283h54.06a1.248 1.285 0 0 0 1.249-1.283V6.653a1.248 1.285 0 0 0-1.249-1.285Zm1.248 2.57h51.566v34.537H7.937Z" color="currentColor" overflow="visible" fill="currentColor" stop-color="currentColor"/>

  <text x="50%" y="93%" font-size="12" alignment="bottom" text-anchor="middle">comm panel</text>

</svg>
