<svg xmlns="http://www.w3.org/2000/svg" viewBox="0 0 67.733 67.733">
  <path d="M33.616 5.52a20.311 20.311 0 0 0-19.273 14.443h-2.489c-2.008 0-3.662 1.656-3.662 3.665v7.325c0 2.009 1.654 3.665 3.662 3.665h3.622c.145 0 .288-.011.43-.028l10.717 9.186h3.852c.136.526.609.914 1.179.914h4.171c.677 0 1.221-.544 1.221-1.22v-1.832c0-.677-.544-1.221-1.22-1.221h-4.172c-.571 0-1.044.389-1.18.916h-2.948l-9.302-7.975a3.643 3.643 0 0 0 .913-2.405v-7.325c0-1.534-.965-2.859-2.315-3.401A17.845 17.845 0 0 1 33.636 7.962 17.84 17.84 0 0 1 50.683 20.07c-1.6.39-2.807 1.843-2.807 3.557v7.325c0 2.009 1.655 3.665 3.663 3.665h3.62c2.008 0 3.664-1.656 3.664-3.665v-7.325c0-2.009-1.656-3.665-3.665-3.665h-1.946C50.62 11.355 42.644 5.446 33.616 5.52Zm.238 4.012c-6.494.04-12.294 3.294-14.039 8.36a1.221 1.221 0 0 0 .758 1.55 1.221 1.221 0 0 0 1.55-.754c1.29-3.747 6.072-6.678 11.747-6.713 5.676-.034 10.527 2.842 11.9 6.578a1.221 1.221 0 0 0 1.569.726 1.221 1.221 0 0 0 .723-1.569c-1.852-5.039-7.713-8.217-14.208-8.178ZM21.242 21.03a1.464 1.464 0 0 0-1.465 1.465v9.485a1.464 1.464 0 0 0 1.465 1.465 1.464 1.464 0 0 0 1.465-1.465v-9.485a1.464 1.464 0 0 0-1.465-1.465zm24.585 0a1.464 1.464 0 0 0-1.465 1.465v9.485a1.464 1.464 0 0 0 1.465 1.465 1.464 1.464 0 0 0 1.465-1.465v-9.485a1.464 1.464 0 0 0-1.465-1.465zm-33.973 1.378h3.622a1.19 1.19 0 0 1 1.218 1.22v7.326c0 .698-.52 1.222-1.218 1.222h-3.622a1.194 1.194 0 0 1-1.222-1.222v-7.325c0-.698.525-1.221 1.222-1.221zm39.685 0h3.62c.697 0 1.22.523 1.22 1.22v7.326c0 .698-.523 1.222-1.22 1.222h-3.62a1.193 1.193 0 0 1-1.22-1.222v-7.325c0-.698.523-1.221 1.22-1.221zm-37.896 2.965a.916.916 0 0 0-.917.915v1.832a.916.916 0 0 0 .917.915.916.916 0 0 0 .915-.915v-1.832a.916.916 0 0 0-.915-.915zm39.882 0a.916.916 0 0 0-.917.915v1.832a.916.916 0 0 0 .917.915.916.916 0 0 0 .914-.915v-1.832a.916.916 0 0 0-.914-.915z" color="currentColor" overflow="visible" fill="currentColor" paint-order="markers fill stroke" stop-color="currentColor"/>
  <text x="50%" y="93%" font-size="17" alignment="bottom" text-anchor="middle">???</text>

</svg>
