<svg xmlns="http://www.w3.org/2000/svg" viewBox="0 0 67.733 67.733">
  <path d="m33.914 5.936-.018.018a.677.677 0 0 0-.014 0 .677.677 0 0 0-.244.05l-13.06 5.41a.677.677 0 0 0-.367.366l-5.408 13.06a.677.677 0 0 0-.05.223l-.018.018.017.016a.677.677 0 0 0 .051.26l5.408 13.06a.677.677 0 0 0 .368.365l13.06 5.41a.677.677 0 0 0 .221.05l.018.018.017-.017a.677.677 0 0 0 .26-.051l13.061-5.41a.677.677 0 0 0 .365-.366l5.41-13.06a.677.677 0 0 0 .05-.221l.018-.018-.017-.017a.677.677 0 0 0-.051-.26l-5.41-13.06a.677.677 0 0 0-.365-.366l-13.06-5.41a.677.677 0 0 0-.223-.05zm0 1.914 17.23 17.265L33.88 42.348 16.648 25.083Zm-2.43.512-14.306 14.28 4.178-10.085zm4.87.019 10.084 4.176 4.195 10.13zm-9.123 14.244v4.946h13.33v-4.946zm1.356 1.355h10.621v2.238H28.587Zm-11.428 3.529L31.44 41.817 21.356 37.64Zm33.455.048L46.438 37.64l-10.131 4.196z" color="currentColor" overflow="visible" fill="currentColor" paint-order="markers stroke fill" stop-color="currentColor"/>
  <text x="50%" y="93%" font-size="12" alignment="bottom" text-anchor="middle">???</text>

</svg>
