<svg xmlns="http://www.w3.org/2000/svg" viewBox="0 0 67.733 67.733">
  <path d="M124.014 19.588v21.484H72.139V89.42H54.252v10.746h17.887v14.459l8.947-5.219V51.818H175v2.805l8.945-5.217v-8.334h-50.984V19.588Zm59.931 41.396L175 66.204v71.564H81.086v-16.782l-8.947 5.22v22.308h51.875V170h8.947v-21.486h50.984v-48.348h17.887V89.42h-17.887zm-60.373 1.575v22.064l8.942-5.217V62.56Zm-33.54 26.86v10.747h6.896L115.35 89.42Zm45.167 0-18.422 10.747h6.795v26.855h8.942v-26.855h33.54V89.42Z" transform="scale(.26458)" color="currentColor" overflow="visible" fill="currentColor" paint-order="markers fill stroke" stop-color="currentColor"/>
  <path d="m10.583 40.217 47.625-27.782" fill="none" stroke="currentColor" stroke-width="3.704" stop-color="currentColor"/>
  <text x="50%" y="93%" font-size="17" alignment="bottom" text-anchor="middle">???</text>

</svg>
