<svg xmlns="http://www.w3.org/2000/svg" viewBox="0 0 67.733 67.733">
  <path d="m27.683 14.753-.007.004a.821.821 0 0 0-.315.21c-.091.104-.16.252-.194.471l-.001.003V29.31a1.337 1.337 0 0 1 .758 1.205 1.337 1.337 0 0 1-1.338 1.337 1.337 1.337 0 0 1-1.337-1.337 1.337 1.337 0 0 1 .762-1.208V20.55l-.002-.006a.922.922 0 0 0-.216-.363c-.116-.11-.295-.197-.59-.244h-3.784a1.101 1.101 0 0 0-.435.172c-.132.097-.24.25-.301.494l-.001.005v13.13c.027.26.1.423.204.521a.578.578 0 0 0 .373.138h10.763c.215-.05.333-.14.398-.249.066-.108.083-.228.116-.333l.002-.006V15.315l-.001-.004a.652.652 0 0 0-.25-.404.92.92 0 0 0-.45-.153h-.001zm22.912 0h-.002a.92.92 0 0 0-.449.154.652.652 0 0 0-.25.404l-.001.004v18.494l.002.005c.033.105.05.225.115.333.066.108.183.2.399.248l.004.002h10.758v-.001a.578.578 0 0 0 .373-.138c.105-.098.178-.26.205-.52v-13.13l-.001-.006c-.062-.244-.17-.397-.301-.494a1.101 1.101 0 0 0-.435-.172h-3.784c-.296.047-.475.134-.591.244a.922.922 0 0 0-.216.363l-.002.006v8.758a1.337 1.337 0 0 1 .763 1.207 1.337 1.337 0 0 1-1.338 1.337 1.337 1.337 0 0 1-1.337-1.337 1.337 1.337 0 0 1 .757-1.205V15.438c-.034-.219-.103-.367-.195-.471a.821.821 0 0 0-.314-.21l-.007-.004zm-8.28 0-.008.004a.821.821 0 0 0-.314.21c-.092.104-.161.252-.194.471l-.001.003V29.31a1.337 1.337 0 0 1 .757 1.205 1.337 1.337 0 0 1-1.337 1.337 1.337 1.337 0 0 1-1.337-1.337 1.337 1.337 0 0 1 .762-1.207V20.55l-.002-.006a.923.923 0 0 0-.216-.363c-.116-.11-.295-.197-.59-.244H36.05a1.101 1.101 0 0 0-.435.172c-.131.097-.239.25-.3.494l-.002.006v13.129c.027.26.1.422.205.52a.578.578 0 0 0 .372.139h10.763c.216-.05.333-.14.399-.25.066-.107.082-.227.115-.332l.002-.006V15.315l-.001-.004a.652.652 0 0 0-.25-.404.92.92 0 0 0-.449-.153h-.002zM6.858 19.908l-.006.002a1.4 1.4 0 0 0-.477.248.868.868 0 0 0-.283.516l-.002.003v13.061l.002.005c.035.15.055.316.16.45.105.136.293.23.638.244h10.47a.664.664 0 0 0 .358-.171.653.653 0 0 0 .173-.418v-2.595c-.001-.253-.077-.41-.193-.508-.115-.099-.263-.14-.403-.18l-.006-.002h-5.882v-5.644h.004a1.337 1.337 0 0 1-.727-1.19 1.337 1.337 0 0 1 1.338-1.337 1.337 1.337 0 0 1 1.337 1.337 1.337 1.337 0 0 1-.742 1.198v4.299l.211.122H17.2c.237.005.402-.061.514-.174.112-.113.168-.267.204-.434l.001-.005v-8.158c-.028-.147-.074-.297-.203-.417-.13-.121-.336-.21-.677-.252h-.002z" color="currentColor" overflow="visible" fill="currentColor" stop-color="currentColor"/>
  <text x="50%" y="93%" font-size="17" alignment="bottom" text-anchor="middle">???</text>

</svg>
