<svg xmlns="http://www.w3.org/2000/svg" viewBox="0 0 67.733 67.733">
  <path d="m161.096 19.23-.004.104c-.007.022-.008.045-.014.066l-.072-.103c-.144.429-.029.877-.117 1.283-.181.825-.09 1.745-.26 2.504l-.006.006v.008c-.01.223-.022.449-.031.672l.008-.022c-.278 1.134-.2 2.419-.465 3.49l-.008.008v.008l-.059.605.008-.007c-.284 1.138-.381 2.311-.723 3.367-.727 2.25-1.724 3.958-3.537 5.092-.129.08-.248.078-.427.17-.06.03-.129.08-.192.126a1.76 1.76 0 0 1-.162.11c-.158.083-.315.084-.517.17-.647.273-1.416.468-2.163.664-.47.123-.983.15-1.455.265-.404.1-.85.076-1.248.17h-.435c-.718.16-1.673.075-2.444.266l.024-.006h-.555c-.28.016-.67.027-.945.088-.031.007-.068.002-.1.006l-.002-.006-.012.006c-.302.036-.643-.018-.963.053-.42.093-.933-.038-1.367.058a.715.715 0 0 1-.176.008c-.067-.005-.141-.027-.132-.021l-.024-.016h-.03a.578.578 0 0 0-.169.037l-.066.023v.067a.7.7 0 0 0 .037.228l.023.059h.066l1.848.021a228.407 228.407 0 0 0-19.92 11.916l3.338 4.99a222.015 222.015 0 0 1 20.336-12.115l-2.477-4.718c.893.087 1.967-.018 2.78.164l.008.008h.008l.93.029-.014-.006c.587.137 1.321.14 1.86.266h.317c1.566.394 3.085.597 4.274 1.298 1.18.697 2.015 1.64 2.73 2.813.142.232.176.495.319.781.683 1.363.869 3.039 1.299 4.725v.289c.062.23.108.561.17.826l.029.494v.016c.296 1.214.2 2.722.494 4.008.09.394.027.859.12 1.255.081.351.029.805.087 1.182.011.072.025.163.03.242a.42.42 0 0 1-.014.162l-.024.03.008.037a.263.263 0 0 0 .125.193c.072.042.175.033.252-.023.02-.006.04-.008.059-.014l.066-.023v-.067c-.036-.607.04-1.765.17-2.361.104-.474.034-.983.12-1.365v-.016c.008-.245.02-.494.029-.738v-.022c.144-.638.124-1.426.258-2.015.073-.325-.005-.542.058-.813.248-1.052.263-2.159.526-3.166.253-.973.486-1.92.81-2.812.079-.217.246-.505.37-.717.184-.32.28-.613.464-.893.894-1.362 2.32-2.3 4.047-2.842.817-.256 1.71-.344 2.605-.554.449-.106.948-.072 1.395-.178l-.022.008h.508l.008-.008c.768-.168 1.766-.012 2.614-.2.136-.03.274-.022.414-.007.14.015.28.039.427.008.277-.058.707-.059 1.086-.059.107 0 .285.016.457.022.154.005.296 0 .414-.051h1.477l.014-.074c.006-.033.01-.043.015-.08a.206.206 0 0 0-.023-.112l-.008-.015c-.008-.024-.013-.048-.022-.073l-.021-.066-.067.006c-.279.018-.667.03-.937-.03-.177-.038-.367-.022-.547-.013-.18.009-.35.01-.473-.016-.419-.09-.84.011-1.158-.058-.563-.123-1.194-.003-1.654-.112l-.016-.007h-.441l.021.007c-.727-.161-1.563-.106-2.207-.265h-.324c-.863-.206-1.78-.284-2.547-.516l-.015-.008h-.008l-.243-.029h-.015c-1.57-.57-2.606-.975-3.668-2.037-.184-.184-.411-.354-.54-.54-.47-.68-.859-1.432-1.232-2.222 0-.003-.006-.005-.008-.008-.008-.067-.014-.131-.023-.199v-.014l-.008-.007a.06.06 0 0 0-.006-.022c-.003-.005-.004-.011-.008-.015-.006-.009-.017-.016-.023-.022l-.03-.03c-.007-.005-.016-.003-.021-.007l-.008-.008v-.008c-.16-.336-.17-.696-.31-1.107-.157-.455-.288-1.038-.428-1.535-.208-.736-.22-1.538-.415-2.295l.008.014-.056-.612v-.015c-.253-1.04-.21-2.291-.467-3.381v-.487c-.092-.41-.073-.944-.176-1.41v-.015l-.111-1.373v-.008c-.004-.092-.025-.195-.037-.287a.999.999 0 0 1-.008-.186l.015-.021v-.022a.644.644 0 0 0-.037-.199l-.023-.066h-.258zm-98.276.573-.03.093c-.222.657-.048 1.352-.185 1.975-.276 1.264-.138 2.669-.4 3.832l-.002.012v.012l-.045 1.02c-.42 1.732-.304 3.687-.709 5.323l-.002.01v.012l-.09.926c-.433 1.74-.586 3.534-1.107 5.148-1.114 3.447-2.638 6.073-5.414 7.81-.199.125-.383.123-.658.262-.092.047-.187.118-.284.188a2.76 2.76 0 0 1-.252.17c-.241.128-.48.13-.79.261-.99.419-2.175.718-3.319 1.018-.72.19-1.503.223-2.224.4-.61.15-1.283.126-1.885.264h-.678l-.016.004c-1.092.242-2.54.111-3.716.396h-.844c-.43.024-1.025.043-1.447.137-.5.111-1.1-.031-1.647.09-.645.143-1.428-.057-2.092.09a1.16 1.16 0 0 1-.275.01c-.103-.008-.212-.045-.2-.037l-.038-.024-.045.002a.899.899 0 0 0-.258.053l-.096.033.002.1c.002.145.018.255.053.355l.031.092.098.002 4.049.045c1.459.331 3.524.02 5.002.351l.011.004h.014l1.422.045c.896.206 2.007.205 2.824.397l.016.004h.488c2.391.601 4.716.913 6.533 1.986 1.807 1.067 3.083 2.522 4.18 4.318.217.357.265.756.484 1.194 1.044 2.084 1.333 4.638 1.989 7.215v.449l.003.017c.097.357.169.867.264 1.274l.045.748v.012l.004.013c.453 1.86.306 4.176.756 6.145.138.605.036 1.308.178 1.916.125.538.041 1.241.13 1.818.017.11.04.247.047.37a.638.638 0 0 1-.025.247l-.03.045.01.051c.021.125.082.24.192.303s.263.052.38-.033l-.036.017.134-.043.1-.035-.006-.105c-.055-.931.063-2.701.264-3.616.159-.725.048-1.506.18-2.093l.001-.012v-.014l.045-1.152c.225-.98.192-2.192.397-3.1.112-.496-.008-.83.09-1.246.38-1.611.4-3.31.8-4.854.388-1.49.747-2.94 1.243-4.308.12-.333.378-.766.566-1.092.283-.49.428-.946.709-1.375 1.37-2.088 3.556-3.523 6.201-4.353 1.252-.394 2.624-.521 3.996-.844.677-.16 1.428-.11 2.104-.264h.772l.015-.004c1.176-.257 2.708-.024 4.006-.31.21-.046.417-.03.63-.006.214.023.434.053.659.006.423-.09 1.08-.086 1.662-.086.163 0 .437.027.701.035.237.007.457.001.639-.08h2.248l.021-.115c.01-.05.02-.07.028-.127a.324.324 0 0 0-.045-.19l.011.026-.044-.133-.034-.102-.107.006c-.428.028-1.015.05-1.43-.04-.27-.06-.56-.044-.836-.03-.275.014-.536.025-.722-.016-.641-.14-1.291.019-1.78-.088-.862-.188-1.829-.012-2.535-.177l-.015-.004h-.676c-1.11-.242-2.378-.156-3.358-.399l-.015-.004h-.494c-1.317-.311-2.72-.44-3.89-.795l-.01-.004-.014-.002-.383-.043c-2.419-.877-3.999-1.491-5.631-3.125-.281-.28-.634-.541-.83-.826-.72-1.043-1.323-2.184-1.893-3.392l-.04-.334-.005-.016-.006-.016c-.018-.049-.038-.064-.056-.082a.877.877 0 0 0-.051-.044l-.035-.032c-.25-.518-.261-1.075-.479-1.709-.24-.698-.451-1.592-.666-2.353-.316-1.123-.325-2.346-.619-3.502l-.088-.93v-.01l-.002-.01c-.388-1.595-.313-3.519-.709-5.19v-.718l-.004-.013c-.14-.63-.104-1.453-.263-2.166l-.178-2.131v-.008c-.006-.142-.038-.3-.057-.443a1.119 1.119 0 0 1-.004-.282l.018-.033-.002-.037a.993.993 0 0 0-.05-.307l-.034-.093zm119.973 8.357c-4.896-.09-9.75.516-14.428 1.508l1.248 5.87c5.779-1.226 11.665-1.767 17.356-1.087 1.698.21 3.355.53 4.937.996l1.7-5.75a36.866 36.866 0 0 0-5.899-1.203h-.008a48.746 48.746 0 0 0-4.906-.334zm-70.102 19.777-.008.06v.023c-.129.41-.024.845-.109 1.232-.176.802-.094 1.693-.26 2.43v.013l-.029.65.008-.023c-.27 1.102-.192 2.35-.45 3.389l-.007.008v.008c-.02.197-.034.392-.053.59-.275 1.103-.371 2.233-.701 3.255-.705 2.184-1.674 3.853-3.432 4.953-.125.079-.239.074-.414.163a1.48 1.48 0 0 0-.183.119c-.062.044-.12.091-.157.111-.152.081-.304.079-.502.162-.403.17-.861.308-1.328.438l-.281-.35c-.249.2-.492.405-.74.605-.384.075-.78.115-1.156.207-.392.097-.825.078-1.211.17h-.428c-.696.155-1.62.064-2.37.25h-.517c-.272.015-.648.03-.916.09-.314.07-.693-.026-1.04.051-.409.09-.907-.034-1.329.059a.7.7 0 0 1-.17.007c-.065-.004-.134-.027-.125-.021l-.03-.016h-.029a.574.574 0 0 0-.162.03l-.06.023v.066a.735.735 0 0 0 .03.229l.023.059 2.613.029c.926.216 2.241.018 3.181.228h.008l.914.032c.252.057.535.084.813.113a375.353 375.353 0 0 0-15.62 13.586l4.06 4.422c5.852-5.374 11.842-10.586 18.019-15.547l-.64-.797c.934.646 1.648 1.469 2.257 2.467.137.225.164.474.303.752.662 1.323.844 2.947 1.262 4.584v.289c.061.228.108.55.17.81l.029.473v.008c.287 1.178.195 2.65.48 3.898.088.383.022.825.112 1.211.079.34.023.784.08 1.15.01.07.025.16.029.237a.432.432 0 0 1-.014.156l-.015.03v.037c.013.08.054.15.125.19.07.042.176.034.252-.02.018-.007.04-.01.058-.016l.067-.022-.008-.074c-.035-.589.043-1.71.17-2.289.1-.46.028-.957.11-1.328v-.008l.03-.723v-.015c.142-.621.123-1.389.252-1.963.072-.316-.003-.529.059-.791.24-1.022.255-2.093.51-3.07.245-.945.467-1.865.78-2.73.077-.21.243-.49.362-.696.18-.311.274-.6.451-.871.867-1.322 2.246-2.228 3.92-2.754.792-.25 1.662-.333 2.531-.537.435-.103.918-.067 1.352-.17l-.016.008h.489l.008-.008c.743-.163 1.715-.012 2.539-.194.132-.029.263-.02.398-.005.135.014.27.035.414.005.268-.056.687-.058 1.055-.058.103 0 .276.018.443.023.151.005.29 0 .407-.052h1.423l.016-.075c.006-.031.016-.043.021-.08a.185.185 0 0 0-.021-.103l-.008-.016-.023-.072-.022-.068-.074.007c-.271.018-.639.028-.9-.029-.172-.037-.358-.022-.532-.014-.174.009-.34.018-.457-.007-.407-.09-.823.008-1.13-.06-.548-.119-1.156-.006-1.602-.11l-.014-.008h-.428l.014.008c-.706-.158-1.517-.103-2.14-.258h-.311c-.838-.2-1.73-.277-2.473-.502l-.008-.008h-.008l-.242-.03h-.016c-1.523-.552-2.52-.947-3.55-1.978-.179-.178-.4-.346-.524-.525a15.074 15.074 0 0 1-1.197-2.133v-.014l-.03-.207v-.015l-.008-.008a.06.06 0 0 0-.006-.022c-.003-.005-.004-.011-.008-.015-.006-.008-.017-.008-.023-.014l-.03-.03-.02-.015v-.008c-.16-.327-.165-.675-.303-1.078-.152-.442-.286-1.007-.422-1.49-.201-.714-.21-1.493-.399-2.228l.008.013c-.018-.197-.04-.4-.058-.597v-.008c-.245-1.008-.203-2.227-.452-3.285v-.473c-.089-.4-.068-.92-.17-1.373v-.008l-.109-1.342c-.003-.091-.024-.19-.037-.281a.68.68 0 0 1 0-.178l.008-.021v-.024a.69.69 0 0 0-.03-.199l-.023-.058zm97.56 1.47-5.987.421c.384 5.496-1.15 11.18-3.32 16.676a75.31 75.31 0 0 1-2.143 4.834l5.404 2.621a81.47 81.47 0 0 0 2.31-5.227v-.015c2.333-5.901 4.217-12.44 3.737-19.31zm-155.78 4.607c-5.116 3.82-9.804 8.61-12.86 14.572a30.319 30.319 0 0 0-2.31 5.957l5.795 1.543a24.318 24.318 0 0 1 1.853-4.762l.008-.008c2.51-4.892 6.519-9.069 11.11-12.498zm79.265 4.685-.205.002.088.08-.176-.021c-.004.012.004.024 0 .037h-.008v.021c-.078.3-.024.605-.082.872-.13.599-.062 1.262-.183 1.802v.014l-.024.48c-.196.818-.144 1.734-.332 2.495v.015c-.014.146-.03.29-.045.436-.202.817-.273 1.655-.515 2.406-.521 1.615-1.231 2.843-2.526 3.654-.087.055-.174.051-.308.12-.047.023-.09.062-.135.095a1.091 1.091 0 0 1-.117.074c-.108.058-.219.062-.37.125-.46.196-1.014.332-1.55.473-.334.088-.7.107-1.041.191-.285.07-.602.056-.893.125l.024-.007h-.326l-.008.007c-.509.113-1.196.046-1.756.186h-.377c-.2.01-.483.021-.686.066-.225.05-.504-.022-.77.037-.293.066-.659-.028-.98.043a.577.577 0 0 1-.119 0c-.046-.003-.097-.018-.08-.007l-.03-.022-.029.008a.465.465 0 0 0-.127.021l-.066.024v.066a.55.55 0 0 0 .03.176l.023.06h.066l1.875.022c.694.162 1.668.008 2.356.162l.006.008h.015c.223.007.442.017.664.023l-.013-.007c.426.1.947.102 1.328.191h.228c1.126.284 2.218.429 3.065.93.842.498 1.435 1.175 1.947 2.015.098.162.123.35.228.56.485.97.62 2.162.924 3.368v.22l.008.016c.044.162.073.39.117.582.007.12.017.238.024.356v.021c.21.868.141 1.95.353 2.88.064.277.02.607.088.9.057.245.018.58.06.857.009.052.019.115.022.17a.33.33 0 0 1-.008.096l-.021.029.008.037a.225.225 0 0 0 .103.162c.06.035.144.021.205-.023l-.021.015.058-.021.067-.024v-.066a8.094 8.094 0 0 1 .127-1.69c.076-.347.02-.714.08-.982v-.015l.021-.532V83.1c.106-.465.092-1.028.186-1.448.054-.24 0-.396.045-.584.179-.76.182-1.56.369-2.28.182-.7.35-1.382.582-2.022.055-.152.177-.349.266-.502.134-.233.202-.453.332-.65.637-.975 1.652-1.641 2.886-2.03.583-.183 1.23-.246 1.875-.398.317-.075.67-.05.997-.127l-.014.007h.361l.008-.007c.543-.12 1.26-.01 1.875-.147a.892.892 0 0 1 .287 0c.1.01.207.024.319 0 .193-.04.502-.037.775-.037.074 0 .2.01.324.014.11.003.21.002.303-.037h1.078l.014-.073c.004-.021.003-.028.008-.06a.162.162 0 0 0-.014-.088l-.008-.016a3.464 3.464 0 0 0-.016-.05l-.021-.067-.066.008c-.2.014-.476.018-.664-.024-.132-.028-.27-.02-.399-.013a1.44 1.44 0 0 1-.334-.008c-.309-.067-.614.011-.834-.037-.412-.09-.866-.012-1.187-.088h-.333c-.522-.112-1.117-.074-1.566-.186h-.228c-.623-.148-1.285-.21-1.83-.376h-.017c-.057-.006-.112-.016-.17-.022h-.013c-1.123-.408-1.857-.702-2.614-1.46-.134-.135-.304-.258-.392-.386-.336-.488-.61-1.02-.877-1.586-.001-.003-.006-.004-.008-.007l-.016-.141v-.016l-.008-.007a.175.175 0 0 0-.008-.014l-.008-.016c-.005-.007-.009-.009-.014-.013-.009-.01-.013-.023-.021-.03-.005-.004-.012-.005-.016-.008v-.007c-.111-.236-.118-.49-.22-.79-.112-.325-.21-.743-.31-1.101-.148-.525-.155-1.103-.296-1.652l.008.013c-.013-.146-.03-.289-.045-.435v-.014c-.18-.742-.146-1.64-.332-2.43V61.3c-.064-.29-.049-.671-.125-1.012v-.008l-.082-.988v-.008c-.003-.069-.02-.142-.03-.207-.008-.067-.001-.13-.007-.119l.016-.021v-.022a.502.502 0 0 0-.032-.156zm44.045 14.553-.033.096c-.242.717-.048 1.481-.2 2.172-.304 1.388-.152 2.934-.443 4.218l-.002.012v.012l-.048 1.123c-.464 1.905-.336 4.06-.784 5.865l-.002.01-.002.01-.097 1.021c-.479 1.916-.646 3.891-1.223 5.67-1.23 3.797-2.917 6.693-5.986 8.607-.223.14-.424.135-.725.288-.1.05-.206.128-.312.205-.107.077-.213.154-.28.19-.27.142-.535.145-.875.288-1.094.461-2.403.79-3.666 1.121-.798.21-1.66.247-2.455.442-.678.166-1.42.138-2.084.29h-.746l-.015.003c-1.21.267-2.81.125-4.106.44h-.934c-.473.025-1.13.047-1.593.15-.555.123-1.219-.035-1.819.097-.717.159-1.583-.062-2.31.098-.064.014-.194.02-.309.012-.115-.01-.232-.049-.224-.043l-.04-.024-.046.002a.96.96 0 0 0-.28.057l-.095.033.002.102c.002.159.018.277.056.386l.031.092h.098l4.463.049c1.607.367 3.894.025 5.533.39l.012.003h.014l1.562.048c.988.228 2.22.228 3.127.44l.016.004h.54c2.64.662 5.21 1.004 7.22 2.187 1.996 1.176 3.407 2.782 4.619 4.76.241.395.294.835.535 1.314 1.154 2.299 1.472 5.114 2.195 7.95v.492l.006.017c.107.395.185.959.291 1.407l.049.822v.014l.004.011c.501 2.052.337 4.603.834 6.768.153.67.042 1.445.197 2.11.139.595.047 1.367.145 2 .018.12.045.274.052.41a.658.658 0 0 1-.03.279l-.03.045.01.052a.444.444 0 0 0 .205.323.38.38 0 0 0 .404-.036l-.037.018.149-.049.101-.033-.008-.105c-.06-1.027.071-2.975.293-3.985.175-.795.05-1.656.195-2.306l.004-.012v-.012l.05-1.27c.247-1.075.212-2.41.439-3.413.123-.543-.012-.912.097-1.373.42-1.772.44-3.643.883-5.344.428-1.641.826-3.24 1.373-4.746.134-.369.421-.845.629-1.203.311-.538.47-1.04.781-1.514 1.514-2.302 3.931-3.885 6.854-4.8 1.384-.434 2.898-.576 4.412-.93.754-.177 1.59-.119 2.336-.29h.842l.015-.004c1.303-.284 2.993-.03 4.422-.343.234-.052.465-.032.701-.006.236.025.478.057.723.006.47-.1 1.196-.094 1.838-.094.182 0 .482.03.773.039.263.008.51 0 .705-.09h2.471l.022-.115c.01-.057.022-.08.03-.139a.341.341 0 0 0-.048-.199l.012.025-.05-.146-.032-.102-.108.006c-.472.031-1.123.056-1.584-.044-.295-.065-.614-.05-.918-.034-.303.016-.591.03-.8-.015-.704-.153-1.423.019-1.967-.1-.948-.207-2.013-.011-2.797-.195l-.016-.004h-.744c-1.222-.267-2.624-.169-3.71-.438l-.017-.004h-.544c-1.453-.343-3.005-.486-4.297-.877l-.012-.004h-.014l-.425-.048c-2.014-.728-3.502-1.293-4.885-2.297a220.075 220.075 0 0 0 5.076-6.725l-4.865-3.514a213.085 213.085 0 0 1-4.063 5.418c-.165-.326-.337-.642-.496-.978l-.047-.37-.002-.015-.006-.016c-.019-.05-.04-.067-.058-.085-.02-.02-.04-.035-.057-.05a1.702 1.702 0 0 1-.041-.034c-.28-.575-.292-1.19-.531-1.887-.265-.77-.498-1.754-.735-2.592-.35-1.239-.359-2.587-.683-3.857l-.098-1.034-.004-.01c-.43-1.76-.344-3.878-.781-5.716v-.79l-.004-.015c-.156-.697-.116-1.602-.291-2.385l-.197-2.348c-.005-.156-.041-.335-.063-.496a1.07 1.07 0 0 1-.002-.316l.018-.033-.002-.037a1.101 1.101 0 0 0-.057-.336l-.033-.094zm-97.717 3.387-.023.029-.014.016-.007.021c-.139.412-.027.844-.112 1.233-.173.791-.086 1.674-.25 2.4v.014l-.03.642c-.26 1.082-.19 2.303-.442 3.322v.016l-.059.582c-.27 1.087-.37 2.205-.695 3.211-.696 2.155-1.648 3.796-3.381 4.88-.123.078-.234.075-.406.163-.059.03-.116.073-.176.117-.06.044-.126.092-.162.111-.15.08-.294.08-.489.163-.618.261-1.36.447-2.074.634-.45.118-.935.141-1.387.252-.386.095-.815.08-1.197.17l.024-.008h-.43l-.006.008c-.686.153-1.603.067-2.342.25l.024-.008h-.532c-.267.015-.643.032-.908.09-.31.07-.681-.025-1.025.051-.402.09-.89-.033-1.307.059a.703.703 0 0 1-.17.007c-.064-.004-.137-.027-.127-.021l-.021-.016h-.03a.589.589 0 0 0-.162.03l-.066.023v.066a.718.718 0 0 0 .037.229l.022.059h.058l2.533.029-.023-.008c.914.214 2.217.023 3.144.23h.016l.893.03-.022-.008c.563.132 1.273.13 1.787.25l.008.008h.316c1.49.374 2.938.572 4.069 1.24 1.127.667 1.92 1.573 2.605 2.695.136.222.166.47.303.745.65 1.298.833 2.896 1.24 4.503v.288l.008.015c.061.225.101.548.162.805l.03.457v.016c.283 1.162.19 2.614.472 3.846.086.377.021.814.11 1.195.077.335.026.775.082 1.137.01.069.025.154.029.23a.418.418 0 0 1-.016.154l-.013.03v.029c.013.08.055.151.125.191.07.04.169.04.244-.013.02-.007.038-.01.058-.016l.067-.03v-.066c-.035-.58.037-1.686.162-2.257.1-.455.03-.941.111-1.307v-.024l.03-.7v-.022c.138-.612.124-1.37.251-1.934.07-.312-.01-.517.051-.775.238-1.008.252-2.071.502-3.035.242-.932.466-1.84.776-2.694.075-.207.235-.483.353-.687.177-.307.268-.589.443-.856.855-1.304 2.218-2.197 3.87-2.717.78-.245 1.636-.329 2.494-.53.428-.102.907-.07 1.336-.17l-.022.007h.486l.008-.008c.733-.16 1.69-.012 2.502-.191.13-.029.26-.015.393 0 .133.014.27.03.412 0 .264-.056.678-.053 1.04-.053.103 0 .271.018.436.024a.91.91 0 0 0 .399-.053h1.41l.016-.074.013-.08a.19.19 0 0 0-.021-.104l-.008-.016-.021-.066-.024-.072-.066.006c-.267.017-.635.027-.893-.03-.17-.037-.353-.022-.525-.013-.172.008-.334.017-.45-.008-.402-.088-.803.008-1.107-.059-.54-.118-1.148-.008-1.588-.111h-.435c-.694-.151-1.485-.1-2.096-.252h-.303c-.826-.197-1.71-.28-2.443-.502h-.016l-.236-.03h-.014c-1.502-.545-2.492-.93-3.508-1.947-.175-.176-.393-.34-.515-.517-.45-.653-.825-1.37-1.182-2.127l-.021-.2-.008-.013v-.008a.071.071 0 0 0-.008-.021c-.003-.006-.012-.012-.016-.016a.115.115 0 0 0-.013-.016c-.012-.01-.02-.02-.03-.029-.007-.006-.018-.01-.023-.014l-.008-.015c-.153-.321-.16-.66-.295-1.055-.15-.436-.278-1-.412-1.476-.198-.705-.206-1.473-.392-2.2l.007.014-.058-.59v-.008c-.242-.994-.198-2.187-.443-3.232v-.467c-.088-.394-.07-.91-.17-1.357v-.008l-.112-1.322v-.006a3.14 3.14 0 0 0-.029-.274.96.96 0 0 1-.006-.177l.014-.022v-.023a.61.61 0 0 0-.037-.192l-.022-.066zM50.24 95.035l-4 4.473c3.838 3.434 8.883 5.425 14.084 5.41 4.206.013 8.243-1.244 11.746-3.248l-2.982-5.211c-2.712 1.552-5.761 2.47-8.748 2.459h-.024c-3.636.013-7.34-1.434-10.076-3.883zm66.022 2.963-.031.096c-.147.435-.034.876-.118 1.256-.178.812-.09 1.702-.254 2.427l-.002.012v.012l-.029.642c-.266 1.107-.194 2.344-.447 3.368l-.002.011v.01l-.057.586c-.274 1.107-.372 2.24-.699 3.252-.704 2.179-1.662 3.829-3.408 4.922-.115.072-.228.07-.412.164-.065.033-.127.079-.188.123-.06.044-.12.087-.152.104-.142.075-.292.077-.498.164-.622.262-1.37.452-2.094.642-.45.118-.944.14-1.408.254-.374.092-.795.079-1.184.166h-.433l-.014.002c-.676.15-1.59.07-2.348.252h-.533c-.27.015-.65.027-.926.088-.3.067-.678-.024-1.043.057-.391.087-.884-.04-1.324.056a.7.7 0 0 1-.16.004c-.062-.005-.13-.032-.102-.013l-.039-.026-.047.004a.64.64 0 0 0-.175.035l-.094.034v.1a.76.76 0 0 0 .037.241l.031.092h.098l2.562.03c.942.21 2.244.017 3.16.222l.012.002h.014l.898.03c.576.13 1.274.131 1.78.25l.015.003h.31c1.517.381 2.982.58 4.118 1.252 1.136.671 1.939 1.586 2.63 2.72.132.214.162.464.306.751.654 1.307.839 2.92 1.254 4.555v.285l.004.02c.059.219.105.539.166.8l.027.48.004.014c.284 1.168.19 2.634.478 3.893.085.37.02.815.114 1.215.076.327.023.77.082 1.148.01.07.025.155.029.229.004.073-.014.133-.01.127l-.03.045.01.052a.314.314 0 0 0 .15.227c.085.05.207.04.294-.024l-.037.02.185-.063-.006-.107c-.034-.582.041-1.705.166-2.275.104-.473.034-.971.114-1.329l.002-.011v-.012l.029-.734c.142-.629.123-1.39.25-1.951.074-.329-.002-.54.057-.79.242-1.028.253-2.104.506-3.074.245-.945.472-1.863.785-2.726.073-.203.237-.477.357-.684.182-.316.272-.604.445-.87.86-1.31 2.234-2.213 3.9-2.737.786-.247 1.655-.328 2.528-.534.416-.097.886-.069 1.322-.166h.495l.013-.004c.73-.16 1.7-.013 2.537-.197.124-.027.248-.016.383-.002.135.015.28.035.434.002.258-.054.674-.053 1.043-.053.098 0 .271.017.441.022a.982.982 0 0 0 .41-.05h1.463l.022-.116c.005-.028.01-.036.017-.082a.264.264 0 0 0-.035-.15l.012.025-.063-.188-.107.008c-.27.018-.64.03-.89-.025-.181-.04-.37-.03-.544-.021a1.952 1.952 0 0 1-.443-.008c-.422-.093-.835.007-1.127-.057-.561-.123-1.175-.01-1.606-.111l-.015-.004h-.436c-.71-.153-1.508-.1-2.113-.25l-.016-.004h-.314c-.836-.198-1.723-.28-2.453-.502l-.012-.004-.014-.002c-.078-.01-.157-.017-.236-.026-1.528-.554-2.515-.94-3.54-1.967-.183-.182-.404-.348-.52-.517-.452-.656-.832-1.375-1.192-2.137l-.025-.201-.002-.016-.006-.015c-.017-.046-.036-.057-.049-.07a.6.6 0 0 0-.035-.034l-.012-.01c-.15-.314-.159-.663-.299-1.07-.15-.438-.283-1.004-.42-1.488-.197-.699-.205-1.468-.39-2.205l-.057-.594v-.01l-.002-.01c-.243-.999-.196-2.213-.447-3.281v-.455l-.004-.016c-.088-.392-.064-.92-.17-1.385l.004.02-.113-1.348c-.003-.098-.023-.201-.036-.291-.012-.09.004-.169-.008-.146l.018-.034-.002-.039a.684.684 0 0 0-.035-.209l-.033-.093zm19.314 25.81c-2.415 0-4.668.336-6.762 1.004-2.092.67-3.899 1.587-5.412 2.754a12.796 12.796 0 0 0-3.564 4.215c-.867 1.647-1.299 3.442-1.299 5.389 0 1.941.255 3.619.775 5.027a9.864 9.864 0 0 0 2.377 3.676c1.062 1.04 2.403 1.916 4.022 2.629 1.617.712 3.501 1.33 5.654 1.846 2.363.602 4.448 1.09 6.254 1.476 1.802.386 3.312.798 4.531 1.225 1.217.427 2.116.94 2.703 1.527.585.585.877 1.327.877 2.252 0 .972-.274 1.774-.818 2.422-.55.656-1.27 1.206-2.162 1.652-.892.447-1.936.77-3.13.961a23.404 23.404 0 0 1-3.722.287c-1.628 0-2.981-.136-4.066-.414-1.09-.277-1.997-.63-2.717-1.054-.723-.424-1.292-.913-1.713-1.461a12.202 12.202 0 0 1-1.093-1.662h.008c-.264-.527-.602-.928-1.004-1.196-.41-.272-.978-.398-1.72-.398h-4.517a1.93 1.93 0 0 0-1.314.502c-.385.34-.563.797-.518 1.336.13 1.906.718 3.638 1.758 5.197 1.038 1.558 2.412 2.89 4.12 3.992 1.705 1.101 3.661 1.944 5.86 2.526 2.2.582 4.503.87 6.917.87 2.885 0 5.494-.343 7.824-1.033 2.328-.689 4.292-1.63 5.892-2.82 1.6-1.188 2.831-2.614 3.698-4.281.865-1.666 1.298-3.479 1.298-5.426 0-1.771-.291-3.35-.876-4.738-.586-1.387-1.476-2.616-2.667-3.678-1.191-1.06-2.723-1.967-4.6-2.723-1.874-.753-4.105-1.41-6.687-1.97-2.362-.516-4.34-.965-5.927-1.352-1.586-.386-2.858-.8-3.817-1.248-.956-.446-1.626-.976-2.021-1.58-.397-.603-.598-1.393-.598-2.37 0-.799.207-1.502.627-2.132.42-.632 1.008-1.172 1.75-1.617.742-.445 1.61-.79 2.611-1.025a13.892 13.892 0 0 1 3.168-.348c2.569 0 4.5.393 5.787 1.174 1.3.79 2.265 1.717 2.9 2.775.306.48.645.866 1.02 1.152.388.298.955.444 1.698.444h4.511c.494 0 .94-.175 1.32-.51.383-.338.56-.793.518-1.328v-.008c-.088-1.26-.515-2.591-1.27-3.994-.758-1.408-1.877-2.703-3.345-3.87-1.47-1.167-3.307-2.132-5.506-2.908-2.203-.777-4.747-1.166-7.633-1.166zm-91.166.643c-.495 0-.935.181-1.293.54-.36.359-.539.796-.539 1.29v41.627c0 .496.18.935.54 1.293.357.36.797.545 1.292.545h28.287c.495 0 .932-.185 1.291-.545.358-.358.54-.797.54-1.293v-4.568c0-.495-.182-.934-.54-1.293a1.777 1.777 0 0 0-1.29-.54h-21.24v-10.519h19.305a1.77 1.77 0 0 0 1.29-.537c.359-.358.54-.797.54-1.293v-4.576a1.76 1.76 0 0 0-.54-1.285 1.783 1.783 0 0 0-1.29-.545H51.459v-10.063h20.72c.495 0 .934-.18 1.294-.539.358-.358.539-.795.539-1.29v-4.579c0-.494-.181-.932-.54-1.29a1.781 1.781 0 0 0-1.292-.54zm35.92 0c-.495 0-.935.181-1.293.54-.36.359-.539.796-.539 1.29v41.627c0 .496.18.935.54 1.293.357.36.797.545 1.292.545h16.24c3.102 0 5.808-.42 8.12-1.262 2.308-.841 4.245-2.044 5.802-3.601 1.556-1.556 2.754-3.439 3.596-5.64.841-2.202 1.347-4.654 1.52-7.368v-.008a88.71 88.71 0 0 0 0-9.545c-.173-2.714-.679-5.174-1.52-7.375-.842-2.202-2.056-4.083-3.633-5.639-1.579-1.556-3.547-2.754-5.898-3.595-2.355-.843-5.126-1.262-8.313-1.262zm79.422 0c-.496 0-.935.181-1.293.54-.36.359-.545.796-.545 1.29v41.627c0 .496.186.935.545 1.293.358.36.798.545 1.293.545h5.219c.494 0 .926-.186 1.285-.545.358-.358.545-.797.545-1.293v-24.855l8.209 14.21c.22.354.525.71.916 1.079.404.382.922.576 1.543.576h3.351c.62 0 1.137-.194 1.541-.576.391-.369.703-.726.924-1.078l8.21-14.211v24.855c0 .496.179.935.538 1.293.359.36.796.545 1.291.545h5.219c.494 0 .926-.186 1.285-.545.358-.358.545-.797.545-1.293v-41.627c0-.494-.179-.932-.537-1.29h-.008c-.36-.359-.79-.54-1.285-.54h-4.385c-.877 0-1.542.242-1.97.738-.41.474-.699.817-.872 1.034v.008l-12.174 21.134-12.164-21.134-.008-.008c-.173-.217-.463-.56-.87-1.034-.43-.496-1.096-.738-1.971-.738zm-72.373 8.238h8.549c1.838 0 3.413.25 4.732.739 1.32.49 2.415 1.167 3.285 2.037a8.655 8.655 0 0 1 1.977 3.064c.447 1.173.718 2.443.805 3.809.17 3.174.17 6.348 0 9.521a13.237 13.237 0 0 1-.805 3.84c-.447 1.192-1.092 2.213-1.942 3.063-.85.85-1.909 1.518-3.187 2.008-1.276.489-2.796.738-4.549.738H87.38z" transform="scale(.26458)" color="currentColor" overflow="visible" fill="currentColor" stop-color="currentColor"/>
  <text x="50%" y="93%" font-size="17" alignment="bottom" text-anchor="middle">???</text>

</svg>
