<svg xmlns="http://www.w3.org/2000/svg" viewBox="0 0 67.733 67.733">
  <path d="M52.123 18.063c-.103 0-.206.003-.308.008-8.083.163-14.608 6.695-14.764 14.78a6.338 6.338 0 0 0 0 .586c.06 3.1 1.06 5.97 2.721 8.343h1.037a14.177 14.177 0 0 1-2.303-4.48c.764 1.026 1.795 1.947 3.028 2.723.662.417 1.382.792 2.152 1.124.088.215.181.425.277.633h.937l-.097-.195c.196.069.399.131.6.195H49.4c-.28-1.42-.49-3.055-.619-4.818 1.076.059 2.19.093 3.342.093 1.151 0 2.266-.034 3.342-.093-.127 1.763-.338 3.397-.618 4.818h3.969v-.878c-.967.322-2 .578-3.085.755.268-1.422.465-3.026.586-4.747.87-.061 1.704-.142 2.499-.239v-.85c-.775.095-1.59.176-2.443.238a54.898 54.898 0 0 0 0-5.832 48 48 0 0 1 2.443.24v-.851a48.906 48.906 0 0 0-2.499-.24 41.76 41.76 0 0 0-.586-4.746c1.086.177 2.119.433 3.085.755v-.887a21.03 21.03 0 0 0-3.263-.75 24.99 24.99 0 0 0-.26-1.078c-.36-1.352-.789-2.457-1.293-3.258a5.223 5.223 0 0 0-.168-.248c1.784.533 3.399 1.885 4.672 3.845.107.164.21.335.312.507v-1.54c-.683-.94-1.456-1.745-2.302-2.374.801.26 1.57.59 2.302.98v-.947a14.995 14.995 0 0 0-6.385-1.564 6.705 6.705 0 0 0-.308-.008zm0 .846c.325 0 .732.27 1.163.954.43.683.844 1.725 1.19 3.025.064.24.125.49.184.746a23.74 23.74 0 0 0-2.537-.137c-.865 0-1.711.049-2.536.137.06-.256.12-.507.184-.746.347-1.3.759-2.342 1.19-3.025.43-.683.837-.954 1.162-.954zm-1.71.255c-.057.08-.113.162-.167.248-.505.8-.933 1.906-1.293 3.258-.092.344-.178.704-.26 1.078a20.727 20.727 0 0 0-3.89.954c.285-.602.598-1.17.938-1.693 1.274-1.96 2.889-3.312 4.672-3.845zm-2.682.438c-1.014.754-1.925 1.758-2.699 2.948a15.86 15.86 0 0 0-1.346 2.589c-.77.331-1.49.707-2.152 1.123-1.233.776-2.264 1.698-3.028 2.725a14.252 14.252 0 0 1 9.225-9.385zm4.392 4.74c.932 0 1.842.057 2.724.164.28 1.42.49 3.054.618 4.818a60.66 60.66 0 0 0-3.342-.093 60.67 60.67 0 0 0-3.342.093c.128-1.764.338-3.397.619-4.818a22.693 22.693 0 0 1 2.723-.164zm-3.609.288a41.754 41.754 0 0 0-.586 4.747 44.36 44.36 0 0 0-4.672.563c.22-1.488.59-2.887 1.081-4.154a19.39 19.39 0 0 1 4.177-1.156zm-5.25 1.638a20.563 20.563 0 0 0-.889 3.839 26.73 26.73 0 0 0-.714.158c-1.35.321-2.451.702-3.25 1.152a5.354 5.354 0 0 0-.298.18c.51-1.761 1.872-3.36 3.87-4.618.402-.253.831-.49 1.28-.711zm8.859 3.807c1.173 0 2.308.037 3.4.1a53.836 53.836 0 0 1 0 5.936c-1.092.063-2.227.1-3.4.1s-2.308-.037-3.4-.1a53.707 53.707 0 0 1 0-5.936c1.092-.063 2.227-.1 3.4-.1zm-4.251.152a54.95 54.95 0 0 0 0 5.832 42.79 42.79 0 0 1-4.729-.59 22.054 22.054 0 0 1 0-4.65 42.81 42.81 0 0 1 4.729-.592zm-5.597.765a23.08 23.08 0 0 0 0 4.303 24.67 24.67 0 0 1-.418-.095c-1.303-.31-2.347-.682-3.031-1.067-.685-.385-.938-.747-.938-.99 0-.241.253-.605.938-.99.684-.386 1.728-.756 3.03-1.066l.42-.095zm-4.162 3.698c.095.062.194.122.298.18.799.45 1.9.831 3.25 1.153.23.054.47.107.714.158.182 1.354.485 2.642.889 3.839-.45-.222-.879-.459-1.28-.711-1.999-1.258-3.361-2.858-3.87-4.619zm5.143 1.657a44.32 44.32 0 0 0 4.672.563c.12 1.72.319 3.325.586 4.747a19.387 19.387 0 0 1-4.176-1.156 19.326 19.326 0 0 1-1.082-4.154z" color="currentColor" overflow="visible" fill="currentColor" paint-order="markers fill stroke" stop-color="currentColor"/>
  <path d="M24.013 11.69a3.413 3.413 0 0 0-2.931 3.833 3.413 3.413 0 0 0 .689 1.645 34.532 34.532 0 0 0 6.01-1.293 3.413 3.413 0 0 0 .066-1.253 3.413 3.413 0 0 0-3.834-2.932zm3.335.14c-.185.024-.372.05-.56.077a3.927 3.927 82.408 0 1 .518.454l.11-.015c2.396-.314 4.57-.414 6.319-.312 1.271.074 2.318.257 3.047.528.73.272 1.103.615 1.174.972.072.357-.14.818-.709 1.35-.107.1-.23.202-.36.305a1.3 1.3 0 0 0-1.058-.337 1.3 1.3 0 0 0-1.118 1.461 1.3 1.3 0 0 0 .037.177l-.11.055c-2.29 1.116-5.575 2.186-9.292 2.93-3.716.744-7.16 1.023-9.704.874-1.272-.074-2.318-.256-3.048-.528-.729-.271-1.102-.616-1.174-.972-.071-.357.141-.817.71-1.349.568-.531 1.464-1.103 2.609-1.661 1.598-.78 3.683-1.536 6.06-2.175a3.927 3.927 82.408 0 1 .302-.619c-2.583.669-4.853 1.48-6.59 2.327-1.174.572-2.106 1.158-2.737 1.747-.63.59-.989 1.211-.865 1.832.125.62.695 1.056 1.503 1.357.81.301 1.895.485 3.2.56 2.607.153 6.084-.132 9.836-.883 3.753-.752 7.07-1.828 9.419-2.973.04-.02.077-.04.117-.059a1.3 1.3 0 0 0 1.189.478 1.3 1.3 0 0 0 1.117-1.461 1.3 1.3 0 0 0-.1-.357c.147-.117.288-.233.413-.35.63-.59.988-1.211.864-1.832-.124-.62-.694-1.056-1.503-1.357-.809-.3-1.895-.483-3.199-.56-1.793-.104-3.996-.002-6.417.315zm.03.609a3.927 3.927 82.408 0 1 .377.49 20.597 20.597 0 0 1 2.292-.085c.803.021 1.462.11 1.91.25.223.07.392.155.5.237.107.082.148.151.162.218.014.067.003.147-.063.265a1.673 1.673 0 0 1-.365.414c-.356.307-.926.65-1.654.988-1.457.677-3.55 1.345-5.913 1.834-2.319.479-4.464.694-6.061.66a.867.867 0 0 0-.956-.647.867.867 0 0 0-.67.492 3.914 3.914 0 0 1-.378-.096 1.683 1.683 0 0 1-.502-.235c-.107-.082-.148-.152-.161-.219-.014-.067-.004-.146.062-.264a1.68 1.68 0 0 1 .366-.415c.356-.307.926-.65 1.654-.988.73-.34 1.622-.677 2.626-.99a3.927 3.927 82.408 0 1 .16-.591c-1.148.345-2.172.723-3.005 1.11-.755.35-1.358.706-1.774 1.065-.208.18-.371.36-.48.554a.906.906 0 0 0-.12.625c.045.213.181.39.358.526.177.135.398.236.66.318.143.045.298.083.464.117a.867.867 0 0 0 .97.71.867.867 0 0 0 .695-.55c1.656.037 3.837-.184 6.197-.672 2.396-.495 4.517-1.17 6.027-1.872.755-.35 1.358-.707 1.774-1.066.208-.18.37-.36.48-.554a.905.905 0 0 0 .12-.625.905.905 0 0 0-.358-.526 2.133 2.133 0 0 0-.66-.318c-.525-.165-1.219-.252-2.051-.275a21.725 21.725 0 0 0-2.684.115zm-.39 4.93a36.58 36.58 0 0 1-3.866.841 3.413 3.413 0 0 0 1.793.245 3.413 3.413 0 0 0 2.073-1.085z" color="currentColor" overflow="visible" fill="currentColor" paint-order="markers fill stroke" stop-color="currentColor"/>
  <path d="M12.892 25.528a.445.454 0 0 0-.444.455V39.1a.445.454 0 0 0 .444.453h19.295a.445.454 0 0 0 .446-.453V25.983a.445.454 0 0 0-.446-.455zm.446.91h18.404v5.852h-.517v-1.082h-.471v1.082H30.1v-1.647h-.47v1.647h-.654v-1.082h-.47v1.082h-.653V29.7h-.47v2.589h-.654v-4.001h-.47v4h-.653v-4.33h.036v-.282h-.036v-.989h-.472v5.602h-.652v-3.907h-.47v3.907h-.654v-2.495h-.47v2.495h-.653v-1.082h-.471v1.082h-.653v-.423h-.47v.423h-.653v-1.93h-.471v1.93h-.653v-2.965h-.471v2.965h-.653V28.1h-.47v4.19h-.654v-2.965h-.47v2.965h-.652l.005-1.929-.47-.001-.006 1.93h-.711v-.517h-.356v.517h-.62zm.159 1.239v.283h.282v-.283zm.847 0v.283h.283v-.283zm.848 0v.283h.282v-.283zm.847 0v.283h.282v-.283zm.848 0v.283h.282v-.283zm.847 0v.283h.283v-.283zm.847 0v.283h.283v-.283zm.848 0v.283h.282v-.283zm.847 0v.283h.282v-.283zm.848 0v.283h.282v-.283zm.847 0v.283h.283v-.283zm.847 0v.283h.283v-.283zm.848 0v.283h.282v-.283zm.847 0v.283h.283v-.283zm1.695 0v.283h.283v-.283zm.847 0v.283h.283v-.283zm.848 0v.283h.282v-.283zm.847 0v.283h.283v-.283zm.848 0v.283h.282v-.283zm.847 0v.283h.283v-.283zm.847 0v.283h.283v-.283Zm-17.954 5.085h.619v.518h.356v-.518h.71l.006 1.931.471-.001-.005-1.93h.652v2.966h.47v-2.966h.653v4.19h.471v-4.19h.653v2.966h.47v-2.966h.654v1.93h.47v-1.93h.653v.424h.47v-.424h.654v1.083h.47v-1.083h.653v2.496h.471v-2.496h.653v3.908h.47v-3.908h.653v5.603h.472v-.99h.036v-.282h-.036v-4.33h.652v4h.47v-4h.654v2.589h.47v-2.59h.654v1.083h.47v-1.083h.653v1.648h.471v-1.648h.653v1.083h.471v-1.083h.517v5.884H13.338Zm.159 4.33v.284h.282v-.283zm.847 0v.284h.283v-.283zm.848 0v.284h.282v-.283zm.847 0v.284h.282v-.283zm.848 0v.284h.282v-.283zm.847 0v.284h.283v-.283zm.847 0v.284h.283v-.283zm.848 0v.284h.282v-.283zm.847 0v.284h.282v-.283zm.848 0v.284h.282v-.283zm.847 0v.284h.283v-.283zm.847 0v.284h.283v-.283zm.848 0v.284h.282v-.283zm.847 0v.284h.283v-.283zm1.695 0v.284h.283v-.283zm.847 0v.284h.283v-.283zm.848 0v.284h.282v-.283zm.847 0v.284h.283v-.283zm.848 0v.284h.282v-.283zm.847 0v.284h.283v-.283zm.847 0v.284h.283v-.283z" color="currentColor" overflow="visible" fill="currentColor" stop-color="currentColor"/>
  <path d="M6.689 5.368a1.248 1.285 0 0 0-1.246 1.285v37.109a1.248 1.285 0 0 0 1.246 1.283h54.06a1.248 1.285 0 0 0 1.249-1.283V6.653a1.248 1.285 0 0 0-1.249-1.285Zm1.248 2.57h51.566v34.537H7.937Z" color="currentColor" overflow="visible" fill="currentColor" stop-color="currentColor"/>
  <text x="50%" y="93%" font-size="12" alignment="bottom" text-anchor="middle">???</text>

</svg>
