<svg xmlns="http://www.w3.org/2000/svg" viewBox="0 0 67.733 67.733">
  <g color="currentColor" fill="currentColor">
    <path d="m14.506 30.249-.31-2.536.408-.565 7.896-3.854 1.831-.054 1.073-1.072.115.063.932-.932-.012-.166.21-.21-.353-1.026.932-.778-.76-2.627-.137-.037-.233-1.114 1.806-.203.37.237 1.216 2.69.361-.362.212.212h.342l.348.267 1.481 3.094-.148.636-1.013 1.013.387 1.696.512-.511.983-.048.043-.043 1.272-.56.433.432.324.325.433.433-.56 1.272-.043.043-.048.983-.511.512 1.696.387 1.013-1.013.636-.148 3.094 1.48.267.349v.342l.212.212-.362.361 2.69 1.215.237.371-.203 1.806-1.114-.233-.037-.137-2.627-.76-.778.932-1.025-.353-.21.21-.167-.012-.932.932.063.116-1.072 1.072-.054 1.831-3.854 7.896-.565.408-2.536-.31.58-2.297.14-.06 2.82-9.522-1.399 1.399-.343-.082-.821.268-1.538-1.518.737-1.445.637-.638-.263-.263.178-.18-.247-.246-.06-.061-.248-.247-.178.178-.264-.263-.638.637-1.445.737-1.518-1.538.268-.82-.082-.344 1.399-1.399-9.521 2.82-.061.14zm.345-.505 1.66-.418.058-.13 9.529-2.823.178-.78 1.442-1.443-.001-.001-.359.358-.162-.388 2.08-2.08.744.283.037-.097-.7-.264.02-.097-.419-.083-1.793 1.793.073.073 1.754-1.754.237.047-2.154 2.155.195.47-1.208 1.208.073.072.104-.103-.029.125-.18.18-1.415.377-1.065-1.064.366-1.342.373-.372-.15.005-.315.314-.047.173-.845-.05-1.342.605.018.046a116.45 116.45 0 0 0 .353.884c.013.03.02.047.028.061l.09-.05-.023-.052a44.319 44.319 0 0 1-.175-.433l-.158-.401 1.228-.556.798.047-.315 1.151.253.253-.457.483.075.07.455-.48.338.338-.173.186-3.384.916.026.1 3.413-.924.191-.205.412.412 1.5-.398.084-.084-.072.316-9.194 2.723.481-1.113-.095-.04-.516 1.192-.205.06-.058.131-1.657.417zm.494-.728a.338.338 0 0 0 .477-.477.337.337 0 0 0-.477.477zM29.889 43.56a.338.338 0 0 0 .477-.477.338.338 0 0 0-.477.477zM15.42 28.942a.232.232 0 0 1-.001-.33.233.233 0 1 1 .33.33.233.233 0 0 1-.33 0zm14.544 14.545a.232.232 0 0 1 0-.33.233.233 0 1 1 .33.33.233.233 0 0 1-.33 0zm1.132.815h.002l.355-.256 3.771-7.726.056-1.905.97-.97-.064-.115 1.28-1.28h-.003l-.118.118-.207-.206-.072.073.204.204-.724.724-.23-.22-.072.075.231.22-.291.292.064.114-.97.97-.006.191-.384.384-1.341.366-1.065-1.064.376-1.416.162-.162-.189.043-.066.066-.398 1.5.412.412-.204.191-.924 3.413.1.027.916-3.384.185-.174.338.338-.48.455.07.075.483-.457.253.253 1.151-.315.048.798-.556 1.229-.401-.159a43.323 43.323 0 0 1-.486-.199l-.05.09a10.044 10.044 0 0 0 .177.075 45.829 45.829 0 0 0 .769.307l.046.018.605-1.341-.05-.845.173-.048.325-.326-.046 1.565-3.77 7.726zm-1.305-2.176 1.173-.508-.04-.095-1.095.473zM17.77 28.547l2.383-.708-.08-.205.178-.09-.198-.637-.245-.052-.014.066-.047-.12-.071.029-.075-.22-1.923.692-.135.319-.006-.016-.097.035zm12.588 12.59.907.33.035-.099-.016-.005.32-.135.69-1.924-.218-.075.027-.071-.119-.047.066-.014-.051-.244-.639-.2-.089.18-.204-.08zM17.833 28.42l-.005-.013.087-.032-.267-.737.107-.254 1.782-.64.354 1.04.099-.034-.117-.344.143.366zm12.652 12.652.648-2.182.364.142-.341-.116-.034.098 1.04.354-.64 1.782-.254.107-.737-.266-.032.086zm-10.45-13.535-.226-.577.163.035.154.496zM31.368 38.87l.046-.091.496.155.035.162zm-4.97-8.556 1.125-.572.876-.876-.001-.002-.815.815-1.798-1.798-.072.073 1.794 1.794-.74.377.254-.253.009.01.24-.24-1.3-1.3-.222.22-.023-.023-.148.148-.121-.121-.036.11.093.094-.184.184-.068.21.002.002.396-.396-.009-.01.093-.092 1.167 1.167-.442.443zm2.213 2.214.074.073.214-.214.947.946-.209.209.074.072.28-.281L28.9 32.24zm-2.234-2.235.288-.287-1.092-1.092-.281.28.072.074.208-.208.947.946-.214.214zm3.362 3.35.017.015.692-.226h-.001l-.095.03-.134-.134.148-.148-.023-.023.221-.22-1.3-1.301-.24.24.01.009-.214.213-.153.3.403-.403 1.168 1.167-.093.093-.01-.009zm.187-.041.21-.21.106.106zm.756-.116h.002l1.3-1.3-.135-.135.196-.197-.11-.11.624-.625 1.704-.424-.001-.001-1.706.425-.456.457-.088-.088 2.492-2.491-.074-.074-2.564 2.565.16.16-.094.096.11.11-.049.05-.176-.177-.493-1.226.008.008.604-.605-.19-.189 1.951-1.95-.035-.036 2.457.56-2.624-.599.918-.918.047-.984.1-.1.419-.95-.237-.236-.325-.325-.237-.237-.01.005-.003.055-.962.47-.015-.07-.06.06-.033.001.016.068-1.188 1.188.29.29-.007.006-.14-.025-.452.453.22.22.463-.442-.024-.126.012-.014.394.394.145.145-.013.013-.126-.024-.442.463.22.22.452-.453-.024-.14.006-.006.29.29 1.188-1.188.079.018-.008.162-.546.5.004.027a.37.37 0 0 0 .083.21c.056.058.146.082.27.061l-.017-.101c-.104.017-.15-.001-.178-.031-.025-.026-.037-.076-.047-.131l.424-.389-.03.653-.853.852-.481-.48-1.333 1.332.32.32-.697.696-.25-.25-.073.073.485.485-.233.233-.826-.825 1.413-1.4-.036-.036.124-.563.017-.016-.011-.011-.265-.265-.018.018-.561.123-.035-.036-1.4 1.413-.826-.825.234-.234.485.486.073-.073-.25-.25.696-.697.32.319 1.332-1.332-.469-.47-.064.065-.6-2.627 1.09-1.09.089-.384-1.378-2.88-.162-.124h-.003l.162.125 1.378 2.879-.09.385-.997.997.73-.73-.276-.62-.095.043.247.554-.712.712-.92-.363-.038.097.984.387-.011.012.56 2.457-.046-.046-1.95 1.95-.19-.188-.604.604.008.007-1.226-.492-.165-.165-.072.073.18.18 1.377.554.326.789-2.176-.873-.238-.237.084-.084-.04-.113-.082.08.002.006-.442.442h-.006l-.09.09.132.021.37-.37.251.252 2.241.9-.33.33.073.074.149-.149.088.089-.149.148.002.001.178-.178.534.533.061.061.533.534-.03.03.076.076-.148.148.073.074.33-.331.9 2.24.252.253-.37.37.025.153-.042.042-1.797-1.797-.061.062-.008.015 1.793 1.793zm-4.842-4.868.13-.13 1.153 1.154-.13.13zm3.294 3.294.13-.13 1.153 1.154-.13.13zM31.17 33l-.005-.028.443-.442.023.008zm-6.767-7.379c.144.144.368.16.511.034l.022.021.93-.93.004-.017c.033-.18.027-.34-.064-.452-.091-.112-.256-.157-.501-.13l-.019.002-.952.952.024.023a.378.378 0 0 0 .045.497zm8.882 8.882c.14.14.354.158.498.046l.023.023.952-.952.002-.018c.026-.245-.019-.41-.13-.502-.113-.091-.273-.097-.453-.064l-.016.004-.93.93.02.022c-.125.143-.11.368.034.511zm-8.809-8.955c-.113-.114-.119-.284-.02-.384.1-.099.27-.094.384.02.114.113.119.285.02.384-.1.099-.27.093-.384-.02zm8.883 8.882c-.114-.113-.12-.284-.02-.383.099-.1.27-.094.384.019.113.113.118.285.019.384-.1.1-.27.093-.383-.02zm-2.1-2.173-.872-2.177.789.326.554 1.378.191.192-.074.074.136.136-.271.271-.132-.047-.083.084zm-6.672-7.262.742-.742c.214-.02.338.016.397.089.06.072.069.198.041.357l-.738.738a.399.399 0 0 0-.116-.326.398.398 0 0 0-.326-.116zm8.882 8.882.739-.738c.159-.027.284-.018.357.041.072.06.109.183.089.398l-.742.742a.399.399 0 0 0-.117-.327.398.398 0 0 0-.326-.116zm-6.737-6.941.135.134.001-.001-.134-.135zm-.28-.292.282-.282.136.136.196-.196.11.111.26-.26.342-1.374-.058-.057-1.075 1.075zm5.824 5.825.847-.195 1.075-1.075-.057-.057-1.375.342-.26.26.112.11-.196.196.136.136zm-3.479-3.653.186-.186-.396-.96-.008-.02-.08-.032.503-.503.19.19 1.95-1.951.475.475-1.186 1.186-.32-.32-.77.77-.191-.191-.036.036-.043-.043-.344.343.899.9-.565.57zm.337.336 1.965-1.984.508.508.13.13-1.983 1.967-.274-.274zm.693.694.57-.566.9.9.343-.344-.043-.044.036-.036-.192-.19.77-.771-.32-.32 1.186-1.185.475.475-1.95 1.95.189.189-.503.503-.024-.06-.008-.02-.98-.404-.185.186zm-2.763-2.97.11.108v-.001l-.108-.11zm5.997 5.894.073.073 1.208-1.208.47.196 2.154-2.155.047.237-1.754 1.755.073.073 1.794-1.794-.084-.419-.097.02-.264-.7-.097.037.282.744-2.079 2.08-.37-.155-1.09 1.089-.18.041zm-8.615-8.693.072.073 1.377-1.377-.073-.072zm10.31 10.311.073.073 1.377-1.377-.073-.072zM27.27 26.89l.149.15 2.564-2.565-.073-.073-2.492 2.491-.075-.075zm.704.468.074.073.695-.695-.249-.248 1.934-1.934-.073-.072-2.006 2.006.247.247zm3.501 3.5.073.074.622-.623.249.248 2.006-2.006-.073-.073-1.934 1.934-.248-.248zm-6-8.187.112.062h.001l-.113-.063zm.543.09.819.819 1.051-1.052-.871-.871-.074.073.799.798-.906.906-.746-.746zm9.309 9.309.819.819.072-.073-.746-.746.906-.906.798.799.074-.073-.872-.872zm-9.239-9.408.075-.072-.21-.22-.072.073zm1.828 1.488.411.41.073-.072-.205-.205.479-.479-.074-.073-.479.479-.132-.133zm6.43 6.43.41.41.073-.072-.133-.133.48-.48-.074-.072-.479.479-.205-.205zm-8.114-8.186.074.073.463-.463-.073-.073zM36.438 32.6l.073.073.463-.464-.073-.073zm-5.218-5.456.47-.104.174.174-.103.47-.082-.082zm-2.52-3.201.284.284.037.037.405-.406-.32-.32zm5.94 5.94.321.321.406-.405-.32-.321-.37.369zm-5.794-5.94.26-.26.174.175-.26.26zm5.94 5.94.26-.26.175.176-.26.26zm-8.11-8.238.195.194.072-.072-.194-.194zm5.086 4.794.34-.34.07.011.015.072-.35.333zm.628.628.333-.35.07.014.013.07-.34.341zm-5.317-5.542.073.073 3.092-3.092-.073-.073-1.282 1.282-1.14-3.108-.097.035 1.148 3.132.048-.018-.73.73.013-.03a.32.32 0 0 0-.178-.006c-.026.004-.03.006-.047.01l-.325-1.104-.087.072.2.68-.666.655.038.109.662-.652.108.367.05-.016s.038-.012.084-.02a.376.376 0 0 1 .087-.004zM37.306 31.76l.073.073.978-.978a.371.371 0 0 1-.004.087c-.008.047-.02.084-.02.084l-.015.05.366.108-.658.67.109.037.661-.674.698.206-.607.727h.002l.77-.92-.003-.001-.09.108-1.122-.33c.005-.018.006-.021.01-.047a.32.32 0 0 0-.005-.178l-.03.013.729-.73-.018.047 3.132 1.149.036-.097-3.109-1.14 1.282-1.283-.073-.073zm.322.303h.003l.257-.256-.002-.001zM28.985 23.4l.072.072.407-.407.186.186.073-.073-.398-.398-.073.073.14.14zm6.449 6.449.073.073.407-.407.14.14.073-.073-.398-.398-.073.073.185.185zm-3.363-4.132.212-.213.21.21-.207.218zm.288.288.207-.218.382.382.171.171-.217.208-.148-.148zm.615.615.218-.207.21.21-.213.212zm-.617-1.189.223-.223-.005.063.314.027-.324.34zm.28.281.366-.383.517.517.058.057-.384.366-.173-.173zm.63.63.341-.325.028.315.062-.005-.223.223zm3.24 2.91.097-.038-.362-.92.71-.712.555.247.043-.094-.604-.269-.819.82zm-4.312-4.335a.37.37 0 0 0 .21.083l.028.005.489-.535-.147.007-.377.413c-.055-.01-.106-.023-.132-.048-.03-.029-.048-.073-.03-.178l-.103-.017c-.02.124.004.214.062.27zm.422.254.582-.582.028-.014.032.335-.278.292zm1.118 1.118-.03-.363.291-.278.335.031-.014.029zm-.66-1.035.291-.307-.039-.41-.026.002.923-.452.542.541.053.054-.451.923.002-.025-.41-.04-.307.292-.06-.06zM29.04 20.97a.454.454 0 0 0 .64-.64.454.454 0 0 0-.64.64zm8.895 8.895a.454.454 0 0 0 .641-.64.454.454 0 0 0-.64.64zm-8.822-8.968a.349.349 0 1 1 .494-.494.348.348 0 0 1 0 .494.348.348 0 0 1-.494 0zm8.896 8.895a.348.348 0 0 1 0-.494.349.349 0 1 1 0 .494zm-3.573-4.093.47-.96.067-.004.003.003-.419.95-.032.032zm-3.74-4.415.67-.67-.072-.073-.563.563-.193-.437.372-.372-.073-.073-.344.343-.173-.392.388-.387-.073-.073-.36.359-.176-.401.397-.397-.073-.073-.369.369-.11-.253.512-.513-.073-.073-.563.563zm6.925 6.925 1.99.876.563-.563-.073-.073-.513.513-.252-.111.368-.368-.072-.073-.397.396-.402-.177.36-.358-.074-.074-.387.388-.392-.173.344-.344-.074-.073-.372.372-.437-.192.563-.563-.073-.073zm4.883 3.843.11.032-.098-.54-.102.018zm-15.64-15.648.48.087.018-.101-.53-.097zm10.73 10.707 2.878 1.377.125.163v.373l.043.043-.489.49 3.114 1.406.095.149-.137 1.222h.003l.137-1.222-.095-.148-3.114-1.407.49-.49-.044-.043v-.373l-.125-.162-2.879-1.378zm-8.235-8.346.002-.002-1.406-3.112-.148-.095h-.002l.147.095zm.49-.488.043.042h.003l-.044-.043z" overflow="visible" stop-color="currentColor"/>
    <path d="M47.251 5.558v2.2h.782v-2.2Zm-7.528 2.344v5.722h1.175V9.078h6.013V7.902Zm8.654 0v1.176h6.01v4.546h1.175V7.902Zm-1.125 4.254v1.808h-1.809v.783h1.809v1.809h.782v-1.809h1.809v-.783h-1.809v-1.808zm-9.873 1.808v.782h2.2v-.782Zm18.33 0v.782h2.2v-.782ZM39.723 15.09v5.72h7.188v-1.176h-6.013V15.09zm14.664 0v4.544h-6.01v1.175h7.185V15.09zm-7.136 5.866v2.2h.782v-2.2z" overflow="visible" stroke="currentColor" stroke-width=".782" stop-color="currentColor"/>
  </g>
  <text x="50%" y="93%" font-size="12" alignment="bottom" text-anchor="middle">attack tgt</text>

</svg>
