<svg xmlns="http://www.w3.org/2000/svg" viewBox="0 0 67.733 67.733">
  <g fill="currentColor">
    <path d="m9.519 11.23 2.149-2.747.94-.153 11.342 3.903 1.82 1.716h2.071l.05.173h1.8l.148-.173h.406l.65-1.33 1.651.148 1.802-3.27-.096-.168.85-1.3 1.94 1.547.129.587-1.424 3.77h.698v.409l.33.33.079.593-1.558 4.418-.757.47h-1.956l-1.263 2.012h.987l.995.903h.084l1.769.687v2.297l-1.769.688h-.084l-.995.903h-.987l1.263 2.012h1.956l.757.47 1.558 4.417-.079.594-.33.33v.41h-.698l1.424 3.769-.13.587-1.94 1.547-.85-1.3.097-.169-1.802-3.27-1.651.149-.65-1.33h-.406l-.148-.172h-1.8l-.05.172h-2.07l-1.82 1.716-11.344 3.902-.94-.152-2.148-2.747 2.776-1.658.195.076 11.914-6.469h-2.7l-.253-.41-1.051-.534-.02-2.95 2.107-.684h1.231v-.51h.345v-1.071h-.345v-.51h-1.23l-2.107-.683.019-2.95 1.05-.534.254-.41h2.7L12.49 12.81l-.195.077zm.82-.154 2.006 1.2.182-.071 11.925 6.474.925-.582h2.785v-.002h-.692l.219-.532h4.013l.447.991.129-.057-.42-.93.112-.076-.324-.484h-3.463v.14h3.388l.183.275h-4.16l-.264.643h-2.333v.14h.2l-.149.094H24.7l-1.73-1.002V15.24l1.649-.941h.719l-.15-.14h-.607l-.212.12-.767-.864-1.88-.71-.027.06a159.556 159.556 0 0 0-.447 1.038 12.19 12.19 0 0 0-.098.243l.136.039.028-.073.064-.155.185-.432c.118-.275.211-.488.234-.54l1.722.65.725.816-1.415.807v.489l-.908.024.004.14.904-.024v.653l-.347.01-4.15-2.381-.071.121 4.186 2.404.382-.013v.795l1.832 1.064h.162l-.374.235-11.505-6.247 1.539-.61-.052-.131-1.65.653-.256-.14-.182.071-2.003-1.197zm1.18-.227a.461.461 0 0 0 .921 0 .46.46 0 0 0-.92 0zm0 28.083a.461.461 0 0 0 .921 0 .461.461 0 0 0-.92 0zm.142-28.083c0-.177.142-.319.319-.319a.318.318 0 1 1 0 .639.318.318 0 0 1-.319-.32zm0 28.083c0-.177.142-.32.319-.32a.318.318 0 1 1 0 .64.318.318 0 0 1-.319-.32zm.306 1.88.002.002.59.096 11.1-3.819 1.893-1.785h1.873l.049-.173h2.471l-.002-.002h-.229v-.4h-.14v.396h-1.398l-.01-.435-.142.004.011.435h-.564l-.048.172h-1.874l-.19.179h-.74l-1.649-.941v-2.056l1.73-1.004h.312l-.224-.14h-.126l-1.833 1.063v.796l-.382-.013-4.186 2.404.07.121 4.151-2.382.347.01v.654l-.904-.025-.004.14.908.026v.488l1.415.807-.725.816-1.722.65a59.346 59.346 0 0 1-.483-1.129 2.358 2.358 0 0 1-.028-.073l-.136.04a13.857 13.857 0 0 0 .098.243c.052.124.12.28.186.434l.261.604.027.061 1.88-.71.767-.864.212.12h.63l-1.555 1.467-11.1 3.818zm.841-3.361 1.623.642.052-.13-1.513-.6zm1.504-24.713 2.986 1.617.12-.275.258.085.424-.807-.186-.286-.078.05.07-.16-.095-.042.14-.284-2.525-1.19-.438.178.01-.02-.129-.06zm0 24.306.557 1.194.128-.06-.01-.021.44.178 2.524-1.19-.14-.284.096-.042-.07-.16.077.05.186-.286-.424-.808-.258.086-.12-.274zm.184-24.368.009-.018.114.054.455-.97.348-.141 2.338 1.101-.661 1.347.127.062.219-.445-.216.492zm0 24.428 2.733-1.48.214.488-.217-.442-.127.063.662 1.345-2.339 1.103-.349-.142-.454-.97-.114.054zm2.979-23.154.339-.775.123.19-.33.629zm0 21.882.132-.045.33.63-.123.19zm3.461-13.06v.002l1.64.533h1.691v-.003h-1.573v-3.47h-.14v3.464l-1.078-.35h.489v.017h.462v-2.51H22v-.045h-.285v-.234l-.142.072v.18h-.356l-.267.136v.005h.765v-.018h.179v2.255h-.854zm0 4.275.001.142h.413v1.827h-.402l.001.141h.543v-2.11zm0-4.314h.556v-2.109h-.543v.141h.401v1.828h-.413zm.013 6.48v.03l.888.45-.002-.001-.12-.062v-.26H22v-.043h.427v-2.51h-.463v.017h-.412l-.437.141h.779v2.255h-.18v-.018zm.22.14h.404v.205zm.841.618.002.003h2.51v-.262h.38v-.213h1.206l2.054 1.234v-.001l-2.057-1.236h-.882v-.17h4.81v-.141h-4.95v.31h-.184v.214h-.095v-.34l.708-1.66v.015h1.167v-.366h3.766v-.068l1.832 2.914-1.956-3.113h1.773l.994-.904h.195l1.32-.512v-1.542l-.015-.006-.056.05-1.38-.474.051-.082h-.114l-.034-.03-.05.08H30.71v.558h-.013l-.111-.158h-.874v.424l.874.021.099-.145h.025v1.04h-.025l-.099-.145-.874.02v.424h.874l.112-.159h.012v.56h2.293l.06.094-.165.15-1.01-.046-.023.03a.505.505 0 0 0-.121.284c-.003.11.061.22.2.32l.083-.115c-.118-.084-.144-.145-.143-.202.001-.048.039-.109.081-.172l.785.035-.66.6h-1.646v-.929h-2.572v.617h-1.345v-.483h-.14v.937h-.452v-1.595l2.716.013v-.07l.662-.423h.033v-.532h-.035l-.66-.423v-.068l-2.716.012v-1.594h.451v.937h.14v-.483h1.346v.616h2.572v-.905h-.124l1.958-3.115h2.103l.458-.285 1.45-4.11-.037-.277-.003-.002.037.277-1.45 4.109-.458.285h-1.926 1.409l.332-.864-.132-.05-.297.772H32.39l-.538-1.239-.13.058.576 1.323h-.022l-1.831 2.914v-.089h-3.767v-.365h-1.166v.014l-.709-1.659v-.317h-.14v.347l.795 1.864-.447 1.077-1.258-2.944v-.458h.161l.07-.149h-.156l-.003.008h-.854l-.005-.008h-.175l.107.15h.714v.485l1.295 3.032h-.638v.142h.286v.17h-.286v.003h.345v2.178h-.059v.146h-.286v.142h.638l-1.295 3.031v.487H22.9l-.124.172h-.081v-3.469h-.118l-.023.007v3.463zm.025-9.375h.25v2.228h-.25zm0 6.362h.25v2.227h-.25zm.915 3.013.022-.03h.853l.015.03zm.59-13.656c0 .278.202.51.461.527v.041H25.8l.018-.012c.207-.142.355-.302.375-.498.02-.196-.096-.4-.358-.61l-.02-.016h-1.838v.045a.516.516 0 0 0-.436.524zm0 17.15c0 .27.19.494.436.525v.045h1.838l.02-.016c.262-.211.378-.414.358-.61-.02-.197-.168-.357-.375-.5l-.019-.01h-1.797v.04c-.26.018-.461.249-.461.527zm.142-17.15c0-.218.159-.389.35-.389.192 0 .353.17.353.39 0 .218-.161.39-.353.39-.191 0-.35-.172-.35-.39zm0 17.15c0-.218.159-.389.35-.389.192 0 .353.17.353.39 0 .219-.161.39-.353.39-.191 0-.35-.171-.35-.39zm.072-4.124 1.258-2.944.447 1.077-.795 1.865v.37h-.144v.262h-.524l-.081-.172h-.161Zm.568-13.452h1.433c.226.188.31.342.298.47-.013.126-.125.256-.305.384h-1.426a.544.544 0 0 0 .203-.428.54.54 0 0 0-.203-.426zm0 17.15h1.426c.18.127.292.257.305.384.013.127-.072.282-.298.47h-1.433a.544.544 0 0 0 .203-.427c0-.174-.08-.33-.203-.427zm.198-13.206v.26h.002v-.26Zm.01-.552h.545v.263h.378v.214h.501l1.657-.997v-.11h-2.075zm0 11.246 1.006.63h2.075v-.11l-1.657-.997h-.501v.214h-.378v.263zm.168-6.885h.36l.543-1.309.012-.027-.047-.108h.972v.366h3.766v.917h-2.29v-.618h-1.486v-.37h-.07v-.083h-.664v1.736l-1.096.005zm0 .65 3.813-.018v1.233l-3.813-.017v-.53zm0 1.338 1.096.005v1.736h.664v-.083h.07v-.37h1.487v-.617h2.289v.917h-3.766v.365h-.971l.034-.08.012-.028-.556-1.336h-.359Zm.2-5.534v.21h.003v-.21zm.099 11.48v.14h2.333l.264.643h4.16l-.183.275h-3.387v.14h3.462l.324-.485-.113-.074.421-.93-.13-.06-.446.992H27.69l-.21-.507h-2.102l-.214-.134zm.075-16.71v.14h2.658v-.14Zm0 19.909v.14h2.658v-.14zm.01-14.466v.287h4.952v-.141h-4.81v-.146zm.23 1.131v.142h1.342v-.48h3.733v-.14h-3.874v.478zm0 6.76v.14h1.201v.48h3.874v-.141h-3.733v-.48zm2.111-13.698.049.17h.001l-.048-.17zm.438.61v1.583h2.03v-1.683h-.141v1.541H28v-1.44zm0 17.975v1.581H28v-1.44h1.749v1.542h.141v-1.683zm.163-18.001.142.003.01-.415h-.141Zm.328 3.2v.794h.14v-.395h.926v-.142h-.925v-.256zm0 12.415v.794h.14v-.257h.926v-.14h-.925V30.7zm.07-15.735v.142h.895v-.142zm0 19.708v.14h.895v-.14zm.23-10.305.554.354v.335l-.554.355v-.159zm.657-5.523v.619h.783v-.619zm0 11.47v.62h.783v-.62h-.712zm.14-11.33h.503v.338h-.502zm0 11.47h.503v.339h-.502zm.125-15.782v.375h.14v-.375zm.281 9.538h.658l.056.08-.055.081-.659-.015zm0 1.212.659-.016.055.081-.056.08h-.658zm.217-10.483v.142h5.97v-.142h-2.475l1.9-4.102-.128-.059-1.915 4.132.063.029h-1.41l.044-.017a.437.437 0 0 0-.167-.177c-.03-.021-.034-.022-.055-.035l.751-1.38-.152-.014-.463.85-1.276-.011-.069.14 1.269.011-.25.458.064.034s.047.024.1.061a.513.513 0 0 1 .088.08zm0 19.758v.141h1.889a.516.516 0 0 1-.088.08c-.053.038-.1.062-.1.062l-.064.034.25.457-1.281.011.068.14 1.29-.01.474.872-1.288.116.002.003 1.632-.147-.002-.003-.192.017-.763-1.402c.021-.013.026-.014.055-.035a.438.438 0 0 0 .167-.177l-.043-.017h1.41l-.064.029 1.915 4.132.128-.06-1.9-4.101h2.475v-.142zm.019.604.002.003h.496l-.001-.003zm.019-16.709v.14h.786v.359h.14v-.769h-.14v.27zm0 12.453v.14h.786v.27h.14v-.768h-.14v.358zm.743-7.236h.41v.405l-.41.01zm0 .556.41-.01v1.067l-.41-.01v-.284zm0 1.188.41.01v.406h-.41zm.551-1.744h.431l-.066.055.278.33-.643.016zm0 .543.723-.018v1.11l-.723-.018v-.334zm0 1.215.643.016-.278.33.066.055h-.43zm.319 5.938.13.056.539-1.239h1.373l.296.774.133-.05-.324-.841h-1.582zm.022-8.349c.002.11.06.2.122.284l.023.03.987-.043-.147-.135-.764.034c-.042-.063-.08-.125-.08-.173-.002-.057.024-.117.142-.2l-.082-.117c-.14.1-.204.21-.201.32zm.162.653h1.123l.04.014-.292.354-.55.013zm0 2.16.32-.382.55.014.294.353-.041.014zm.362-1.638.577-.015.359-.434-.027-.023 1.327.455v1.148l-1.327.456.027-.022-.359-.435-.577-.014v-.115Zm.24-8.03a.62.62 0 0 0 1.236 0 .62.62 0 0 0-1.237 0zm0 17.175c0 .341.277.62.618.62a.62.62 0 1 0-.619-.619zm.14-17.175a.477.477 0 1 1 .955 0 .476.476 0 0 1-.477.477.476.476 0 0 1-.477-.477zm0 17.175c0-.264.213-.477.478-.477a.477.477 0 1 1-.477.477zm.502-7.4 1.381-.474.069.061v.007l-1.32.512h-.063zm.653-7.872h1.294v-.14H34.01l.237-.61h.718v-.14h-.663l.211-.546h.748v-.14h-.693l.217-.559h.766v-.14h-.712l.137-.352h.99v-.14h-1.087zm0 13.37 1.075 2.767h1.087V34.2h-.99l-.136-.35h.71v-.14h-.765l-.217-.559h.693v-.141h-.748l-.211-.545h.663v-.141h-.719l-.236-.608h1.088v-.141ZM34.808 40l.075.138.427-.618-.116-.08zm.007-30.207.38.549.115-.08-.419-.607zm.023 20.698 1.449 4.107-.037.277-.36.36v.085h-.944l1.648 4.364-.052.235-1.312 1.047.002.003 1.312-1.047.052-.235-1.648-4.365h.944v-.084l.36-.36.037-.277-1.45-4.11zm.108-16.009h.004l1.646-4.361-.051-.235-.003-.002.052.234zm.944.003v.082l.002.002v-.084z" color="currentColor" overflow="visible" stop-color="currentColor"/>
    <path d="m59.531 25.4-10.02-9.652v19.304ZM47.448 13.76l-2.469-2.377v28.034l2.469-2.377z" paint-order="markers fill stroke"/>
  </g>
  <text x="50%" y="93%" font-size="12" alignment="bottom" text-anchor="middle">follow</text>

</svg>
