<svg xmlns="http://www.w3.org/2000/svg" viewBox="0 0 67.733 67.733">
  <path d="M55.563 6.615v24.694c-.035 5.067-7.009 9.204-21.829 12.347-14.82-3.143-21.794-7.28-21.828-12.347V6.615h21.828z" fill="none" stroke="currentColor" stroke-width="2.117" stop-color="currentColor"/>
  <path d="m22.696 34.457-2.2-1.723-.123-.753 3.128-9.09 1.375-1.458v-1.66l.138-.04v-1.442l-.138-.118v-.326l-1.066-.52.118-1.324-2.62-1.443-.135.077-1.042-.682 1.24-1.554.47-.103 3.021 1.14v-.559h.328l.265-.265.475-.063 3.54 1.249.377.606v1.568l1.612 1.012v-.791l.724-.797v-.068l.551-1.417h1.841l.55 1.417v.068l.724.797v.791l1.613-1.012v-1.568l.376-.606 3.54-1.249.476.063.264.265h.328v.56l3.021-1.141.47.103 1.24 1.554-1.042.682L46 14.56l-2.62 1.443.119 1.324-1.066.52v.326l-.138.118v1.443l.138.04v1.659l1.375 1.459 3.128 9.09-.123.752-2.2 1.723-1.33-2.225.061-.156-5.183-9.548v2.164l-.33.203-.427.842-2.364.015-.548-1.688v-.986h-.408V22.8h-.859v.277h-.408v.986l-.548 1.688-2.364-.015-.428-.842-.329-.203v-2.164l-5.184 9.548.061.156zm-.123-.658.961-1.608-.056-.145 5.188-9.556-.466-.741v-2.232h-.002v.554l-.426-.175V16.68l.794-.358-.046-.104-.745.337-.06-.09-.389.26v2.774h.113v-2.714l.22-.146v3.333l.515.212v1.87h.113v-.162l.075.12v.279l-.804 1.386h-1.647l-.754-1.32v-.577l-.113.12v.486l.097.17-.693.615-.569 1.506.05.022a127.703 127.703 0 0 0 .956.41c.034.014.052.022.07.026l.03-.108-.058-.023a48.99 48.99 0 0 1-.47-.2l-.433-.187.52-1.38.654-.58.647 1.133h.392l.02.728.112-.003-.02-.725h.524l.008.278-1.909 3.326.098.057 1.926-3.354-.01-.307h.637l.852-1.468v-.13l.189.3-5.006 9.22-.49-1.233-.104.041.523 1.322-.111.206.056.145-.96 1.606zm-.181-.946a.37.37 0 0 0 0-.737.37.37 0 0 0 0 .737zm22.504 0a.37.37 0 0 0 0-.737.37.37 0 0 0 0 .738zm-22.504-.113a.254.254 0 0 1-.256-.256.255.255 0 1 1 .512 0 .255.255 0 0 1-.256.256zm22.504 0a.254.254 0 0 1-.256-.256.255.255 0 1 1 .512 0 .255.255 0 0 1-.256.256zm1.506-.245.002-.002.077-.473-3.06-8.894-1.431-1.518v-1.5l-.138-.04v-1.98l-.003.002v.183h-.319v.113h.316v1.12l-.348.008.003.113.349-.008v.451l.138.04v1.5l.143.152v.594l-.754 1.32H39.73l-.805-1.385v-.25l-.113.18v.1l.852 1.47h.638l-.01.306 1.926 3.354.098-.057-1.91-3.326.01-.278h.522l-.02.724.113.004.02-.728h.392l.647-1.134.654.581.52 1.38-.433.188a47.337 47.337 0 0 1-.53.222l.032.108c.018-.005.036-.012.07-.025l.125-.053.348-.149.484-.209.049-.022-.57-1.506-.692-.615.097-.17v-.504l1.175 1.246 3.06 8.895zm-2.693-.674.515-1.3-.105-.043-.48 1.213zm-19.804-1.206 1.296-2.392-.22-.096.068-.207-.647-.34-.23.149.041.062-.129-.056-.033.077-.228-.112-.953 2.022.143.352-.017-.008-.048.103zm19.478 0 .957-.446-.049-.103-.016.008.142-.352-.954-2.022-.227.111-.034-.076-.128.056.04-.062-.229-.15-.647.341.069.207-.22.096zm-19.527-.147-.015-.007.043-.092-.777-.364-.113-.28.883-1.873 1.078.53.05-.102-.356-.175.394.173zm19.575 0-1.187-2.19.392-.172-.354.174.05.102 1.078-.53.884 1.874-.114.28-.776.363.042.092zM24.876 28.08l-.621-.272.153-.098.503.264zm17.535 0-.035-.106.504-.264.152.098zm-10.465-2.774h.002l.427-1.314v-1.355h-.002v1.26H29.59v.113h2.776l-.28.864v-.392h.014v-.37h-2.012v.342h-.036v.228h-.188l.058.114h.145v.285l.109.214h.004v-.613h-.015v-.143h1.807v.684zm3.426 0h.113v-.332h1.465v.322h.113v-.435h-1.691Zm-3.457 0v-.445h-1.69v.435h.113v-.322h1.464v.331zm5.192-.01h.025l.36-.712-.001.002-.05.096h-.207v-.228h-.035v-.342h-2.012v.37h.014v.33l.113.351v-.624h1.807v.143h-.014zm.113-.176v-.324h.164zm.495-.674.003-.002v-2.012h-.21v-.303h-.171v-.967l.989-1.646h-.001l-.99 1.648v.707h-.136v-3.855h-.114v3.968h.25v.147h.17v.075h-.273l-1.33-.567h.013v-.935h-.294v-3.018h-.055l2.335-1.467v-.001l-2.494 1.567v-1.42l-.725-.797v-.156l-.41-1.058h-1.235l-.005.012.04.045-.38 1.106-.066-.041v.092l-.024.027.064.04v1.838h.448v.01l-.127.09v.7h.34l.016-.7-.115-.08v-.02h.833v.02l-.117.08.017.7h.34v-.7l-.128-.09v-.01h.449v-1.838l.075-.047.12.132-.037.809.025.018a.403.403 0 0 0 .227.098c.087.002.176-.05.256-.161l-.092-.066c-.067.094-.116.115-.162.114-.038 0-.087-.03-.137-.065l.027-.629.481.528v1.32h-.744v2.061h.494v1.078h-.387v.113h.751v.361h-1.278l.01-2.176h-.055l-.34-.53v-.027h-.426v.028l-.34.53h-.054l.01 2.175H31.77v-.361h.75v-.113h-.386v-1.078h.494v-2.061H31.9v.1l-2.496-1.57v-1.684l-.229-.367-3.293-1.162-.222.03-.002.001.222-.029 3.293 1.162.229.367v1.543-1.129l-.693-.266-.04.106.619.238v1.1l-.993.432.046.104 1.06-.461v.017l2.336 1.468h-.072v3.018h-.293v.935h.012l-1.33.567H29.8v.113h.278l1.495-.638.862.359-2.359 1.008h-.367v-.13l-.119-.055v.125l.006.003v.684l-.006.004v.14l.12-.086v-.572h.389l2.43-1.038v.512h.113v-.23h.136v.23h.003v-.277h1.746v.047h.117v.23h.114v-.512l2.429 1.038h.39v.572l.138.1v.065h-2.78v.094l.006.018h2.774zm-7.512-.02v-.201h1.784v.2zm5.097 0v-.201h1.785v.2zm2.415-.733-.024-.018v-.684l.024-.012zm-10.943-.474c.223 0 .408-.161.422-.369h.033v-1.44l-.01-.015c-.114-.166-.242-.285-.399-.3-.157-.017-.32.076-.489.286l-.012.016v1.473h.035c.025.198.205.35.42.35zm13.743 0a.414.414 0 0 0 .42-.35h.036v-1.472l-.012-.016c-.17-.21-.332-.303-.49-.287-.157.016-.285.135-.399.3l-.01.016v1.44h.033c.015.208.2.37.422.37zm-13.743-.113c-.175 0-.312-.128-.312-.281 0-.154.137-.282.312-.282s.312.128.312.282c0 .153-.137.281-.312.281zm13.743 0c-.175 0-.312-.128-.312-.281 0-.154.137-.282.312-.282.176 0 .313.128.313.282 0 .153-.137.281-.313.281zm-3.305-.058-2.359-1.008.863-.358 1.495.637h.296v.115h.21v.42l-.138.065v.13zm-10.78-.455v-1.149c.15-.18.274-.248.376-.238.102.01.206.1.308.244v1.143a.436.436 0 0 0-.342-.163.435.435 0 0 0-.342.163zm13.744 0V21.45c.102-.144.206-.234.307-.244.102-.01.226.057.377.238v1.149a.436.436 0 0 0-.343-.163.435.435 0 0 0-.341.163zm-10.583-.159h.208v-.002h-.208zm-.443-.008v-.437h.211v-.303h.171v-.401l-.799-1.328h-.088v1.663zm9.013 0 .505-.806v-1.663h-.089l-.799 1.328v.402h.171v.302h.212zm-5.518-.135v-.287l-1.049-.436-.021-.01-.087.038v-.779h.293V17.8h.735v1.834h-.495v1.191h-.296v.056h-.067v.532h1.391l.004.878zm.52 0-.013-3.055h.988l-.014 3.055H33.7zm1.074 0 .004-.878h1.39v-.532h-.066v-.056h-.296v-1.191h-.495V17.8h.735v3.018h.292v.778l-.064-.027-.022-.01-1.07.446v.287zm-4.436-.16h.169v-.002h-.17zm9.2-.079h.113v-1.87l.514-.211v-3.333l.22.146V19.5h.114v-2.775l-.39-.259-.059.09-.746-.337-.047.104.795.358v3.216l-.406.168v1.685l-.109.17zm-13.39-.06h.112v-2.13h-.112zm15.953 0h.113v-2.13h-.113zm-11.592-.009h.23v-3.967h-.113v3.855h-.117zm.907-.183h.113v-1.076h-.384v-2.991h-.112v3.104h.383zm5.417 0h.112v-.963h.384v-3.104h-.112v2.991h-.384zm-10.977-1.692.136-.04-.136.038zm.49-.351h1.267V18.13h-1.349v.113h1.235v1.402h-1.154zm14.403 0h1.267v-.112h-1.155v-1.401h1.236v-.114h-1.348zm-14.425-.13.002-.114-.332-.008v.112zm2.565-.264h.636v-.112h-.317v-.741h-.114v.74h-.205zm9.948 0h.636v-.112h-.206v-.741h-.113v.74H38.3zm-12.61-.056h.114v-.716h-.113zm15.793 0h.113v-.716h-.113zm-8.257-.184.284-.444h.268l.284.444h-.127zm-4.426-.526h.496v-.628H28.8zm9.191 0h.497v-.628h-.497v.57zm-9.078-.113v-.402h.27v.402zm9.19 0v-.402h.272v.402zm-12.646-.1h.3v-.112h-.3zm7.643-.225v-.527l.063-.045.066.044-.012.528zm.971 0-.013-.528.066-.044.064.045v.527zm-8.4-.174h.113v-4.784h-.113v1.984l-3.287-1.523-.048.102 3.311 1.535.024-.05v1.129l-.014-.035a.35.35 0 0 0-.142.134c-.017.023-.018.027-.028.044l-1.106-.602-.011.122.68.37-.008 1.024.113.055.009-1.017.366.2.027-.051s.02-.038.05-.08a.411.411 0 0 1 .064-.07zm15.833 0h.113v-1.513a.413.413 0 0 1 .064.07c.03.042.05.08.05.08l.026.051.367-.2.01 1.027.112-.055-.01-1.033.7-.38.092 1.031h.003l-.118-1.309-.002.002.014.153-1.124.612c-.01-.017-.011-.02-.028-.044a.351.351 0 0 0-.142-.134l-.014.035v-1.13l.023.05 3.312-1.534-.048-.102-3.287 1.523v-1.984h-.113zm.484-.015.002-.002v-.397h-.002zm-13.39-.015h.113v-.63h.287v-.113h-.616v.113h.216zm9.979 0h.113v-.63h.216v-.113h-.616v.113h.287zm-5.799-.595v-.329h.325l.008.329zm.446 0-.008-.329h.855l-.007.329h-.228zm.952 0 .008-.329h.325v.329zm-1.398-.442v-.346l.045.053.265-.222.012.515zm.436 0-.015-.58h.89l-.015.58h-.267zm.973 0 .013-.515.265.222.044-.052v.345zm4.759-.256.045-.104-.993-.432v-1.1l.62-.238-.04-.106-.674.26v1.267zm-6.69-.017a.405.405 0 0 0 .227-.098l.024-.018-.035-.792-.108.119.028.611c-.051.034-.1.064-.14.065-.045.001-.093-.02-.16-.114l-.093.066c.08.112.169.163.257.16zm.522-.13v-.9l.012-.032.283.234.011.44zm1.731 0-.305-.257.01-.441.284-.235.011.033zm-1.312-.29-.012-.463-.348-.287-.018.021.365-1.063h.919l.365 1.063-.017-.021-.348.287-.012.463H34zm-6.435-.192a.497.497 0 0 0 0-.991.497.497 0 0 0 0 .991zm13.763 0a.497.497 0 0 0 0-.991.497.497 0 0 0 0 .991zm-13.763-.113a.382.382 0 1 1 0-.765c.212 0 .382.17.382.382s-.17.383-.382.383zm13.763 0a.381.381 0 0 1-.382-.383.382.382 0 1 1 .382.382zm-5.93-.403-.38-1.106.05-.055h.005l.41 1.058v.05Zm-6.308-.523V13.96h-.113v.871l-.487-.19v-.575h-.114v.532l-.437-.17v-.6h-.113v.556l-.447-.173v-.614h-.112v.57l-.282-.11v-.793h-.112v.871zm10.714 0 2.217-.861v-.871h-.113v.793l-.28.11v-.57h-.113v.613l-.448.174v-.555h-.113v.6l-.437.169v-.532h-.113v.576l-.487.19v-.872H39zm6.75-.804.11-.06-.494-.342-.064.092zm-24.205-.006.439-.304-.064-.092-.486.335zm16.585-.018 3.292-1.161.222.03.288.288h.068v.757l3.497-1.321.189.041.839 1.052.002-.002-.839-1.052-.188-.041-3.498 1.32v-.756h-.067l-.289-.289-.222-.03-3.293 1.163zm-12.828-.086v-.003l-3.495-1.32-.188.041-.002.002.188-.041zm.002-.757h.066l.002-.002h-.068z" color="currentColor" overflow="visible" fill="currentColor" stop-color="currentColor"/>

  <text x="50%" y="93%" font-size="12" alignment="bottom" text-anchor="middle">defensive</text>

</svg>
