<svg xmlns="http://www.w3.org/2000/svg" viewBox="0 0 67.733 67.733">
  <g fill="currentColor">
    <path d="m20.237 36.856-3.11-2.433-.173-1.064 4.42-12.842 1.942-2.061v-2.344l.195-.057v-2.038l-.195-.168v-.46l-1.506-.735.167-1.87-3.701-2.04-.191.11-1.472-.963 1.752-2.196.664-.146 4.268 1.612v-.79h.463l.374-.375.672-.089 5.002 1.764.532.857v2.215l2.277 1.43v-1.118l1.023-1.126v-.095l.778-2.003h2.601l.779 2.003v.095l1.022 1.126v1.118l2.278-1.43V8.528l.532-.857 5.001-1.764.673.09.373.373h.463v.79l4.268-1.611.665.146 1.752 2.196-1.472.963-.191-.11-3.702 2.04.168 1.87-1.506.735v.46l-.195.168v2.038l.195.057v2.344l1.942 2.06 4.42 12.843-.173 1.064-3.11 2.433-1.878-3.144.086-.22-7.324-13.49v3.058l-.464.286-.605 1.19-3.34.022-.774-2.385V20.78h-.576v-.391h-1.214v.39h-.577v1.394l-.773 2.385-3.34-.021-.605-1.19-.465-.287v-3.057l-7.324 13.49.087.22zm-.174-.93 1.358-2.27-.08-.206 7.33-13.501-.658-1.047v-3.153h-.004v.783l-.602-.248V11.74l1.123-.505-.065-.147-1.053.476-.086-.127-.548.366v3.92h.16V11.89l.31-.207v4.71l.728.299v2.64h.16v-.226l.105.168v.395l-1.135 1.958h-2.327l-1.066-1.866v-.814l-.16.169v.687l.138.24-.98.87-.803 2.127.07.031a179.25 179.25 0 0 0 1.174.506l.178.074c.046.019.073.03.097.037l.044-.153-.082-.033a68.21 68.21 0 0 1-.665-.282c-.312-.133-.553-.239-.612-.264l.735-1.95.925-.821.914 1.602h.553l.028 1.028.159-.005-.028-1.023h.739l.013.393-2.697 4.7.137.08 2.721-4.74-.014-.433h.9l1.205-2.075v-.182l.266.423-7.073 13.026-.69-1.743-.15.06.74 1.866-.157.291.08.206-1.356 2.268zm-.257-1.335a.522.522 0 0 0 0-1.043.522.522 0 0 0 0 1.043zm31.795 0a.522.522 0 0 0 0-1.043.523.523 0 0 0-.521.522c0 .286.234.52.52.52zm-31.795-.16a.36.36 0 0 1-.36-.361.36.36 0 1 1 .722 0c0 .2-.161.36-.362.36zm31.795 0a.36.36 0 0 1-.361-.361.36.36 0 1 1 .723 0c0 .2-.162.36-.362.36zm2.128-.347.003-.003.108-.667-4.323-12.567-2.021-2.144v-2.12l-.196-.056V13.73l-.003.003v.26h-.451v.158h.447v1.582l-.492.012.004.16.492-.012v.638l.196.055v2.121l.202.215v.839l-1.065 1.866h-2.328l-1.137-1.958v-.353l-.159.253v.143l1.204 2.075h.901l-.014.433 2.72 4.74.139-.08-2.698-4.7.013-.393h.739l-.028 1.023.16.005.027-1.028h.553l.914-1.602.924.82.736 1.95a66.903 66.903 0 0 1-1.278.547 2.3 2.3 0 0 1-.083.032l.046.153c.024-.007.05-.017.097-.036l.178-.074.49-.21.684-.296.07-.03-.804-2.129-.979-.868.137-.241v-.712l1.66 1.76 4.323 12.567zm-3.805-.952.727-1.838-.148-.059-.679 1.713zm-27.98-1.703 1.831-3.38-.31-.136.096-.292-.914-.481-.324.21.057.089-.182-.08-.047.109-.322-.159-1.347 2.858.202.497-.023-.01-.069.144zm27.52 0 1.352-.631-.069-.145-.023.011.201-.497-1.347-2.858-.321.158-.048-.108-.182.08.058-.089-.324-.21-.915.48.097.293-.31.136zm-27.59-.209-.02-.009.06-.13-1.097-.514-.16-.395 1.247-2.647 1.525.749.07-.144-.503-.248.557.245zm27.658 0-1.677-3.093.553-.243-.5.246.071.144 1.523-.75 1.249 2.648-.16.395-1.098.514.06.13zm-26.215-3.372-.878-.384.216-.14.711.374zm24.774 0-.05-.15.712-.373.215.14zM33.305 23.93h.003l.603-1.856v-1.915h-.003v1.781h-3.93v.16h3.923l-.397 1.22v-.554h.02v-.524h-2.842v.484h-.051v.323h-.265l.081.16h.205v.403l.154.303h.005v-.866h-.02v-.203h2.553v.967zm4.84 0 .16-.001v-.468h2.07v.456l.16-.001V23.3h-2.39Zm-4.884 0v-.63h-2.387v.614l.159.001v-.455h2.069v.468zm7.336-.015h.035l.51-1.005-.003.002-.07.137h-.293v-.323h-.05v-.484h-2.842v.524h.02v.467l.16.495v-.882h2.553v.203h-.02zm.159-.248v-.458h.232zm.7-.953.003-.002V19.87h-.297v-.43h-.241v-1.365l1.398-2.325h-.002l-1.4 2.328v.999h-.191V13.63h-.16v5.606h.352v.208h.241v.107h-.386l-1.878-.802h.017v-1.32h-.414v-4.265h-.078l3.299-2.073v-.001l-3.524 2.214v-2.007l-1.024-1.125v-.22l-.58-1.495h-1.745l-.006.016.057.064-.538 1.563-.093-.058v.13l-.034.038.09.057v2.597h.633v.014l-.179.126v.989h.48l.023-.99-.163-.111v-.028h1.177v.028l-.165.112.024.989h.48v-.99l-.18-.126v-.013h.633v-2.597l.106-.067.17.186-.051 1.143.034.026c.094.069.196.135.32.138.125.003.25-.07.362-.227l-.13-.094c-.094.134-.164.163-.228.162-.054-.001-.123-.044-.194-.092l.04-.889.678.747v1.864h-1.05v2.912h.697V17.6h-.547v.159h1.061v.51h-1.805l.014-3.074h-.078l-.48-.75v-.037h-.603v.04l-.478.747h-.077l.014 3.074h-1.805v-.51h1.061v-.16h-.547v-1.523h.698v-2.912h-1.025v.14l-3.527-2.216v-2.38l-.323-.519-4.652-1.641-.314.041-.003.003.313-.041 4.653 1.64.323.52v2.18-1.595l-.98-.376-.056.15.875.336v1.555l-1.403.61.065.147 1.499-.652v.025l3.299 2.073h-.101v4.265h-.414v1.32h.017l-1.879.802h-.359v.159h.393l2.11-.9 1.22.506-3.333 1.424h-.519v-.182l-.168-.08v.177l.008.004v.967l-.008.005v.198l.168-.12v-.81h.551l3.433-1.465v.722h.16v-.324h.193v.324h.003v-.39h2.465v.066h.166v.324h.16v-.723l3.433 1.466h.551v.81l.195.14v.091h-3.928v.134l.008.025h3.92zm-10.614-.028v-.283h2.522v.283zm7.202 0v-.283h2.522v.283zm3.412-1.035-.034-.025v-.967l.034-.016zm-15.46-.67c.313 0 .576-.227.596-.521h.046v-2.035l-.014-.021c-.16-.234-.342-.402-.564-.425-.222-.022-.452.109-.69.406l-.018.022v2.08h.05c.035.28.289.495.593.495zm19.416 0c.304 0 .559-.213.594-.493h.05v-2.08l-.017-.023c-.24-.297-.47-.428-.691-.406-.222.023-.404.19-.565.425l-.013.02v2.036h.046c.02.294.282.522.596.522zm-19.417-.16c-.248 0-.44-.18-.44-.397 0-.216.192-.398.44-.398s.441.182.441.398c0 .217-.193.398-.44.398zm19.417 0c-.248 0-.44-.18-.44-.397 0-.216.192-.398.44-.398s.441.182.441.398c0 .217-.193.398-.44.398zm-4.67-.08-3.332-1.425 1.219-.507 2.111.9h.42v.164h.296v.593l-.195.092v.182zm-15.23-.645v-1.622c.213-.256.388-.351.531-.337.144.015.292.142.436.346v1.613a.616.616 0 0 0-.484-.23.615.615 0 0 0-.483.23zm19.417 0v-1.613c.144-.204.291-.331.435-.346.144-.014.32.081.532.337v1.622a.616.616 0 0 0-.484-.23.615.615 0 0 0-.483.23zm-14.951-.223h.294v-.003h-.294Zm-.626-.012v-.617h.298v-.428h.242v-.567l-1.129-1.876h-.125v2.35zm12.733 0 .714-1.138v-2.35h-.125l-1.129 1.876v.567h.242v.428h.298zm-7.795-.19v-.407l-1.482-.615-.03-.013-.123.052v-1.1h.414v-4.264h1.039v2.592h-.7V17.6h-.418v.079h-.094v.75h1.965l.005 1.242zm.736 0-.02-4.317h1.396l-.02 4.317h-.6zm1.515 0 .006-1.241h1.965v-.751h-.094v-.08h-.419v-1.683H37.3v-2.592h1.039v4.264h.413v1.1l-.091-.039-.03-.013-1.513.628v.407zm-6.266-.227h.238v-.003h-.238Zm12.998-.111h.16V16.69l.726-.3v-4.71l.311.208v3.835h.16v-3.92l-.55-.367-.084.127-1.053-.476-.067.147L44 11.74v4.544l-.574.237v2.38l-.152.243zm-18.919-.085h.16v-3.01h-.16Zm22.54 0h.16v-3.01h-.16zm-16.378-.012h.326V13.63h-.16v5.447h-.166zm1.281-.26h.16v-1.519h-.542V13.23h-.16v4.386h.542zm7.653 0h.16v-1.36h.542V13.23h-.16v4.227h-.542zm-15.508-2.39.192-.055v-.002l-.192.054zm.691-.496h1.791v-2.298H24.52v.16h1.745v1.98h-1.63zm20.35 0h1.79v-.158h-1.63v-1.98h1.746v-.16h-1.906zm-20.38-.184.004-.16-.47-.012v.16zm3.624-.372h.899v-.16h-.448v-1.046h-.16v1.047h-.291zm14.055 0h.899v-.16h-.291v-1.046h-.16v1.047h-.448zm-17.815-.079h.16v-1.013h-.16zm22.313 0h.16v-1.013h-.16Zm-11.667-.26.401-.628h.38l.4.628h-.179Zm-6.253-.744h.701v-.887h-.7zm12.986 0h.702v-.887h-.702v.807zm-12.827-.16v-.568h.382v.569zm12.986 0v-.568h.383v.569zm-17.868-.14h.424v-.159h-.424zm10.798-.318v-.745l.09-.064.093.063-.018.746zm1.373 0-.018-.746.092-.063.09.064v.745zm-11.869-.247h.16v-6.76h-.16V9.63l-4.644-2.151-.067.144 4.678 2.168.033-.07v1.595l-.02-.049a.495.495 0 0 0-.2.19c-.023.032-.025.038-.04.061l-1.562-.85-.016.173.962.523-.012 1.445.16.078.011-1.436.519.282.038-.072s.027-.053.07-.113a.58.58 0 0 1 .09-.1zm22.37 0h.16v-2.138c.03.026.063.06.09.1.043.06.07.113.07.113l.038.072.518-.282.013 1.45.16-.077-.013-1.46.987-.537.13 1.458.004-.002-.166-1.848-.003.002.02.217-1.589.864c-.014-.023-.015-.029-.039-.062a.496.496 0 0 0-.2-.189l-.02.049V9.719l.033.071 4.678-2.168-.067-.144-4.644 2.151V6.826h-.16zm.684-.02.003-.003V13l-.003.002zm-18.918-.022h.16v-.89h.404v-.16h-.87v.16h.306zm14.099 0h.16v-.89h.304v-.16h-.87v.16h.406zm-8.193-.841v-.464h.459l.011.464zm.63 0-.011-.464h1.208l-.01.464h-.323zm1.345 0 .011-.464h.46v.464zm-1.975-.625v-.488l.063.075.374-.314.018.727zm.615 0-.02-.818h1.256l-.02.818h-.378zm1.375 0 .019-.727.374.314.062-.074v.487zm6.724-.36.063-.148-1.402-.61V9.406l.876-.336-.057-.15-.953.366v1.791zm-9.452-.025c.124-.003.226-.07.32-.138l.035-.026-.05-1.118-.152.167.039.864c-.072.048-.142.09-.197.092-.064.001-.132-.028-.227-.162l-.13.094c.111.157.237.23.361.227zm.738-.183v-1.272l.016-.046.4.332.016.621zm2.445 0-.431-.363.015-.623.4-.332.016.046zm-1.854-.41-.016-.654-.492-.406-.026.03.516-1.502h1.299l.516 1.502-.025-.03-.492.406-.016.654h-.13zm-9.09-.271c.385 0 .7-.315.7-.7a.701.701 0 0 0-1.401 0c0 .385.314.7.7.7zm19.445 0c.385 0 .7-.315.7-.7a.7.7 0 1 0-.7.7zm-19.446-.16a.54.54 0 1 1 0-1.08c.3 0 .54.24.54.54 0 .299-.24.54-.54.54zm19.446 0c-.3 0-.54-.241-.54-.54 0-.3.24-.54.54-.54a.54.54 0 1 1 0 1.08zm-8.379-.569-.536-1.563.069-.077h.007l.58 1.494v.07zm-8.913-.739V7.896h-.159v1.23l-.689-.267v-.813h-.16v.751l-.618-.24v-.846h-.159v.785l-.632-.246v-.867h-.159v.805l-.397-.154V6.913h-.16v1.23Zm15.138 0 3.132-1.217v-1.23h-.16v1.12l-.396.155v-.805h-.16v.867l-.632.245v-.784h-.16v.846l-.616.24v-.751h-.16v.813l-.689.268V7.896h-.16Zm9.537-1.136.156-.085-.699-.484-.09.131zm-34.199-.008.62-.43-.09-.13-.686.473zm23.433-.026 4.65-1.64.314.041.408.408h.095v1.069l4.942-1.866.266.059 1.185 1.485.004-.002-1.186-1.486-.266-.059-4.941 1.866v-1.07h-.096l-.407-.408-.314-.041-4.653 1.641ZM23.92 8.068v-.004l-4.938-1.865-.266.059-.003.002.265-.058zm.003-1.069h.092l.003-.003h-.095z" color="currentColor" overflow="visible" stop-color="currentColor"/>
    <path d="m23.53 35.719 2.438 1.852H45.47l2.438-1.852zm4.063 3.087 8.126 6.173 8.126-6.173z" paint-order="markers fill stroke"/>
  </g>
  <text x="50%" y="93%" font-size="17" alignment="bottom" text-anchor="middle">???</text>

</svg>
