<svg xmlns="http://www.w3.org/2000/svg" viewBox="0 0 67.733 67.733">
  <path d="m14.936 44.857-3.903-3.053-.216-1.335 5.545-16.115 2.437-2.586v-2.941l.246-.072v-2.557l-.246-.21v-.577l-1.89-.922.211-2.347-4.645-2.56-.24.137-1.847-1.208 2.199-2.756.834-.183 5.355 2.023v-.992h.581l.469-.47.843-.111 6.276 2.214.668 1.074v2.78l2.858 1.795V12.48l1.283-1.413v-.119l.977-2.513h3.264l.976 2.513v.12l1.284 1.412v1.404l2.858-1.795V9.31l.668-1.074 6.276-2.214.843.112.469.47h.581v.99l5.355-2.022.834.183 2.198 2.756-1.846 1.208-.24-.136-4.645 2.559.21 2.347-1.889.922v.577l-.245.21v2.557l.245.072v2.941l2.437 2.586L57.91 40.47l-.216 1.335-3.903 3.053-2.356-3.944.108-.276-9.19-16.928v3.837l-.583.36-.758 1.493-4.192.027-.97-2.993v-1.749h-.724v-.49h-1.524v.49h-.724v1.749l-.97 2.993-4.193-.027-.758-1.494-.583-.359V23.71l-9.19 16.928.108.276zm-.218-1.165 1.703-2.85-.1-.259 9.198-16.94-.826-1.315V18.37h-.004v.983l-.755-.31V13.34l1.408-.634-.081-.184-1.322.598-.107-.16-.688.46v4.92h.2v-4.813l.39-.26v5.91l.913.375v3.314h.2v-.284l.133.211v.495l-1.425 2.457h-2.92l-1.337-2.341v-1.022l-.2.212v.863l.172.302-1.228 1.09-1.01 2.67.088.039a224.953 224.953 0 0 0 1.474.634c.087.037.164.07.223.093.058.024.092.037.122.046l.055-.192-.103-.04a85.022 85.022 0 0 1-.834-.353l-.768-.333.923-2.447 1.16-1.03 1.146 2.01h.695l.035 1.29.199-.006-.035-1.283h.928l.015.492-3.384 5.897.173.1 3.414-5.947-.018-.542h1.13l1.511-2.604v-.23l.334.532L16.64 39.99l-.867-2.186-.186.074.928 2.343-.198.365.1.258-1.701 2.846zm-.323-1.677a.655.655 0 0 0 0-1.308.655.655 0 0 0 0 1.308zm39.897 0a.655.655 0 0 0 0-1.308.656.656 0 0 0-.654.654c0 .36.294.654.654.654zm-39.897-.201a.45.45 0 0 1-.453-.453.452.452 0 1 1 .907 0 .452.452 0 0 1-.454.453zm39.897 0a.45.45 0 0 1-.453-.453.452.452 0 1 1 .907 0 .452.452 0 0 1-.454.453zm2.67-.435.005-.003.135-.837-5.425-15.77-2.536-2.69v-2.661l-.245-.07v-3.51l-.004.003v.325h-.566v.2h.56v1.985l-.616.015.004.201.618-.016v.8l.245.07v2.662l.254.269v1.053l-1.337 2.341h-2.92l-1.427-2.457v-.443l-.2.318v.18l1.51 2.603h1.132l-.018.543 3.414 5.947.173-.1-3.385-5.897.016-.493h.927l-.034 1.284.2.006.035-1.29h.694l1.146-2.01 1.16 1.03.923 2.446a84.166 84.166 0 0 1-1.604.686 1.93 1.93 0 0 1-.103.04l.056.193c.031-.009.064-.022.123-.046l.223-.093c.176-.074.398-.17.616-.263l.858-.372.087-.038-1.009-2.67-1.228-1.09.172-.302v-.894l2.082 2.209 5.425 15.77zm-4.774-1.195.913-2.305-.186-.074-.852 2.149zm-35.11-2.137 2.298-4.241-.39-.17.12-.367-1.146-.604-.406.265.07.11-.228-.1-.058.137-.404-.199-1.69 3.586.253.624-.03-.014-.085.182zm34.533 0 1.696-.791-.086-.182-.03.014.254-.624-1.691-3.586-.403.198-.06-.135-.228.1.072-.111-.406-.265-1.149.604.123.366-.39.171zm-34.62-.261-.025-.012.075-.163-1.377-.645-.201-.496 1.565-3.321 1.913.94.089-.181-.632-.31.699.306zm34.705 0-2.104-3.882.694-.305-.627.309.089.18 1.911-.94 1.567 3.322-.202.496-1.377.645.075.163zM18.8 33.554l-1.101-.481.272-.175.892.468zm31.088 0-.063-.188.893-.468.27.175zm-18.553-4.918h.003l.757-2.328v-2.404h-.005v2.236h-4.93v.2h4.921l-.497 1.53v-.694h.025v-.658h-3.567v.607h-.064v.405h-.332l.102.202h.257v.505l.193.38h.007V27.53h-.025v-.254h3.203v1.213zm6.073 0 .201-.001v-.587h2.597v.572l.2-.002v-.771h-2.998zm-6.129 0v-.789h-2.996v.771l.2.001v-.57h2.596v.586Zm9.205-.018h.044l.64-1.261-.003.002-.088.172h-.368v-.406h-.063v-.607H37.08v.658h.025v.586l.2.62v-1.106h3.204v.254h-.025zm.2-.312v-.574h.291zm.878-1.195.005-.003v-3.567h-.373v-.538h-.303V21.29l1.754-2.919h-.002l-1.756 2.922v1.253h-.24v-6.834h-.202v7.034h.442v.26h.303v.135h-.484l-2.357-1.006h.021v-1.657h-.52v-5.351h-.097l4.14-2.602-4.422 2.778v-2.519l-1.285-1.412v-.276l-.728-1.876h-2.19l-.008.021.071.08-.675 1.961-.116-.073v.163l-.043.048.114.071v3.26h.794v.017l-.225.158v1.241h.602l.03-1.241-.206-.14v-.036h1.478l-.001.035-.206.14.03 1.242h.602v-1.241l-.227-.16v-.016h.796v-3.259l.133-.083.212.233-.064 1.434.043.033c.118.086.247.17.403.173.155.003.313-.087.453-.285l-.162-.117c-.119.167-.206.204-.287.202-.068-.001-.154-.054-.244-.115l.05-1.115.852.937v2.339h-1.32v3.654h.877v1.912h-.687v.2h1.332v.64h-2.266l.018-3.858h-.098l-.601-.941v-.046h-.757v.049l-.601.938h-.097l.018 3.858H31.02v-.64h1.332v-.2h-.687V18.78h.876v-3.654h-1.286v.176l-4.426-2.781V9.535l-.405-.651-5.838-2.06-.394.053-.003.003.393-.052 5.838 2.06.405.65v2.737-2.002l-1.228-.471-.071.188 1.097.42v1.952l-1.76.765.082.185 1.88-.818v.031l4.14 2.602h-.127v5.351h-.519v1.657h.021l-2.357 1.006h-.45v.2h.492l2.649-1.13 1.53.635-4.183 1.788h-.65v-.23l-.212-.1v.223l.01.005v1.213l-.01.007V26l.212-.152v-1.015h.69l4.308-1.839v.906h.201v-.407h.242v.407h.004v-.49h3.094v.083h.208v.407h.201v-.906l4.307 1.84h.692v1.014l.245.176v.116h-4.93v.168l.01.031h4.92zm-13.319-.036v-.355h3.165v.355zm9.038 0v-.355h3.164v.355zm4.281-1.3-.043-.03v-1.213l.043-.02zm-19.4-.838c.394 0 .723-.287.748-.655h.058v-2.554l-.018-.026c-.201-.294-.428-.505-.707-.533-.279-.028-.567.137-.867.509l-.022.028v2.611h.063c.044.351.363.62.744.62zm24.365 0c.381 0 .7-.269.744-.62h.064v-2.61l-.022-.03c-.3-.371-.589-.536-.867-.508-.279.028-.507.24-.709.533l-.017.026v2.554h.059c.025.368.353.655.748.655zm-24.366-.201c-.31 0-.553-.227-.553-.499s.242-.5.553-.5c.311 0 .554.228.554.5s-.243.499-.554.499zm24.366 0c-.311 0-.553-.227-.553-.499s.242-.5.553-.5c.31 0 .553.228.553.5s-.242.499-.553.499zm-5.86-.102-4.182-1.788 1.53-.635 2.65 1.13h.525v.204h.372v.744l-.244.115v.23zm-19.112-.808V21.79c.267-.32.487-.441.667-.423.18.019.366.178.546.434v2.025a.773.773 0 0 0-.607-.289.771.771 0 0 0-.606.289zm24.366 0V21.8c.18-.256.365-.415.546-.434.18-.018.4.102.667.423v2.036a.773.773 0 0 0-.607-.289.771.771 0 0 0-.606.289zm-18.762-.281h.369v-.004h-.369zm-.785-.015v-.774h.374v-.537h.304v-.711l-1.417-2.355h-.157v2.949zm15.978 0 .896-1.428v-2.949h-.157l-1.417 2.355v.711h.304v.537h.374zm-9.782-.238v-.51l-1.86-.772-.038-.017-.153.066v-1.381h.519v-5.35h1.303v3.252h-.877v2.113h-.525v.099h-.118v.942h2.465l.007 1.558zm.923 0-.024-5.417h1.751l-.024 5.417h-.753Zm1.902 0 .007-1.558h2.467v-.942h-.12v-.1h-.524V18.58h-.878v-3.252h1.304v5.35h.518v1.38l-.115-.048-.038-.017-1.898.789v.51zm-7.863-.285h.299v-.004h-.299Zm16.31-.14h.2v-3.314l.912-.375v-5.91l.39.26v4.812h.2v-4.92l-.688-.459-.106.16-1.322-.598-.083.184 1.408.634v5.702l-.72.298v2.987l-.191.304zm-23.74-.106h.2v-3.776h-.2zm28.284 0h.2v-3.776h-.2Zm-20.551-.015h.408v-7.034h-.2v6.834h-.208zm1.607-.325h.201v-1.907h-.68V15.21h-.2v5.504h.679zm9.604 0h.2v-1.707h.68V15.21h-.2v5.304h-.68zm-19.461-3 .24-.07v-.002l-.24.069zm.868-.622H22.7v-2.885h-2.39v.201h2.189V18.6h-2.046zm25.536 0h2.246v-.2h-2.047v-2.484h2.191v-.2h-2.39Zm-25.574-.232.004-.201-.59-.015v.2zm4.547-.466h1.128v-.2h-.563v-1.314h-.2v1.314h-.365zm17.637 0h1.128v-.2h-.366v-1.314h-.2v1.314H42.6zM20.244 18h.202v-1.27h-.202zm27.999 0h.2v-1.27h-.2zm-14.64-.326.503-.787h.476l.504.787h-.225zm-7.846-.934h.879v-1.11h-.88zm16.295 0h.88v-1.11h-.88v1.012zm-16.096-.2v-.713h.48v.714zm16.295 0v-.713h.481v.714zm-22.421-.175h.532v-.2h-.532zm13.55-.4v-.935l.113-.08.116.079-.022.936zm1.722 0-.022-.936.115-.079.114.08v.935zm-14.893-.31h.2v-8.48h-.2v3.517l-5.827-2.7-.085.181 5.87 2.72.042-.088v2.002l-.025-.061c-.116.048-.19.15-.252.237-.029.041-.03.048-.049.078l-1.96-1.068-.02.217 1.207.657-.016 1.814.2.097.016-1.802.65.355.048-.091s.034-.067.087-.142a.729.729 0 0 1 .114-.125zm28.07 0h.2v-2.682a.725.725 0 0 1 .115.125c.052.075.087.142.087.142l.048.09.65-.354.016 1.82.2-.097-.016-1.832 1.239-.674.164 1.83.004-.003-.208-2.318-.004.002.024.272-1.992 1.085c-.018-.03-.02-.037-.05-.078-.06-.087-.136-.19-.251-.237l-.025.06v-2.001l.041.089 5.87-2.72-.084-.183-5.827 2.7V7.176h-.201zm.858-.025.004-.004v-.705l-.004.002zM25.4 15.603h.2v-1.116h.508v-.2h-1.092v.2h.384zm17.691 0h.2v-1.116h.383v-.2h-1.091v.2h.508zm-10.28-1.055v-.582h.575l.015.582zm.79 0-.014-.582h1.517l-.014.582h-.405zm1.688 0 .014-.582h.576v.582zm-2.478-.783v-.613l.08.094.468-.394.022.913zm.771 0-.025-1.027h1.577l-.025 1.027h-.475zm1.726 0 .023-.913.47.394.078-.093v.612zm8.437-.453.08-.185-1.76-.765V10.41l1.099-.421-.071-.188-1.196.46v2.246zm-11.86-.031c.155-.004.284-.087.401-.173l.044-.033-.062-1.403-.19.21.047 1.084c-.09.06-.177.114-.246.115-.08.002-.166-.035-.285-.202l-.164.117c.14.198.298.288.454.285zm.926-.23v-1.596l.02-.057.503.415.019.78zm3.068 0-.541-.456.02-.782.501-.416.02.058zm-2.327-.515-.02-.82-.617-.51-.032.04.646-1.887h1.631l.647 1.886-.03-.038-.618.509-.02.82h-.164Zm-11.407-.34a.88.88 0 0 0 .879-.878.88.88 0 0 0-.879-.88.88.88 0 0 0-.879.88.88.88 0 0 0 .879.878zm24.4 0a.88.88 0 0 0 .88-.878.88.88 0 0 0-.88-.88.88.88 0 0 0-.878.88.88.88 0 0 0 .879.878zm-24.4-.2a.677.677 0 1 1 0-1.356c.376 0 .678.302.678.678a.676.676 0 0 1-.678.677zm24.4 0a.676.676 0 0 1-.677-.678c0-.376.302-.678.678-.678a.677.677 0 1 1 0 1.355zm-10.513-.714-.673-1.961.087-.097h.009l.728 1.875v.088zm-11.184-.927V8.517h-.2v1.545l-.864-.335V8.705h-.201v.943l-.775-.3V8.285h-.2v.985l-.793-.308V7.874h-.2v1.01l-.498-.193V7.284h-.2v1.544zm18.995 0 3.93-1.527V7.284h-.2V8.69l-.497.193v-1.01h-.2v1.088l-.793.308v-.985h-.202v1.063l-.773.3v-.943h-.201v1.022l-.864.335V8.517h-.2zM55.81 8.93l.195-.107-.877-.606-.114.164zm-42.914-.01.778-.539-.114-.164-.86.594zM42.3 8.887l5.836-2.059.393.052.512.512h.12v1.341l6.2-2.34.334.073 1.487 1.863.005-.003L55.7 6.462l-.334-.073-6.2 2.34V7.39h-.12l-.511-.512-.394-.052-5.838 2.059zm-22.743-.154v-.005l-6.196-2.34-.334.074-.003.003.333-.073zm.004-1.341h.116l.004-.004h-.12z" color="currentColor" overflow="visible" fill="currentColor" stop-color="currentColor"/>
  <text x="50%" y="93%" font-size="12" alignment="bottom" text-anchor="middle">???</text>

</svg>
