<svg xmlns="http://www.w3.org/2000/svg" viewBox="0 0 67.733 67.733">
  <path d="M37.616 5.282c-1.19 0-2.166.979-2.166 2.168v9.455c0 1.19.976 2.166 2.166 2.166h8.691v3.94l3.967-3.94h2.422c1.19 0 2.167-.977 2.167-2.166V7.45c0-1.19-.977-2.168-2.167-2.168zm0 1.32h15.08c.482 0 .849.367.849.848v9.455a.832.832 0 0 1-.849.848h-2.965l-2.106 2.09v-2.09h-10.01a.832.832 0 0 1-.847-.848V7.45c0-.481.366-.848.848-.848z" color="currentColor" overflow="visible" fill="currentColor" paint-order="markers fill stroke" stop-color="currentColor"/>
  <path d="m12.719 29.992-.31-2.535.408-.566 7.896-3.853 1.832-.054 1.072-1.073.115.064.933-.933-.013-.166.21-.21-.353-1.025.933-.779-.76-2.626-.138-.038-.233-1.114 1.806-.203.371.237 1.215 2.69.362-.361.211.211h.342l.349.267 1.48 3.095-.148.635-1.013 1.013.388 1.697.511-.512.983-.047.044-.044 1.272-.56.432.433.325.324.432.433-.56 1.272-.043.044-.047.982-.512.512 1.696.388 1.013-1.014.636-.148 3.095 1.481.266.348v.342l.212.212-.361.362 2.69 1.215.236.37-.203 1.806-1.114-.232-.037-.138-2.626-.76-.78.932-1.024-.352-.21.21-.167-.013-.932.933.064.115-1.073 1.072-.054 1.831-3.853 7.897-.566.407-2.536-.31.58-2.296.14-.061 2.82-9.522-1.399 1.4-.343-.083-.821.268-1.538-1.518.737-1.445.638-.637-.264-.264.179-.179-.247-.247-.062-.061-.246-.247-.18.179-.263-.264-.638.637-1.445.738-1.518-1.538.268-.821-.081-.344 1.398-1.398-9.52 2.82-.062.14zm.345-.504 1.66-.418.058-.13 9.53-2.824.177-.78 1.442-1.442-.001-.002-.358.359-.162-.39 2.078-2.078.745.282.037-.096-.7-.264.02-.098-.418-.083-1.794 1.794.073.072 1.754-1.754.237.048-2.154 2.154.196.47-1.208 1.208.072.073.104-.104-.028.126-.18.18-1.416.377-1.064-1.065.366-1.341.372-.373-.15.005-.314.314-.048.173-.845-.05-1.341.605.017.046a116.45 116.45 0 0 0 .354.884c.012.03.02.047.028.061l.09-.05-.023-.052a44.319 44.319 0 0 1-.175-.433l-.16-.401 1.23-.556.798.048-.315 1.15.253.254-.458.483.075.07.455-.48.339.338-.174.185-3.384.916.026.1 3.413-.924.191-.204.413.412 1.5-.399.083-.083-.072.315-9.194 2.724.481-1.113-.095-.041-.515 1.192-.206.06-.057.132-1.658.417zm.494-.729a.338.338 0 0 0 .477-.477.337.337 0 0 0-.477.477zm14.545 14.545a.338.338 0 0 0 .476-.477.338.338 0 0 0-.477.477zM13.63 28.686a.232.232 0 0 1 0-.33.233.233 0 1 1 .33.33.233.233 0 0 1-.33 0zM28.176 43.23a.232.232 0 0 1 0-.33.233.233 0 1 1 .33.33.233.233 0 0 1-.33 0zm1.132.815h.003l.354-.255 3.771-7.727.056-1.905.97-.97-.063-.115 1.28-1.28h-.003l-.119.118-.206-.206-.073.073.204.204-.723.724-.23-.22-.072.076.23.219-.291.292.064.115-.97.97-.006.19-.384.384-1.34.367-1.065-1.065.375-1.416.162-.161-.189.043-.065.065-.399 1.5.412.412-.204.192-.924 3.412.1.027.916-3.384.185-.174.338.338-.48.456.07.075.483-.458.253.253 1.151-.314.048.798-.556 1.228-.401-.158a43.323 43.323 0 0 1-.486-.2l-.05.091a10.044 10.044 0 0 0 .177.075 45.967 45.967 0 0 0 .769.306l.046.018.605-1.341-.05-.845.173-.047.326-.326-.046 1.564-3.772 7.726zm-1.305-2.176 1.173-.508-.04-.094-1.095.472zm-12.02-13.578 2.383-.709-.08-.204.178-.09-.198-.638-.245-.052-.014.067-.047-.12-.07.028-.076-.22-1.923.692-.135.32-.006-.016-.097.035zM28.57 40.879l.908.33.034-.097-.015-.006.32-.135.69-1.924-.22-.074.028-.072-.119-.046.067-.014-.052-.245-.639-.199-.089.179-.204-.08zM16.046 28.164l-.005-.014.087-.032-.267-.737.108-.254 1.781-.64.355 1.04.098-.034-.117-.343.143.366zm12.652 12.651.648-2.182.364.142-.34-.116-.034.098 1.04.354-.641 1.782-.254.108-.737-.267-.032.086zm-10.45-13.534-.226-.577.163.035.155.496zm11.333 11.333.046-.092.497.155.034.162zm-4.97-8.557v.001l1.126-.573.876-.876-.002-.002-.815.815L24 27.625l-.073.073 1.794 1.794-.74.377.254-.254.009.01.24-.24-1.3-1.3-.222.22-.023-.022-.148.147-.121-.12-.036.11.093.093-.184.185-.068.209.002.002.397-.396-.01-.01.093-.092 1.168 1.168-.443.442zm2.214 2.214.074.073.213-.214.947.947-.208.208.073.072.281-.28-1.093-1.094zm-2.235-2.234.288-.288-1.092-1.092-.281.281.072.073.208-.208.947.947-.214.214zm3.363 3.349.016.016.693-.227h-.002l-.095.03-.134-.134.148-.147-.023-.023.221-.221-1.3-1.3-.24.24.01.008-.214.214-.153.3.403-.404 1.168 1.168-.093.093-.009-.01zm.186-.041.21-.21.106.107zm.756-.115h.003l1.3-1.3-.136-.136.196-.196-.11-.11.625-.625 1.703-.425-1.706.424-.457.457-.088-.087 2.492-2.492-.073-.073-2.565 2.564.161.161-.095.095.11.11-.049.05-.176-.177-.492-1.226.007.008.604-.604-.19-.19 1.952-1.95-.036-.036 2.458.56-2.625-.599.919-.918.046-.983.1-.101.419-.949-.237-.237-.324-.324-.237-.237-.011.004-.003.055-.961.47-.016-.07-.06.06-.032.002.015.067-1.188 1.188.29.29-.007.006-.14-.024-.452.452.22.22.463-.442-.024-.126.013-.013.393.393.146.146-.014.012-.126-.024-.442.464.22.22.452-.453-.024-.14.006-.007.29.29 1.188-1.188.079.018-.008.162-.546.5.004.028a.37.37 0 0 0 .083.21c.056.058.146.082.27.06l-.017-.1c-.104.017-.15-.002-.178-.032-.025-.025-.036-.076-.047-.13l.425-.39-.031.653-.853.853-.481-.481-1.332 1.332.319.32-.697.696-.25-.25-.073.073.486.485-.234.234-.826-.826 1.413-1.4-.035-.036.123-.562.017-.017-.01-.01-.266-.266-.018.018-.56.123-.036-.035-1.4 1.413-.826-.826.234-.234.485.486.073-.073-.25-.25.697-.697.319.32 1.332-1.333-.469-.469-.064.065-.6-2.628 1.09-1.089.089-.385-1.377-2.879-.163-.124h-.003l.163.124 1.377 2.88-.09.384-.997.998.73-.73-.276-.62-.094.043.246.553-.711.712-.92-.363-.038.097.983.387-.011.012.56 2.458-.046-.047-1.95 1.951-.19-.19-.604.605.008.008-1.226-.493-.164-.164-.073.073.18.18 1.377.553.326.79-2.176-.874-.237-.237.083-.084-.04-.113-.082.081.002.005-.442.443-.006-.001-.09.09.132.022.37-.37.252.252 2.24.9-.33.33.073.073.149-.148.088.088-.148.148.001.002.179-.179.533.533.061.062.534.533-.03.03.075.076-.148.149.073.073.33-.33.9 2.24.252.252-.37.37.025.154-.042.042-1.797-1.797-.06.06-.009.016 1.794 1.793zm-4.842-4.869.13-.13 1.153 1.154-.13.13zm3.294 3.295.13-.13 1.154 1.154-.13.13zm2.035 1.087-.004-.027.442-.443.023.009zm-6.767-7.379c.144.144.368.16.512.034l.021.022.93-.931.004-.016c.034-.181.028-.34-.064-.452-.09-.112-.256-.158-.501-.131l-.018.002-.952.952.023.023a.378.378 0 0 0 .045.497zm8.882 8.883a.38.38 0 0 0 .498.045l.023.023.952-.951.002-.019c.027-.245-.019-.41-.13-.501-.112-.092-.272-.098-.453-.064l-.016.003-.93.931.02.021a.377.377 0 0 0 .035.512zm-8.809-8.956c-.113-.113-.119-.284-.02-.383.1-.1.271-.094.384.019.114.113.119.285.02.384-.1.1-.27.093-.384-.02zm8.883 8.882c-.114-.113-.12-.284-.02-.383.1-.099.27-.094.384.02.113.113.118.284.02.384-.1.099-.27.093-.384-.02zM29.47 32l-.872-2.176.79.326.553 1.378.192.191-.075.075.136.136-.271.27-.131-.046-.084.083zm-6.67-7.262.742-.742c.215-.02.338.017.398.09.059.072.068.197.04.356l-.738.739a.399.399 0 0 0-.116-.327.398.398 0 0 0-.326-.116zm8.883 8.883.738-.738c.16-.028.284-.019.357.04.072.06.109.184.09.398l-.743.742a.399.399 0 0 0-.116-.326.398.398 0 0 0-.326-.116zm-6.738-6.942.135.134.001-.001-.134-.134zm-.28-.292.282-.282.136.136.196-.195.11.11.26-.26.342-1.374-.057-.057-1.075 1.075zm5.824 5.825.848-.194 1.075-1.075-.058-.057-1.374.342-.26.26.11.11-.195.195.137.137zm-3.479-3.653.186-.186-.396-.96-.008-.02-.08-.031.503-.504.19.19 1.95-1.95.475.474-1.186 1.186-.32-.32-.77.77-.19-.191-.037.036-.043-.043-.344.344.9.898-.566.57zm.337.337 1.966-1.984.507.507.131.131-1.984 1.966-.274-.274zm.693.693.57-.565.9.899.343-.344-.043-.043.036-.036-.191-.192.77-.77-.32-.32 1.186-1.185.475.475-1.95 1.95.188.19-.503.502-.024-.059-.008-.02-.98-.404-.185.186zm-2.762-2.97.108.109.002-.002-.109-.109zm5.996 5.895.073.073 1.208-1.209.47.196 2.154-2.154.048.237-1.755 1.754.073.073 1.794-1.794-.084-.418-.097.02-.264-.7-.097.036.282.745L33 31.452l-.37-.155-1.09 1.09-.18.04zm-8.615-8.694.073.073 1.376-1.376-.073-.073zm10.31 10.311.074.073 1.376-1.376-.073-.073zm-7.486-7.497.149.149 2.564-2.565-.073-.073-2.492 2.492-.075-.076zm.704.467.074.073.695-.695-.248-.248 1.933-1.933-.073-.073-2.006 2.006.248.248zm3.502 3.501.072.073.623-.622.248.248 2.006-2.006-.073-.073-1.933 1.933-.248-.248zm-6.001-8.188.113.063v-.001l-.112-.063zm.543.09.82.819 1.05-1.052-.87-.871-.074.073.798.798-.906.906-.746-.746zm9.309 9.309.819.819.073-.073-.747-.746.906-.906.799.8.073-.074-.871-.872zm-9.24-9.408.075-.071-.21-.22-.072.073zm1.828 1.488.411.411.073-.073-.205-.204.479-.48-.073-.073-.48.48-.132-.134zm6.43 6.43.41.41.074-.072-.134-.133.48-.479-.073-.073-.48.48-.204-.206zm-8.114-8.186.074.074.463-.464-.073-.073zm10.207 10.207.073.073.464-.463-.073-.073zm-5.218-5.456.471-.104.174.174-.104.47-.082-.082zm-2.52-3.2.284.283.037.037.406-.406-.321-.32zm5.94 5.94.322.32.405-.405-.32-.32-.37.368zm-5.794-5.94.26-.26.175.174-.26.26zm5.94 5.94.26-.26.176.175-.26.26zm-8.11-8.238.195.194.073-.073-.194-.194zm5.086 4.794.34-.341.071.012.014.07-.35.334zm.628.627.333-.349.07.013.013.071-.34.34zm-5.317-5.542.074.074 3.092-3.092-.074-.073-1.282 1.282-1.14-3.109-.097.036 1.148 3.131.048-.017-.73.73.013-.032a.32.32 0 0 0-.178-.005l-.046.01-.326-1.103-.086.071.2.68-.667.656.038.108.662-.651.108.366.05-.016s.038-.011.084-.02a.376.376 0 0 1 .087-.004zM35.52 31.502l.074.074.978-.978a.371.371 0 0 1-.005.087c-.007.046-.02.083-.02.083l-.015.05.366.109-.657.669.108.037.662-.673.697.205-.607.727.002.001.77-.921h-.003l-.09.108-1.122-.331c.005-.018.007-.021.011-.047a.32.32 0 0 0-.005-.178l-.032.013.73-.73-.017.048 3.132 1.148.035-.097-3.109-1.14 1.283-1.282-.074-.073zm.323.304h.002l.257-.257H36.1zm-8.644-8.664.073.073.407-.407.185.185.073-.073-.398-.398-.073.073.14.14zm6.45 6.45.072.072.407-.407.14.14.073-.073-.398-.398-.073.073.185.185zm-3.364-4.133.213-.212.21.21-.208.217zm.288.288.208-.217.381.381.171.172-.217.207-.147-.148zm.616.615.217-.207.21.21-.212.213zm-.618-1.189.223-.223-.005.063.315.027-.325.341zm.281.282.365-.384.517.517.058.058-.383.365-.174-.173zm.63.629.34-.325.028.315.062-.005-.223.223zm3.24 2.91.097-.038-.363-.92.711-.712.554.247.043-.094-.603-.268-.82.819zm-4.313-4.335a.37.37 0 0 0 .21.084l.028.004.489-.534-.146.007-.378.412c-.055-.01-.106-.023-.132-.047-.03-.03-.047-.074-.03-.178l-.102-.017c-.021.123.003.214.061.27zm.422.254.582-.582.028-.013.032.335-.278.291zm1.119 1.119-.032-.364.293-.278.334.032-.014.028zm-.661-1.036.292-.307-.04-.41-.025.002.923-.452.541.542.053.053-.451.923.002-.025-.41-.04-.307.292-.06-.06zm-4.035-4.283a.454.454 0 0 0 .641-.64.454.454 0 0 0-.64.64zm8.896 8.896a.454.454 0 0 0 .64-.641.454.454 0 0 0-.64.64zm-8.822-8.969a.349.349 0 1 1 .494-.494.348.348 0 0 1 0 .494.348.348 0 0 1-.494 0zm8.895 8.895a.348.348 0 0 1 0-.494.349.349 0 1 1 0 .494zm-3.573-4.092.47-.96.067-.005.003.004-.418.949-.033.032zm-3.74-4.416.67-.67-.072-.072-.563.563-.193-.437.373-.373-.074-.073-.344.344-.173-.392.388-.388-.073-.073-.36.36-.176-.402.397-.397-.073-.073-.368.369-.112-.253.513-.512-.072-.073-.563.563zm6.926 6.925 1.99.876.562-.563-.073-.073-.513.513-.251-.11.368-.369-.073-.073-.397.397-.401-.177.359-.359-.074-.073-.387.387-.392-.173.344-.343-.073-.073-.373.372-.437-.193.563-.563-.072-.073zm4.882 3.843.11.033-.098-.541-.101.018zm-15.64-15.648.48.088.018-.102-.53-.097zm10.73 10.708 2.879 1.377.124.162v.373l.044.044-.49.489 3.115 1.407.095.148-.138 1.222h.003l.137-1.221-.095-.149-3.113-1.407.489-.489-.044-.044v-.373l-.125-.162-2.878-1.378zm-8.234-8.347.002-.002-1.406-3.112-.149-.095h-.002l.148.095zm.49-.488.042.043h.003l-.043-.044z" color="currentColor" overflow="visible" fill="currentColor" stop-color="currentColor"/>
  <circle cx="39.423" cy="8.731" r=".529" fill="currentColor" stroke="currentColor" stroke-width=".771" stroke-linecap="round" paint-order="markers fill stroke"/>
  <path d="M41.74 8.77h9.525" fill="none" stroke="currentColor" stroke-width=".794" stop-color="currentColor"/>
  <path d="M41.74 12.045h9.525" fill="none" stroke="currentColor" stroke-width=".794" stop-color="currentColor"/>
  <path d="M41.74 15.32h9.525" fill="none" stroke="currentColor" stroke-width=".794" stop-color="currentColor"/>
  <circle cx="39.423" cy="15.346" r=".529" fill="currentColor" stroke="currentColor" stroke-width=".771" stroke-linecap="round" paint-order="markers fill stroke"/>
  <circle cx="39.423" cy="12.039" r=".529" fill="currentColor" stroke="currentColor" stroke-width=".771" stroke-linecap="round" paint-order="markers fill stroke"/>

  <text x="50%" y="93%" font-size="17" alignment="bottom" text-anchor="middle">???</text>

</svg>
