<svg xmlns="http://www.w3.org/2000/svg" viewBox="0 0 67.733 67.733">
  <g color="currentColor" fill="currentColor">
    <path d="m13.825 30.648-.31-2.536.409-.565 7.896-3.854 1.831-.054 1.072-1.072.116.063.932-.932-.013-.166.21-.21-.352-1.025.932-.78-.76-2.626-.137-.037-.233-1.114 1.806-.203.37.237 1.216 2.69.361-.362.212.212h.342l.348.267 1.481 3.095-.148.635-1.013 1.013.387 1.696.512-.511.983-.047.043-.044 1.272-.56.433.433.324.324.433.433-.56 1.272-.044.043-.047.983-.511.512 1.696.387 1.013-1.013.635-.148 3.095 1.48.267.35v.341l.212.212-.362.361 2.69 1.215.237.371-.203 1.806-1.114-.233-.037-.137-2.627-.76-.779.932-1.025-.353-.21.21-.166-.012-.932.932.063.116L35 34.987l-.054 1.831-3.854 7.896-.565.408-2.536-.31.579-2.296.14-.062 2.82-9.52-1.398 1.398-.344-.082-.82.268L27.429 33l.737-1.445.637-.637-.263-.264.178-.179-.247-.247-.061-.061-.247-.247-.179.179-.264-.264-.637.637-1.445.737-1.518-1.538.268-.82-.082-.344 1.399-1.399-9.521 2.82-.062.141zm.346-.504 1.66-.418.058-.131 9.529-2.823.178-.78 1.442-1.442-.001-.002-.359.358-.162-.388 2.079-2.079.745.282.037-.096-.7-.265.02-.097-.419-.083-1.793 1.793.072.073 1.755-1.754.237.048-2.154 2.154.195.47-1.208 1.208.073.073.104-.104-.029.126-.18.18-1.415.376-1.065-1.064.366-1.341.373-.373-.15.005-.315.314-.047.173-.845-.05-1.342.605.018.046a116.412 116.412 0 0 0 .353.884c.013.03.02.047.028.061l.09-.05-.023-.052a44.362 44.362 0 0 1-.175-.433l-.158-.401 1.228-.556.798.047-.315 1.151.253.254-.457.483.075.07.455-.48.338.337-.174.186-3.383.916.026.1 3.413-.924.191-.205.412.413 1.5-.399.084-.083-.072.315-9.194 2.724.48-1.114-.094-.04-.516 1.192-.205.06-.058.131-1.657.418zm.494-.73a.338.338 0 0 0 .476-.476.337.337 0 0 0-.476.477zM29.209 43.96a.338.338 0 0 0 .477-.476.338.338 0 0 0-.477.477zM14.74 29.341a.232.232 0 0 1-.001-.33.233.233 0 1 1 .33.331.233.233 0 0 1-.33 0zm14.544 14.545a.232.232 0 0 1 0-.33.233.233 0 1 1 .33.33.233.233 0 0 1-.33 0zm1.132.815h.002l.355-.256 3.771-7.726.056-1.905.97-.97-.064-.115 1.28-1.28h-.003l-.118.118-.207-.206-.072.073.204.204-.724.724-.23-.22-.072.075.231.22-.292.292.064.114-.97.97-.005.191-.384.384-1.341.366L31.8 34.69l.376-1.416.161-.162-.188.043-.066.066-.398 1.5.412.412-.205.191-.923 3.413.1.027.916-3.384.185-.174.338.338-.48.456.07.075.483-.458.253.253 1.15-.315.048.798-.555 1.229-.401-.159a43.323 43.323 0 0 1-.486-.199l-.05.091a10.044 10.044 0 0 0 .177.075 45.92 45.92 0 0 0 .768.306l.046.018.606-1.341-.05-.845.173-.048.325-.325-.046 1.564-3.77 7.726zm-1.305-2.176 1.173-.508-.04-.095-1.095.473zM17.09 28.947l2.383-.71-.08-.203.178-.09-.198-.638-.245-.052-.014.066-.047-.12-.071.029-.075-.22-1.923.692-.136.32-.005-.017-.098.035zm12.588 12.588.907.33.035-.097-.016-.006.32-.135.69-1.924-.219-.075.028-.071-.12-.047.067-.014-.051-.244-.64-.199-.088.178-.204-.08zM17.153 28.82l-.005-.013.087-.032-.267-.737.107-.254 1.782-.64.354 1.04.099-.034-.117-.344.143.367zm12.652 12.652.648-2.182.364.142-.341-.116-.034.098 1.04.354-.64 1.782-.254.107-.738-.266-.031.086zm-10.45-13.535-.226-.577.163.035.154.497zM30.688 39.27l.045-.091.497.155.035.162zm-4.97-8.556v.001l1.125-.573.876-.876-.001-.002-.815.815-1.798-1.797-.073.072 1.795 1.795-.74.376.254-.253.009.01.24-.24-1.301-1.3-.221.22-.023-.023-.148.148-.121-.121-.037.11.094.094-.184.184-.069.21.003.002.396-.396-.009-.01.093-.092 1.167 1.167-.442.443zm2.213 2.214.074.073.214-.214.947.946-.209.209.074.072.28-.281-1.092-1.093zm-2.234-2.235.288-.287-1.092-1.092-.282.28.073.074.208-.208.947.946-.214.214zm3.362 3.35.016.015.693-.226h-.002l-.094.03-.134-.134.147-.148-.022-.022.22-.221-1.3-1.3-.239.239.01.009-.215.214-.153.3.404-.404 1.168 1.168-.093.092-.01-.009zm.187-.041.21-.21.106.107zm.756-.116h.002l1.3-1.3-.135-.135.196-.197-.11-.11.624-.625 1.703-.424-1.706.424-.456.457-.088-.088 2.491-2.491-.073-.074-2.564 2.565.16.16-.094.096.11.11-.049.05-.176-.177-.493-1.226.008.008.604-.604-.19-.19 1.951-1.95-.035-.036 2.457.56-2.624-.599.918-.918.046-.983.101-.101.419-.95-.237-.236-.325-.325-.237-.237-.01.005-.003.055-.962.47-.015-.07-.06.06-.033.001.016.068-1.188 1.188.29.29-.007.006-.14-.024-.452.452.22.22.462-.442-.023-.126.012-.013.394.393.145.145-.013.013-.126-.024-.442.463.22.22.452-.453-.024-.14.006-.006.29.29 1.188-1.188.079.018-.008.162-.546.5.003.027a.37.37 0 0 0 .084.21c.055.058.146.083.27.062l-.017-.102c-.105.018-.15 0-.179-.03-.024-.026-.036-.077-.046-.132l.424-.388-.03.652-.854.853-.48-.481-1.333 1.332.32.32-.697.696-.25-.25-.073.073.485.485-.233.234-.826-.826 1.413-1.4-.036-.036.124-.562.017-.017-.011-.01-.265-.266-.018.018-.561.123-.035-.035-1.4 1.413-.826-.826.233-.234.486.486.073-.073-.25-.25.696-.697.32.319 1.332-1.332-.47-.469-.063.064-.6-2.627 1.09-1.089.089-.385-1.378-2.879-.162-.124h-.003l.162.124 1.378 2.879-.09.385-.997.997.73-.73-.276-.619-.095.043.247.553-.712.712-.92-.363-.038.097.984.387-.011.012.56 2.457-.046-.046-1.95 1.951-.19-.19-.604.605.008.007-1.226-.492-.165-.164-.073.072.18.18 1.378.554.326.789-2.177-.873-.237-.237.084-.084-.04-.113-.082.08.002.006-.442.443-.006-.002-.09.09.131.023.37-.37.252.251 2.241.9-.33.33.073.074.148-.148.089.088-.149.148.002.002.178-.18.534.534.06.061.534.534-.03.03.076.076-.149.148.074.074.33-.33.9 2.24.252.252-.37.37.025.153-.042.042-1.797-1.797-.061.062-.008.015 1.793 1.793zm-4.843-4.868.13-.13 1.154 1.154-.13.13zm3.295 3.294.13-.13 1.153 1.154-.13.13zM30.49 33.4l-.005-.027.442-.443.024.009zm-6.767-7.379c.143.144.368.16.511.034l.022.021.93-.93.004-.017c.033-.18.027-.34-.064-.452-.091-.112-.257-.157-.501-.13l-.019.002-.952.952.023.023a.378.378 0 0 0 .046.497zm8.882 8.883c.14.139.354.157.497.045l.024.023.952-.952.002-.018c.026-.245-.019-.41-.13-.502-.113-.09-.273-.097-.453-.064l-.016.004-.93.93.02.022c-.125.144-.11.368.034.512zm-8.809-8.956c-.113-.114-.12-.284-.02-.383.1-.1.27-.095.384.019.113.113.119.285.02.384-.1.1-.27.093-.384-.02zm8.882 8.882c-.113-.113-.119-.284-.02-.383.1-.1.271-.094.385.02.113.113.118.284.019.383-.1.1-.27.094-.384-.02zm-2.099-2.173-.872-2.176.789.326.554 1.378.191.191-.074.075.136.135-.271.272-.132-.047-.083.083zm-6.672-7.262.742-.742c.214-.02.338.016.397.089.06.072.069.198.041.357l-.738.738a.399.399 0 0 0-.116-.326.398.398 0 0 0-.326-.116zm8.882 8.883.738-.739c.16-.027.285-.018.358.041.072.06.108.183.089.398l-.742.742a.399.399 0 0 0-.117-.327.398.398 0 0 0-.326-.115zm-6.737-6.942.135.134v-.001l-.133-.135zm-.28-.292.281-.282.137.136.195-.195.111.11.26-.26.342-1.374-.058-.057-1.075 1.075zm5.824 5.825.847-.194 1.075-1.075-.057-.057-1.375.341-.26.26.111.11-.195.196.136.137zm-3.479-3.653.186-.186-.396-.96-.008-.02-.08-.031.503-.504.19.19 1.95-1.95.475.474-1.186 1.186-.32-.32-.77.77-.191-.191-.036.036-.043-.043-.344.343.899.9-.565.57zm.336.336 1.966-1.983.508.507.13.131-1.983 1.966-.274-.274zm.694.694.57-.565.9.899.343-.344-.044-.043.037-.036-.192-.192.77-.77-.32-.32 1.186-1.185.475.475-1.95 1.95.189.189-.503.503-.024-.06-.008-.02-.98-.404-.186.186zm-2.763-2.97.11.108v-.001l-.108-.109zm5.997 5.894.073.073 1.208-1.208.47.196 2.154-2.155.047.238-1.754 1.754.073.073 1.794-1.794-.084-.418-.097.02-.264-.7-.098.036.283.745-2.08 2.078-.37-.154-1.089 1.09-.18.04zm-8.616-8.693.073.073 1.377-1.376-.073-.073zm10.311 10.311.073.073 1.377-1.376-.073-.073zM26.59 27.29l.149.149 2.564-2.565-.073-.073-2.492 2.491-.076-.075zm.704.467.073.073.696-.695-.249-.248 1.934-1.934-.073-.072-2.006 2.006.247.248zm3.501 3.501.073.073.622-.623.248.249 2.007-2.007-.073-.072-1.934 1.933-.248-.248zm-6-8.188.112.063.001-.001-.113-.063zm.542.09.82.819 1.051-1.052-.871-.871-.074.073.799.798-.906.906-.746-.746zm9.31 9.309.819.819.072-.073-.746-.746.906-.906.798.799.074-.073-.872-.872zm-9.239-9.408.075-.072-.21-.22-.072.073zm1.828 1.488.41.411.074-.073-.205-.205.479-.479-.074-.073-.479.479-.132-.133zm6.43 6.43.41.41.073-.072-.133-.133.48-.48-.074-.072-.479.479-.205-.205zm-8.114-8.186.073.073.464-.463-.074-.073zM35.758 33l.073.073.463-.463-.073-.073zm-5.218-5.456.47-.104.174.174-.103.47-.082-.082zm-2.52-3.2.284.283.037.037.405-.406-.32-.32zm5.94 5.94.321.32.406-.405-.321-.321-.369.369zm-5.794-5.94.26-.26.174.174-.26.26zm5.94 5.94.26-.26.175.175-.26.26zm-8.11-8.239.195.195.072-.073-.194-.194zm5.086 4.794.34-.34.07.012.015.07-.35.334zm.628.628.333-.35.07.014.013.071-.341.34zm-5.317-5.542.073.074 3.092-3.092-.073-.074-1.282 1.282-1.14-3.108-.097.035 1.148 3.132.047-.017-.73.73.014-.032a.32.32 0 0 0-.178-.005c-.026.004-.03.006-.047.01l-.325-1.104-.087.072.2.68-.666.655.037.109.663-.651.108.366.05-.016s.037-.012.084-.02a.376.376 0 0 1 .087-.004zm10.233 10.233.073.074.978-.978a.371.371 0 0 1-.004.087.675.675 0 0 1-.02.083l-.015.05.366.108-.658.67.109.037.661-.673.698.205-.607.727.002.001.77-.921h-.003l-.09.107-1.122-.33c.004-.018.006-.021.01-.047a.32.32 0 0 0-.005-.178l-.031.013.73-.73-.018.048 3.132 1.148.036-.097-3.109-1.14 1.282-1.282-.073-.074zm.322.304h.003l.257-.257-.002-.001zm-8.644-8.664.073.072.407-.407.186.186.073-.073-.398-.398-.073.073.14.14zm6.45 6.45.073.072.407-.407.14.14.072-.073-.398-.398-.072.073.185.185zm-3.363-4.133.212-.213.21.21-.207.218zm.288.288.207-.218.382.382.171.171-.217.208-.148-.148zm.615.615.218-.207.21.21-.213.212zm-.617-1.189.223-.223-.005.063.314.027-.325.341zm.28.281.366-.383.517.517.058.058-.384.365-.173-.173zm.63.63.341-.325.028.315.062-.005-.223.223zm3.24 2.91.097-.038-.363-.92.712-.712.554.247.043-.094-.604-.269-.819.82zm-4.312-4.335a.37.37 0 0 0 .21.084l.028.004.488-.535-.146.007-.377.413c-.055-.01-.107-.023-.132-.048-.03-.028-.048-.073-.03-.177l-.103-.018c-.02.124.004.214.062.27zm.422.254.581-.582.029-.013.031.334-.277.292zm1.118 1.118-.031-.363.292-.278.335.031-.014.029zm-.66-1.035.291-.307-.04-.41-.025.002.923-.452.542.542.053.053-.452.923.003-.025-.41-.04-.307.292-.06-.06zm-4.035-4.283a.454.454 0 0 0 .64-.64.454.454 0 0 0-.64.64zm8.895 8.896a.454.454 0 0 0 .64-.641.454.454 0 0 0-.64.64zm-8.822-8.97a.349.349 0 1 1 .494-.493.348.348 0 0 1 0 .494.348.348 0 0 1-.494 0zm8.896 8.896a.348.348 0 0 1 0-.494.349.349 0 1 1 0 .494zM33.756 26.1l.47-.961.066-.004.004.004-.419.949-.032.032zm-3.74-4.416.67-.67-.072-.072-.563.563-.193-.438.372-.372-.073-.073-.344.344-.173-.393.387-.387-.072-.073-.36.36-.176-.402.397-.397-.073-.073-.369.369-.11-.253.512-.513-.073-.072-.563.562zm6.925 6.925 1.99.876.563-.563-.074-.073-.512.513-.252-.111.368-.368-.073-.073-.396.397-.402-.177.36-.36-.074-.073-.387.388-.392-.173.344-.343-.074-.074-.372.373-.437-.193.563-.563-.073-.073zm4.883 3.843.11.032-.098-.54-.102.018zm-15.64-15.648.48.087.018-.101-.53-.097zm10.73 10.708 2.878 1.377.125.162v.373l.043.044-.489.489 3.114 1.407.095.148-.137 1.222h.003l.137-1.222-.095-.148-3.114-1.407.49-.49-.045-.043v-.373l-.124-.162-2.879-1.378zm-8.235-8.347.002-.002-1.406-3.112-.148-.095h-.002l.147.095zm.49-.488.043.042h.003l-.044-.043z" overflow="visible" stop-color="currentColor"/>
    <path d="M43.792 5.158c-4.36.147-8.337 3.516-9.214 7.787-.977 4.09 1.017 8.634 4.662 10.716 3.62 2.216 8.624 1.702 11.723-1.197 3.16-2.774 4.187-7.64 2.396-11.448-1.61-3.674-5.555-6.106-9.567-5.858Zm.52 2.84c3.473-.069 6.685 2.779 7.019 6.239a7.15 7.15 0 0 1-1.116 4.765l-9.834-9.834a7.171 7.171 0 0 1 3.93-1.17zm3.884 13.02c-2.865 1.97-7.118 1.377-9.315-1.324-2.032-2.31-2.241-5.966-.516-8.507l9.831 9.832z" overflow="visible" paint-order="markers fill stroke" stop-color="currentColor"/>
  </g>
  <text x="50%" y="93%" font-size="12" alignment="bottom" text-anchor="middle">hold fire</text>

</svg>
