<svg xmlns="http://www.w3.org/2000/svg" viewBox="0 0 67.733 67.733">
  <path d="M29.098 5.471a.938.91 0 0 0-.654.259L10.798 22.398a.938.91 0 0 0-.284.651v3.732a.938.91 0 0 0 .938.91h44.716a.938.91 0 0 0 .938-.91v-3.732a.938.91 0 0 0-.283-.651L39.176 5.73a.938.91 0 0 0-.654-.259Zm1.436 1.82h6.75l-3.375 3.273Zm-.794.195 3.671 3.56-13.766 13.352Zm8.213.12 9.753 16.34-13.3-12.9Zm-9.474.63L17.953 25.871h-5.562v-2.438Zm10.663.001L55.23 23.433v2.438h-5.54l-.057-.055zm-5.234 3.291 14.79 14.343H19.119Z" color="currentColor" overflow="visible" fill="currentColor" stop-color="currentColor"/>
  <path d="M5.957 4.501H61.52v37.042H5.957z" fill="none"/>
  <path d="M28.917 29.291a.626.557 0 0 0-.629.557v3.154h-1.46a.626.557 0 0 0-.626.56v1.299h-3.547a.626.557 0 0 0-.629.556.626.557 0 0 0 .63.556h3.546v2.598h-3.547a.626.557 0 0 0-.629.56.626.557 0 0 0 .63.556h3.546v1.3a.626.557 0 0 0 .626.556h1.46V44.7a.626.557 0 0 0 .629.557.626.557 0 0 0 .626-.557v-3.157h3.756V44.7a.626.557 0 0 0 .625.557.626.557 0 0 0 .626-.557v-3.157h4.175V44.7a.626.557 0 0 0 .626.557.626.557 0 0 0 .629-.557v-3.157h1.46a.626.557 0 0 0 .626-.557v-1.298h3.547a.626.557 0 0 0 .628-.557.626.557 0 0 0-.628-.56h-3.547v-2.598h3.547a.626.557 0 0 0 .628-.556.626.557 0 0 0-.628-.556h-3.547v-1.3a.626.557 0 0 0-.626-.559h-1.46v-3.154a.626.557 0 0 0-.629-.557.626.557 0 0 0-.626.557v3.154h-3.756v-3.154a.626.557 0 0 0-.626-.557.626.557 0 0 0-.625.557v3.154h-4.175v-3.154a.626.557 0 0 0-.626-.557zm0 5.014H39.35a1.252 1.114 0 0 1 1.254 1.112v3.714a1.252 1.114 0 0 1-1.254 1.113H28.917a1.252 1.114 0 0 1-1.254-1.113v-3.714a1.252 1.114 0 0 1 1.254-1.112z" color="currentColor" overflow="visible" fill="currentColor" stop-color="currentColor"/>
  <path d="M60.095 31.57v5.698h-8.548" fill="none" stroke="currentColor" stroke-width="1.71" stroke-linecap="round" stroke-linejoin="round"/>
  <path d="M7.382 31.57v5.698h8.548" fill="none" stroke="currentColor" stroke-width="1.71" stroke-linecap="round" stroke-linejoin="round"/>

  <text x="50%" y="93%" font-size="12" alignment="bottom" text-anchor="middle">flight assist</text>
</svg>
