<svg xmlns="http://www.w3.org/2000/svg" viewBox="0 0 67.733 67.733">
  <g stroke-width="1.483" fill="currentColor" paint-order="markers fill stroke">
    <g transform="matrix(.79023 0 0 .81844 7.481 -.158)">
      <circle cx="34.16" cy="13.04" r="6.331"/>
      <path d="M23.283 21.166a2.112 2.112 0 0 0-2.117 2.117v11.642c0 1.172.944 2.116 2.117 2.116h20.902a2.112 2.112 0 0 0 2.116-2.116V23.283a2.112 2.112 0 0 0-2.116-2.117zm2.646 6.615h1.06v9.26h-1.06zm14.55 0h1.06v9.26h-1.06z"/>
    </g>
    <g transform="matrix(.79023 0 0 .81844 -11.23 14.663)">
      <circle cx="34.16" cy="13.04" r="6.331"/>
      <path d="M23.283 21.166a2.112 2.112 0 0 0-2.117 2.117v11.642c0 1.172.944 2.116 2.117 2.116h20.902a2.112 2.112 0 0 0 2.116-2.116V23.283a2.112 2.112 0 0 0-2.116-2.117zm2.646 6.615h1.06v9.26h-1.06zm14.55 0h1.06v9.26h-1.06z"/>
    </g>
    <g transform="matrix(.79023 0 0 .81844 25.44 14.663)">
      <circle cx="34.16" cy="13.04" r="6.331"/>
      <path d="M23.283 21.166a2.112 2.112 0 0 0-2.117 2.117v11.642c0 1.172.944 2.116 2.117 2.116h20.902a2.112 2.112 0 0 0 2.116-2.116V23.283a2.112 2.112 0 0 0-2.116-2.117zm2.646 6.615h1.06v9.26h-1.06zm14.55 0h1.06v9.26h-1.06z"/>
    </g>
  </g>
  <text x="50%" y="93%" font-size="17" alignment="bottom" text-anchor="middle">???</text>

</svg>
