<svg xmlns="http://www.w3.org/2000/svg" viewBox="0 0 67.733 67.733">
  <path d="M24.941 19.35a4.716 4.855 0 0 0-4.709 4.859v140.252a4.716 4.855 0 0 0 4.71 4.851h204.322a4.716 4.855 0 0 0 4.718-4.851V24.209a4.716 4.855 0 0 0-4.718-4.86zm4.72 9.718h194.894v130.536H29.66ZM56.228 35v6.205H35.236v1.074H56.23v15.506c.347-.147.694-.295 1.044-.435V42.28h22.532v9.751c.348-.04.696-.074 1.045-.111v-9.64h22.53v8.775c.349.007.696.016 1.044.025v-8.8h22.533v10.58c.348.045.695.096 1.043.144V42.279h22.531v15.06c.349.088.697.18 1.045.268V42.28h22.531v16.453h-18.304c1.255.349 2.509.703 3.758 1.075h14.546v4.941c.35.123.696.251 1.043.377v-5.318h22.534v16.455h-9.688c-.087.36-.223.722-.424 1.082h10.112v5.625c.352.224.694.463 1.043.693v-6.318h19.878v-1.082h-19.878V59.807h19.878v-1.075h-19.878V42.28h19.878v-1.074h-19.878V35h-1.043v6.205H175.15V35h-1.043v6.205h-22.53V35h-1.046v6.205H128V35h-1.043v6.205h-22.533V35h-1.043v6.205H80.85V35h-1.045v6.205H57.273V35Zm118.921 7.28h22.534v16.452H175.15zM35.236 58.731v1.075h16.692c.71-.371 1.423-.735 2.146-1.075zm45.614 13.58c-.348.111-.7.21-1.045.33v3.62h-7.26c-.483.339-.952.7-1.412 1.083h8.672v.365a15.626 15.626 0 0 1 1.591-1.447h-.546zm-45.614 3.95v1.083h2.244c.055-.362.105-.724.18-1.082zm115.295 8.503v9.035h-1.85c.189.35.358.708.51 1.074h1.34v12.818c.35-.05.696-.108 1.045-.164V94.873h12.492a30.406 30.406 0 0 0-.945-1.074h-11.547v-8.483c-.349-.182-.693-.376-1.045-.552zM35.236 93.799v1.074h8.274a32.15 32.15 0 0 1-.836-1.074zm39.657 0c.437.363.87.728 1.324 1.074h2.338c-.242-.349-.465-.71-.68-1.074Zm135.5 0c.294.353.584.71.867 1.074h7.345v-1.074ZM79.805 96.467v.935c.35.232.696.463 1.045.69v-.487c-.361-.367-.71-.747-1.045-1.138zM56.229 105.7v5.625H35.236v1.074H56.23v16.455H35.236v1.083H56.23v16.455H35.236v1.074H56.23v6.203h1.044v-6.203h22.532v6.203h1.045v-6.203h22.53v6.203h1.044v-6.203h22.533v6.203H128v-6.203h22.531v6.203h1.045v-6.203h22.531v6.203h1.043v-6.203h22.534v6.203h1.043v-6.203h19.878v-1.074h-19.878v-13.606c-.348.15-.694.305-1.043.447v13.159H175.15v-7.83c-.347.043-.694.09-1.043.13v7.7h-22.53v-6.961c-.35-.016-.697-.045-1.046-.063v7.024H128v-9.664c-.348-.063-.695-.132-1.043-.196v9.86h-22.533V130.76c-.348-.154-.7-.298-1.043-.467v16.1H80.85v-16.456h21.921a21.577 21.577 0 0 1-1.658-1.082H80.85v-11.08c-.348-.127-.698-.247-1.045-.377v11.457H57.273V112.4h10.832c-.73-.354-1.463-.704-2.187-1.074h-8.645v-4.963c-.349-.22-.697-.438-1.044-.662zm129.63 5.625c-.302.37-.62.727-.945 1.074h2.486c.227-.345.433-.7.602-1.074zm31.385 0a19.93 19.93 0 0 1-.086 1.074h1.448v-1.074zm-42.094 7.565c-.346.144-.692.29-1.043.425v1.164c.35-.11.698-.222 1.043-.34zm30.844 9.964c-.553.376-1.119.735-1.693 1.083h14.304v-1.083zm-148.72 1.083h22.53v16.455h-22.53z" transform="scale(.26458)" color="currentColor" overflow="visible" fill="currentColor" stop-color="currentColor"/>
  <path d="M34.177 15.67a22.081 8.348 8.85 0 0-22.706 5.074 22.081 8.348 8.85 0 0 20.972 11.551 22.081 8.348 8.85 0 0 8.476.606 20.534 7.763 8.85 0 1-5.08-.506 20.534 7.763 8.85 0 1-19.503-10.742 20.534 7.763 8.85 0 1 21.115-4.718 20.534 7.763 8.85 0 1 10.308 2.641 22.081 8.348 8.85 0 0-13.582-3.905Zm2.995 2.74a19.792 8.252 8.934 0 0-12.538.016 18.405 7.674 8.934 0 1 2.3-.147 13.995 6.019 11.009 0 0-.144.023 13.015 5.597 11.009 0 1 .525-.032 18.405 7.674 8.934 0 1 3.897.125 13.015 5.597 11.009 0 1 2.252.326 13.015 5.597 11.009 0 1 12.04 7.904 13.015 5.597 11.009 0 1-13.553 3.203 13.015 5.597 11.009 0 1-3.162-.76 13.995 6.019 11.009 0 0 5.236 1.433A13.995 6.019 11.009 0 0 48.6 27.057a13.995 6.019 11.009 0 0-4.028-5.322 18.405 7.674 8.934 0 1 6.927 7.321 18.405 7.674 8.934 0 1-18.996 4.951 18.405 7.674 8.934 0 1-4.506-.91 19.792 8.252 8.934 0 0 7.471 1.748 19.792 8.252 8.934 0 0 20.427-5.324 19.792 8.252 8.934 0 0-18.723-11.11zm-6.314 1.903a8.944 3.803 8.988 0 0-9.186 2.483 8.944 3.803 8.988 0 0 6.918 4.814 6.423 2.819 9.018 0 0 2.923.76 6.423 2.819 9.018 0 0 6.644-1.866 6.423 2.819 9.018 0 0-6.06-3.748 6.423 2.819 9.018 0 0-6.644 1.866 6.423 2.819 9.018 0 0 .908 1.718 8.317 3.537 8.988 0 1-2.72-3.166 8.317 3.537 8.988 0 1 8.593-2.302 8.317 3.537 8.988 0 1 4.169 1.125 8.944 3.803 8.988 0 0-5.491-1.676 8.944 3.803 8.988 0 0-.054-.007z" fill="currentColor" paint-order="markers fill stroke"/>

  <text x="50%" y="93%" font-size="12" alignment="bottom" text-anchor="middle">galaxy map</text>
</svg>
