<svg xmlns="http://www.w3.org/2000/svg" viewBox="0 0 67.733 67.733">
  <path d="M127.588 20.676c-.51 0-1.018.016-1.524.039-39.98.806-72.258 33.115-73.025 73.105a31.36 31.36 0 0 0-.037 1.451c0 .486.015.968.037 1.45.767 39.99 33.044 72.292 73.025 73.097.506.024 1.014.04 1.524.04s1.017-.016 1.523-.04c39.981-.805 72.261-33.107 73.028-73.097.022-.482.037-.964.037-1.45 0-.485-.015-.969-.037-1.45-.767-39.99-33.047-72.3-73.028-73.106a33.23 33.23 0 0 0-1.523-.04zm0 4.185c1.607 0 3.624 1.341 5.752 4.72 2.128 3.377 4.177 8.53 5.89 14.962.316 1.184.616 2.424.909 3.691-4.084-.438-8.272-.68-12.551-.68-4.276 0-8.46.24-12.541.678.293-1.267.593-2.506.908-3.689 1.714-6.432 3.755-11.585 5.883-14.963 2.128-3.378 4.143-4.719 5.75-4.719zm-8.457 1.262c-.282.396-.56.8-.828 1.227-2.494 3.959-4.611 9.427-6.393 16.115-.453 1.7-.883 3.48-1.289 5.332-6.816 1.007-13.274 2.607-19.238 4.72 1.41-2.98 2.958-5.788 4.64-8.376 6.3-9.693 14.288-16.382 23.108-19.018zm16.914 0c8.821 2.636 16.809 9.324 23.11 19.018 1.681 2.587 3.228 5.393 4.638 8.373-5.964-2.113-12.422-3.71-19.236-4.717a123.646 123.646 0 0 0-1.29-5.332c-1.781-6.688-3.898-12.156-6.392-16.115a25.83 25.83 0 0 0-.83-1.227zm-30.178 2.164c-5.016 3.731-9.524 8.695-13.35 14.58-2.522 3.881-4.75 8.181-6.66 12.807-3.806 1.641-7.371 3.5-10.642 5.558-6.1 3.839-11.202 8.398-14.98 13.479 6.69-21.972 23.824-39.365 45.632-46.424zm43.44 0c21.806 7.057 38.942 24.445 45.634 46.414-3.776-5.077-8.875-9.632-14.97-13.469-3.273-2.06-6.843-3.918-10.653-5.56-1.91-4.625-4.136-8.924-6.658-12.805-3.825-5.886-8.337-10.849-13.353-14.58zm-21.72 23.445c4.612 0 9.115.287 13.477.815 1.386 7.027 2.423 15.107 3.055 23.832a300.093 300.093 0 0 0-16.531-.463c-5.694 0-11.208.17-16.53.463.634-8.725 1.675-16.805 3.061-23.832 4.36-.527 8.86-.815 13.469-.815zm-17.847 1.426c-1.323 7.035-2.302 14.969-2.898 23.479-8.438.594-16.214 1.551-23.113 2.789 1.09-7.362 2.915-14.28 5.35-20.549 6.26-2.545 13.212-4.506 20.661-5.719zm35.698 0c7.448 1.213 14.401 3.174 20.662 5.719 2.434 6.268 4.258 13.187 5.35 20.549-6.9-1.238-14.678-2.195-23.116-2.79-.596-8.509-1.573-16.443-2.897-23.478zm-61.67 8.102c-1.998 5.922-3.497 12.289-4.395 18.988-1.207.253-2.393.512-3.531.783-6.677 1.59-12.126 3.475-16.078 5.7a26.53 26.53 0 0 0-1.471.89c2.518-8.712 9.256-16.624 19.143-22.846a70.726 70.726 0 0 1 6.332-3.515zm87.642 0a70.704 70.704 0 0 1 6.33 3.515c9.886 6.222 16.625 14.134 19.143 22.846a26.23 26.23 0 0 0-1.469-.89c-3.952-2.225-9.402-4.11-16.078-5.7-1.138-.27-2.324-.53-3.531-.783-.898-6.7-2.397-13.066-4.395-18.988zm-43.822 18.834c5.803 0 11.416.182 16.818.492a266.424 266.424 0 0 1 .002 29.363 293.49 293.49 0 0 1-16.82.492c-5.803 0-11.416-.183-16.818-.492a265.543 265.543 0 0 1-.403-14.678c0-5.034.142-9.944.404-14.685 5.403-.31 11.014-.492 16.817-.492zm-21.025.75c-.249 4.666-.381 9.488-.381 14.427s.132 9.756.38 14.42c-8.625-.627-16.518-1.633-23.39-2.921-.397-3.743-.613-7.58-.613-11.499 0-3.917.216-7.757.613-11.5 6.872-1.289 14.765-2.299 23.39-2.927zm42.05 0c8.626.628 16.521 1.638 23.393 2.927.396 3.743.611 7.583.611 11.5 0 3.919-.215 7.756-.611 11.499-6.872 1.288-14.767 2.294-23.393 2.921a271.522 271.522 0 0 0 0-28.847zm-69.732 3.785c-.325 3.477-.5 7.029-.5 10.642 0 3.614.175 7.164.5 10.641-.702-.154-1.398-.308-2.072-.469-6.444-1.534-11.608-3.373-14.993-5.279-3.385-1.905-4.636-3.695-4.636-4.893 0-1.197 1.251-2.996 4.636-4.902 3.385-1.905 8.55-3.737 14.993-5.271.674-.16 1.37-.315 2.072-.47zm97.414 0c.702.154 1.4.308 2.074.469 6.444 1.534 11.615 3.366 15 5.271 3.385 1.906 4.627 3.705 4.627 4.902 0 1.198-1.242 2.988-4.627 4.893-3.385 1.906-8.556 3.745-15 5.28-.674.16-1.372.314-2.074.468a114.2 114.2 0 0 0 .502-10.64c0-3.614-.177-7.166-.502-10.643zM58.293 102.922c.47.306.96.6 1.47.889 3.953 2.224 9.402 4.11 16.079 5.699 1.138.27 2.324.53 3.531.783.898 6.7 2.397 13.066 4.395 18.988a70.65 70.65 0 0 1-6.332-3.515c-9.886-6.222-16.625-14.133-19.143-22.844zm138.59 0c-2.518 8.71-9.257 16.622-19.143 22.844a70.629 70.629 0 0 1-6.33 3.515c1.998-5.922 3.497-12.288 4.395-18.988 1.207-.252 2.393-.512 3.53-.783 6.677-1.59 12.127-3.475 16.08-5.7.51-.287.999-.582 1.468-.888zm-113.154 8.193c6.899 1.237 14.675 2.19 23.113 2.783.596 8.511 1.575 16.446 2.898 23.48-7.448-1.21-14.4-3.17-20.66-5.714-2.435-6.268-4.26-13.187-5.351-20.549zm87.72 0c-1.091 7.362-2.916 14.28-5.351 20.55-6.26 2.543-13.214 4.502-20.662 5.714 1.323-7.035 2.302-14.97 2.898-23.48 8.438-.594 16.216-1.547 23.115-2.784zm-60.39 3.041c5.32.293 10.835.463 16.529.463 5.694 0 11.211-.17 16.533-.463-.632 8.725-1.67 16.805-3.057 23.832a112.38 112.38 0 0 1-13.476.813c-4.61 0-9.108-.286-13.469-.813-1.387-7.027-2.427-15.107-3.06-23.832zm-50.827 1.668c3.779 5.08 8.883 9.638 14.983 13.477 3.27 2.058 6.835 3.917 10.64 5.558 1.911 4.629 4.139 8.932 6.663 12.815 3.827 5.888 8.338 10.852 13.357 14.582-21.814-7.058-38.953-24.454-45.643-46.432zm134.711.01c-6.692 21.974-23.832 39.368-45.644 46.424 5.02-3.73 9.533-8.695 13.361-14.584 2.523-3.882 4.752-8.184 6.662-12.81 3.81-1.643 7.377-3.504 10.649-5.563 6.096-3.837 11.196-8.39 14.972-13.467zM91.385 137.021c5.964 2.116 12.422 3.714 19.238 4.721.406 1.85.835 3.63 1.287 5.328 1.782 6.688 3.899 12.154 6.393 16.114.27.429.55.836.834 1.234-8.823-2.637-16.812-9.328-23.114-19.023-1.681-2.588-3.228-5.395-4.638-8.374zm72.406.002c-1.41 2.979-2.955 5.785-4.637 8.372-6.301 9.695-14.292 16.386-23.115 19.023.284-.398.566-.805.836-1.234 2.494-3.96 4.61-9.426 6.393-16.114.452-1.698.88-3.478 1.287-5.328 6.814-1.007 13.272-2.605 19.236-4.719zm-48.742 5.284c4.08.438 8.264.68 12.539.68 4.278 0 8.466-.241 12.549-.68a115.588 115.588 0 0 1-.907 3.685c-1.713 6.432-3.762 11.585-5.89 14.963-2.128 3.378-4.145 4.725-5.752 4.725-1.607 0-3.622-1.347-5.75-4.725-2.128-3.378-4.17-8.53-5.883-14.963-.315-1.18-.614-2.42-.906-3.685z" transform="scale(.26458)" color="currentColor" overflow="visible" fill="currentColor" paint-order="markers fill stroke" stop-color="currentColor"/>
  <text x="50%" y="93%" font-size="12" alignment="bottom" text-anchor="middle">???</text>

</svg>
