<svg xmlns="http://www.w3.org/2000/svg" viewBox="0 0 67.733 67.733">
  <path d="M6.717 5.224A1.248 1.285 0 0 0 5.47 6.51v37.108a1.248 1.285 0 0 0 1.246 1.284h54.06a1.248 1.285 0 0 0 1.249-1.284V6.51a1.248 1.285 0 0 0-1.249-1.286Zm1.249 2.572H59.53v34.537H7.966Zm7.03 1.57v1.641H9.44v.284h5.554v4.353H9.441v.285h5.554v4.353H9.441v.287h5.554v4.353H9.441v.285h5.554v4.353H9.441v.284h5.554v4.354H9.441v.286h5.554v4.354H9.441v.284h5.554v1.641h.277v-1.64h5.961v1.64h.276v-1.64h5.962v1.64h.276v-1.64h5.962v1.64h.276v-1.64h5.961v1.64h.276v-1.64h5.962v1.64h.276v-1.64h5.962v1.64h.276v-1.64h5.26v-.285h-5.26v-4.354h5.26v-.286h-5.26v-4.354h5.26v-.284h-5.26v-4.353h5.26v-.285h-5.26V20.57h5.26v-.287h-5.26V15.93h5.26v-.285h-5.26v-4.353h5.26v-.284h-5.26V9.365h-.276v1.642H46.46V9.365h-.276v1.642h-5.962V9.365h-.276v1.642h-5.961V9.365h-.276v1.642h-5.962V9.365h-.276v1.642h-5.962V9.365h-.276v1.642h-5.961V9.365Zm.276 1.925h5.961v4.353h-5.961zm6.237 0h5.962v4.353h-5.962zm6.238 0h5.962v4.353h-5.962zm6.238 0h5.961v4.353h-5.961zm6.237 0h5.962v4.353h-5.962zm6.238 0h5.962v4.353H46.46zM15.272 15.93h5.961v4.353h-5.961zm6.237 0h5.962v4.353h-5.962zm6.238 0h5.962v4.353h-5.962zm6.238 0h5.961v4.353h-5.961zm6.237 0h5.962v4.353h-5.962zm6.238 0h5.962v4.353H46.46Zm-31.188 4.64h5.961v4.353h-5.961zm6.237 0h5.962v4.353h-5.962zm6.238 0h5.962v4.353h-5.962zm6.238 0h5.961v4.353h-5.961zm6.237 0h5.962v4.353h-5.962zm6.238 0h5.962v4.353H46.46zm-31.188 4.638h5.961v4.353h-5.961zm6.237 0h5.962v4.353h-5.962zm6.238 0h5.962v4.353h-5.962zm6.238 0h5.961v4.353h-5.961zm6.237 0h5.962v4.353h-5.962zm6.238 0h5.962v4.353H46.46zm-31.188 4.637h5.961v4.354h-5.961zm6.237 0h5.962v4.354h-5.962zm6.238 0h5.962v4.354h-5.962zm6.238 0h5.961v4.354h-5.961zm6.237 0h5.962v4.354h-5.962zm6.238 0h5.962v4.354H46.46zm-31.188 4.64h5.961v4.354h-5.961zm6.237 0h5.962v4.354h-5.962zm6.238 0h5.962v4.354h-5.962zm6.238 0h5.961v4.354h-5.961zm6.237 0h5.962v4.354h-5.962zm6.238 0h5.962v4.354H46.46z" color="currentColor" overflow="visible" fill="currentColor" stop-color="currentColor"/>
  <text x="50%" y="93%" font-size="17" alignment="bottom" text-anchor="middle">???</text>

</svg>
