<svg xmlns="http://www.w3.org/2000/svg" viewBox="0 0 67.733 67.733">
  <path d="M106.14 38.488a4.317 4.317 0 0 0-3.019 1.235L89.777 52.81h7.221v5.015l6.295-6.174-6.295 10.95v6.492l12.088-21.028 16.832 16.95-27.604 27.796h4.567l25.318-25.498 24.338 24.51h4.563l-26.623-26.806 16.263-16.38 12.096 21.04v-6.5l-6.627-11.53 6.627 6.5v-5.146h7.084l-13.54-13.28a4.317 4.317 0 0 0-3.026-1.234zm6.567 8.635h30.98l-15.488 15.6Zm-51.91 34.113L22.2 119.092a4.317 4.317 0 0 0-1.299 3.08v17.77a4.317 4.317 0 0 0 4.317 4.316H230.28a4.317 4.317 0 0 0 4.32-4.317v-17.77a4.317 4.317 0 0 0-1.298-3.08l-38.266-37.53v5.626h-6.594l37.522 36.803v11.631h-25.371l-.264-.266-16.092-27.988-11.6-20.18h-3.736l15.399 26.784 7.164 12.457-21.895-22.047v4.596l26.457 26.644H60.373l25.426-25.605v-4.6l-22.987 23.147 23.891-41.56h-3.736l-27.953 48.618H29.539v-11.63L67.25 87.003h-6.453z" transform="scale(.26458)" color="currentColor" overflow="visible" fill="currentColor" stop-color="currentColor"/>
  <path d="M16.616 14.502v7.988h8.52v-7.988zm4.264.47a.276.35 0 0 1 .276.349v.404a2.802 2.802 0 0 1 2.505 2.505h.376a.35.276 0 0 1 .35.276.35.276 0 0 1-.35.276h-.376a2.801 2.801 0 0 1-2.505 2.505v.384a.276.35 0 0 1-.276.35.276.35 0 0 1-.276-.35v-.384a2.8 2.8 0 0 1-2.505-2.505h-.385a.35.276 0 0 1-.35-.276.35.276 0 0 1 .35-.276h.385a2.801 2.801 0 0 1 2.505-2.505v-.404a.276.35 0 0 1 .276-.35zm-.276 1.31a2.237 2.237 0 0 0-1.95 1.948h.378a.35.276 0 0 1 .35.276.35.276 0 0 1-.35.276h-.378a2.237 2.237 0 0 0 1.95 1.95v-.379a.276.35 0 0 1 .276-.35.276.35 0 0 1 .276.35v.379a2.237 2.237 0 0 0 1.95-1.95h-.387a.35.276 0 0 1-.35-.276.35.276 0 0 1 .35-.276h.386a2.237 2.237 0 0 0-1.949-1.949v.358a.276.35 0 0 1-.276.35.276.35 0 0 1-.276-.35z" fill="currentColor" paint-order="markers fill stroke"/>
  <path d="M42.554 14.552v7.987h8.52v-7.987zm4.265.469a.276.35 0 0 1 .276.35v.404A2.802 2.802 0 0 1 49.6 18.28h.376a.35.276 0 0 1 .35.276.35.276 0 0 1-.35.276H49.6a2.801 2.801 0 0 1-2.505 2.505v.384a.276.35 0 0 1-.276.35.276.35 0 0 1-.276-.35v-.384a2.8 2.8 0 0 1-2.505-2.505h-.385a.35.276 0 0 1-.35-.276.35.276 0 0 1 .35-.276h.385a2.801 2.801 0 0 1 2.505-2.505v-.404a.276.35 0 0 1 .276-.35zm-.276 1.31a2.237 2.237 0 0 0-1.95 1.949h.378a.35.276 0 0 1 .35.276.35.276 0 0 1-.35.276h-.378a2.237 2.237 0 0 0 1.95 1.95v-.38a.276.35 0 0 1 .276-.349.276.35 0 0 1 .276.35v.379a2.237 2.237 0 0 0 1.949-1.95h-.386a.35.276 0 0 1-.35-.276.35.276 0 0 1 .35-.276h.386a2.237 2.237 0 0 0-1.95-1.95v.358a.276.35 0 0 1-.275.35.276.35 0 0 1-.276-.35z" fill="currentColor" paint-order="markers fill stroke"/>
  <path d="M23.23 25.086v7.987h8.52v-7.987zm4.265.468a.276.35 0 0 1 .276.35v.404a2.802 2.802 0 0 1 2.505 2.506h.376a.35.276 0 0 1 .35.275.35.276 0 0 1-.35.277h-.376a2.801 2.801 0 0 1-2.505 2.505v.383a.276.35 0 0 1-.276.35.276.35 0 0 1-.276-.35v-.383a2.8 2.8 0 0 1-2.505-2.505h-.385a.35.276 0 0 1-.35-.277.35.276 0 0 1 .35-.275h.385a2.801 2.801 0 0 1 2.505-2.506v-.404a.276.35 0 0 1 .276-.35zm-.276 1.31a2.237 2.237 0 0 0-1.95 1.95h.378a.35.276 0 0 1 .35.275.35.276 0 0 1-.35.277h-.378a2.237 2.237 0 0 0 1.95 1.95v-.38a.276.35 0 0 1 .276-.35.276.35 0 0 1 .276.35v.38a2.237 2.237 0 0 0 1.949-1.95h-.386a.35.276 0 0 1-.35-.277.35.276 0 0 1 .35-.275h.386a2.237 2.237 0 0 0-1.95-1.95v.358a.276.35 0 0 1-.275.35.276.35 0 0 1-.276-.35z" fill="currentColor" paint-order="markers fill stroke"/>
  <path d="M35.817 24.824v7.988h8.52v-7.988zm4.265.469a.276.35 0 0 1 .275.35v.404a2.802 2.802 0 0 1 2.505 2.505h.376a.35.276 0 0 1 .35.276.35.276 0 0 1-.35.276h-.376a2.801 2.801 0 0 1-2.505 2.505v.384a.276.35 0 0 1-.275.35.276.35 0 0 1-.277-.35v-.384a2.8 2.8 0 0 1-2.505-2.505h-.385a.35.276 0 0 1-.35-.276.35.276 0 0 1 .35-.276h.385a2.801 2.801 0 0 1 2.505-2.505v-.404a.276.35 0 0 1 .277-.35zm-.277 1.31a2.237 2.237 0 0 0-1.95 1.95h.378a.35.276 0 0 1 .35.275.35.276 0 0 1-.35.276h-.377a2.237 2.237 0 0 0 1.95 1.95v-.379a.276.35 0 0 1 .276-.35.276.35 0 0 1 .275.35v.379a2.237 2.237 0 0 0 1.95-1.95h-.387a.35.276 0 0 1-.35-.276.35.276 0 0 1 .35-.276h.386a2.237 2.237 0 0 0-1.949-1.949v.358a.276.35 0 0 1-.275.35.276.35 0 0 1-.277-.35z" fill="currentColor" paint-order="markers fill stroke"/>

  <text x="50%" y="93%" font-size="12" alignment="bottom" text-anchor="middle">hardpoints</text>
</svg>
