<svg xmlns="http://www.w3.org/2000/svg" viewBox="0 0 67.733 67.733">
  <path d="M33.842 5.515a16.556 16.556 0 0 0-15.71 11.774h-2.029a3.002 3.002 0 0 0-2.985 2.987v5.971a3.002 3.002 0 0 0 2.985 2.987h2.952c.12 0 .236-.008.351-.022l5.884 5.043a8.73 8.73 0 0 1 .756-1.975l-4.75-4.073a2.97 2.97 0 0 0 .744-1.96v-5.971c0-1.25-.787-2.33-1.887-2.773a14.546 14.546 0 0 1 13.705-9.997 14.544 14.544 0 0 1 13.897 9.87c-1.306.319-2.29 1.503-2.29 2.9v5.971a3.003 3.003 0 0 0 2.987 2.987h2.95a3.003 3.003 0 0 0 2.987-2.987v-5.971a3.003 3.003 0 0 0-2.987-2.987h-1.587A16.552 16.552 0 0 0 33.842 5.515Zm.194 3.271c-5.294.032-10.021 2.685-11.443 6.815a.995.995 0 0 0 .617 1.263.995.995 0 0 0 1.264-.615c1.051-3.054 4.949-5.444 9.575-5.472 4.627-.028 8.581 2.316 9.7 5.362a.995.995 0 0 0 1.28.592.995.995 0 0 0 .589-1.28c-1.51-4.107-6.288-6.697-11.582-6.665Zm-10.28 9.879a.995 1.249 0 0 0-.996 1.25v6.745a.995 1.249 0 0 0 .996 1.246.995 1.249 0 0 0 .995-1.246v-6.746a.995 1.249 0 0 0-.995-1.249zm20.04 0a.995 1.241 0 0 0-.996 1.242v6.706a.995 1.241 0 0 0 .996 1.24.995 1.241 0 0 0 .996-1.24v-6.706a.995 1.241 0 0 0-.996-1.242zm-27.693.615h2.952a.97.97 0 0 1 .993.996v5.971a.97.97 0 0 1-.993.996h-2.952a.973.973 0 0 1-.995-.996v-5.971c0-.569.427-.996.995-.996zm32.35 0h2.949c.569 0 .996.427.996.996v5.971a.973.973 0 0 1-.996.996h-2.95a.973.973 0 0 1-.995-.996v-5.971c0-.569.427-.996.995-.996zM17.56 21.697a.747.747 0 0 0-.747.746v1.494a.747.747 0 0 0 .747.746.747.747 0 0 0 .746-.746v-1.494a.747.747 0 0 0-.746-.746zm32.51 0a.747.747 0 0 0-.748.746v1.494a.747.747 0 0 0 .748.746.747.747 0 0 0 .745-.746v-1.494a.747.747 0 0 0-.745-.746zm-16.246 6.337c-4.596 0-8.338 3.742-8.338 8.338 0 4.597 3.742 8.34 8.338 8.34 4.597 0 8.34-3.743 8.34-8.34 0-4.596-3.743-8.338-8.34-8.338zm0 1.515a6.8 6.8 0 0 1 3.981 1.278L28.77 40.96a6.8 6.8 0 0 1-1.767-4.588 6.812 6.812 0 0 1 6.823-6.823zm5.107 2.293a6.798 6.798 0 0 1 1.717 4.53 6.812 6.812 0 0 1-6.824 6.823 6.8 6.8 0 0 1-3.919-1.233zm-10.985 2.067a6.372 6.372 0 0 0-.484 2.209l.679.581h3.14c.046.178.141.335.267.46l2.852-3.198h-2.159a.99.99 0 0 0-.96.747H28.88zm8.692 1.188-2.095 2.348h1.1a.994.994 0 0 0 .995-.996z" color="currentColor" overflow="visible" fill="currentColor" paint-order="markers fill stroke" stop-color="currentColor"/>
  <text x="50%" y="93%" font-size="12" alignment="bottom" text-anchor="middle">mute</text>

</svg>
