<svg xmlns="http://www.w3.org/2000/svg" viewBox="0 0 67.733 67.733">
  <path d="M128.658 30.54c-18 0-34.218 7.67-45.586 19.907l4.283 2.705C97.767 42.3 112.41 35.537 128.658 35.537c17.005 0 32.257 7.4 42.735 19.152l4.25-2.683c-11.417-13.14-28.234-21.467-46.985-21.467Zm0 14.386c-12.867 0-24.544 5.102-33.144 13.379l2.597 1.64c8.005-7.452 18.735-12.015 30.547-12.015 12.577 0 23.93 5.17 32.069 13.498l2.572-1.625c-8.718-9.157-21.014-14.877-34.64-14.877ZM77.262 57.71a61.904 61.904 0 0 0-9.367 21.666l4.98.611a56.803 56.803 0 0 1 3.879-11.355c-.673-.772-1.08-1.77-1.082-3.037a2.5 2.5 0 0 1 0-.008c0-1.175.745-2.562 1.883-3.129.916-.457 1.856-.448 2.69-.22.449-.713.912-1.416 1.392-2.106zm51.396.894a33.988 33.988 0 0 0-21.095 7.31l.892.564a33.011 33.011 0 0 1 20.203-6.87c8.39 0 16.044 3.12 21.883 8.252l.88-.556c-6.043-5.407-14.02-8.7-22.763-8.7zm52.656 1.028-4.363 2.414a56.862 56.862 0 0 1 7.998 20.412l4.957-.684a61.815 61.815 0 0 0-8.592-22.142zM89.926 64.72a46.03 46.03 0 0 0-.832 1.174l2.816 1.181c.212-.302.424-.605.643-.902zm78.775 1.89-2.619 1.45a44.573 44.573 0 0 1 6.58 16.09l2.977-.41a47.547 47.547 0 0 0-6.938-17.13zm-83.357 5.864a47.471 47.471 0 0 0-3.086 8.668l2.988.367a44.523 44.523 0 0 1 2.906-7.994zm71.347.78-.877.487.157.223.943-.397c-.072-.105-.15-.207-.223-.312zm-58.457 3.997c-.171.336-.34.673-.502 1.016.376-.09.765-.127 1.145-.092.095-.194.196-.385.295-.576zm62.053 2.6-.94.35a32.899 32.899 0 0 1 1.721 5.546l.996-.137a33.885 33.885 0 0 0-1.777-5.76zm30.31 6.875-4.964.683c.022.234.036.47.055.705l4.994-.295c-.03-.364-.05-.73-.084-1.093zM66.636 87.932a62.758 62.758 0 0 0-.205 4.836c0 .125.009.249.01.375l4.99-.297-.002-.078c0-1.505.076-2.99.19-4.465zm14.351 1.07a48.316 48.316 0 0 0-.15 3.281l3.004-.178c.014-.968.06-1.928.135-2.88zm13.637 1.018c-.038.48-.068.961-.086 1.447l.998-.06c.018-.441.047-.878.082-1.313zm96.272 2.794-5.012.301a58.181 58.181 0 0 1-.237 4.844l4.989.371c.161-1.819.258-3.655.26-5.516zm-14.416.862-3.01.18a45.447 45.447 0 0 1-.18 3.183l2.994.223c.11-1.183.173-2.38.196-3.586zm-13.702.818-1.007.059a34.52 34.52 0 0 1-.125 1.619l1.003.074c.06-.58.1-1.164.13-1.752zm-91.113 3.348-4.988.295c.026.301.04.606.07.906l4.957-.682c-.017-.172-.024-.347-.039-.52zm24.64 2.176-.99.136c.4 1.813.944 3.57 1.62 5.262l.931-.346a32.9 32.9 0 0 1-1.56-5.052zm-11.607 1.597-2.968.41a47.54 47.54 0 0 0 6.546 16.358l2.616-1.447a44.791 44.791 0 0 1-.995-1.627 3.085 3.085 0 0 1-1.181-.49c-.985-.688-1.402-1.85-1.402-2.813 0-.51.066-.982.193-1.418a44.516 44.516 0 0 1-2.809-8.973zM72.41 103.31l-4.95.681a61.826 61.826 0 0 0 8.204 21.373l4.36-2.412a56.864 56.864 0 0 1-7.614-19.642zm87.658.087-.056.168c.053.13.115.259.115.403 0 1.01-.295 2.04-1.063 2.863-.173.186-.38.352-.607.498a33.028 33.028 0 0 1-.947 1.781l.949.352a33.962 33.962 0 0 0 2.623-5.94zm11.772 1.448a44.529 44.529 0 0 1-3.272 8.367l2.825 1.047a47.489 47.489 0 0 0 3.46-9.043zm12.414 1.525a56.835 56.835 0 0 1-5.014 13.2c.052.295.087.603.088.933a2.5 2.5 0 0 1 0 .008c0 1.174-.745 2.562-1.883 3.129a3.538 3.538 0 0 1-.767.275 57.298 57.298 0 0 1-1.94 2.815l4.38 2.424a61.937 61.937 0 0 0 10.124-22.17zm-83.13 4.885-.929.389c.024.034.045.07.069.105l.869-.48-.01-.014zm52.56 3.822.562.313.049-.057zm-47.5 2.07-.866.55c6.108 5.724 14.312 9.236 23.34 9.236a33.986 33.986 0 0 0 19.627-6.213l-.91-.576a33.01 33.01 0 0 1-18.717 5.785c-8.676 0-16.566-3.332-22.474-8.782zm58.382 2.493c-.259.345-.532.68-.8 1.017l2.646 1.465c.333-.427.66-.86.979-1.299zm-68.511 3.906-2.57 1.623c8.742 9.489 21.266 15.441 35.173 15.441 12.231 0 23.39-4.606 31.854-12.17l-2.635-1.664c-7.846 6.746-18.048 10.83-29.219 10.83-12.856 0-24.432-5.405-32.603-14.06zm-10.637 6.717-4.246 2.681c11.42 13.48 28.457 22.055 47.486 22.055 17.372 0 33.086-7.146 44.383-18.644l-4.307-2.721C158.414 143.755 144.276 150 128.658 150c-17.284 0-32.752-7.649-43.24-19.738Z" transform="matrix(.273 0 0 .27975 -.939 -1.103)" color="currentColor" overflow="visible" fill="currentColor" paint-order="markers fill stroke" stop-color="currentColor"/>
  <path d="M58.792 6.76c.583-.367 1.165-.61 1.608-.663.457-.055.72.097.719.423 0 .678-1.086 1.828-2.327 2.514l-19.58 10.837c-.126.07-.225-.038-.225-.238 0-.097.023-.203.065-.297a.47.47 0 0 1 .16-.208zM43.404 19.392c.165-.07.302.025.302.212s-.137.39-.302.451l-6.747 2.502c-.042.015-.075-.047-.075-.139 0-.092.033-.18.075-.198zm7.468 2.827c.307-.042.61.006.838.137.234.133.367.34.367.572 0 .483-.556.907-1.205.946l-12.698.757c-.1.006-.179-.134-.179-.313 0-.086.019-.171.052-.236.033-.066.08-.107.127-.113zm3.335 4.743c.535.04.986.35.986.69 0 .341-.451.562-.986.496l-12.857-1.58c-.116-.014-.21-.15-.21-.303 0-.152.094-.27.21-.26zm-12.857.02a.389.389 0 0 1 .25.177.63.63 0 0 1 .107.35c0 .259-.163.43-.357.384l-5.265-1.246c-.056-.013-.102-.134-.102-.27 0-.064.011-.125.03-.168.019-.043.045-.065.072-.06zm4.988 4.323c.244.091.448.351.448.58 0 .228-.204.328-.448.225l-7.675-3.217c-.07-.029-.125-.148-.125-.266 0-.118.055-.193.125-.167zm7.87 7.395c.873.484 1.63 1.36 1.63 1.923 0 .271-.182.42-.5.413-.31-.007-.718-.16-1.13-.421l-15.545-9.818a.419.419 0 0 1-.143-.19.734.734 0 0 1-.057-.278c0-.19.088-.294.2-.232z" transform="matrix(1.03183 0 0 1.05733 -.939 -1.103)" color="currentColor" overflow="visible" fill="currentColor" paint-order="markers fill stroke" stop-color="currentColor"/>
  <path d="M8.676 42.477c-.583.368-1.164.61-1.607.664-.457.054-.72-.097-.719-.423 0-.678 1.086-1.828 2.326-2.514l19.581-10.837c.126-.07.225.038.225.238a.755.755 0 0 1-.065.297.47.47 0 0 1-.16.208zm15.389-12.63c-.165.069-.302-.025-.302-.212 0-.188.137-.39.302-.452l6.747-2.501c.041-.015.075.047.075.139 0 .092-.034.18-.075.198zm-7.468-2.828c-.307.043-.61-.005-.839-.136-.233-.134-.367-.34-.366-.572 0-.483.556-.907 1.205-.946l12.697-.757c.1-.006.18.134.18.313 0 .086-.02.17-.052.236-.034.066-.08.106-.128.113zm-3.335-4.742c-.535-.04-.986-.35-.986-.69 0-.341.451-.562.986-.497l12.856 1.58c.117.015.21.15.21.303s-.093.27-.21.261zm12.856-.021a.389.389 0 0 1-.25-.176.63.63 0 0 1-.106-.35c0-.259.162-.43.356-.384l5.265 1.245c.057.014.102.134.102.27a.42.42 0 0 1-.03.169c-.018.043-.044.065-.072.06zm-4.987-4.323c-.244-.09-.448-.35-.449-.579 0-.228.204-.328.449-.226l7.675 3.217c.07.03.125.149.125.267 0 .118-.056.193-.125.167zm-7.87-7.394c-.874-.484-1.63-1.36-1.63-1.923 0-.271.182-.42.5-.413.31.006.718.16 1.13.42l15.545 9.818a.419.419 0 0 1 .142.191.734.734 0 0 1 .058.278c0 .19-.088.293-.2.232z" transform="matrix(1.03183 0 0 1.05733 -.939 -1.103)" color="currentColor" overflow="visible" fill="currentColor" paint-order="markers fill stroke" stop-color="currentColor"/>

  <text x="50%" y="93%" font-size="12" alignment="bottom" text-anchor="middle">jump {0}</text>

</svg>
