<svg xmlns="http://www.w3.org/2000/svg" viewBox="0 0 67.733 67.733">
  <path d="m33.919 9.777-.65 1.25-1.427.189 1.02.984-.257 1.377 1.28-.64 1.267.66-.228-1.38 1.04-.968-1.422-.212zm-5.992.609-.377 1.357-1.356.481 1.203.752.033 1.4 1.12-.893 1.377.384-.51-1.303.817-1.163-1.436.087zm12.042.013-.905 1.079-1.434-.124.783 1.183-.55 1.288 1.39-.348 1.094.92.075-1.398 1.226-.72-1.343-.515zm5.43 1.7-1.002.99-1.416-.257.67 1.25-.668 1.23 1.415-.216 1.003 1.018.206-1.384 1.287-.602-1.288-.639zm-23.35.022-.146 1.4-1.258.7 1.31.542.266 1.375.956-1.065 1.422.15-.72-1.2.613-1.283-1.4.324zm-16.675.724 1.504 3.326-.003-.006c.16.433.495.806 1.11 1.045l.008.003 14.156 3.109c.265.094.659.256.928.408.135.076.24.156.27.196-.005.003-.005.004-.015.008l-.014.005-.26.199-.658-.125-9.61-2.018 1.948 3.42v-.001c.356.636.747.772 1.094.866l.003.001 1.83.551-1.74.696.037.194h35.802l.037-.194-1.74-.696 1.83-.551h.002c.348-.095.74-.23 1.095-.867l1.949-3.42-9.611 2.02-.657.124-.26-.2-.015-.004c-.01-.004-.01-.005-.015-.008.03-.04.135-.12.27-.196.27-.152.664-.314.928-.408l14.156-3.11.007-.002c.613-.238.948-.609 1.109-1.039l1.503-3.326-25.923 5.95.118.128c.516.558.969 1.111 1.096 1.61.064.25.05.482-.069.714-.118.23-.349.465-.733.694-.185.08-.359.166-.521.192-.154.024-.298-.006-.467-.14l.037-1.415-2.027 1.65-2.027-1.65.038 1.415c-.17.134-.314.164-.467.14-.163-.026-.337-.112-.522-.192-.384-.229-.614-.463-.733-.694a.968.968 0 0 1-.069-.714c.128-.499.58-1.052 1.097-1.61l.117-.128zm26.865 1.905-.224 4.005.388.22.017 1.256 1.445 1.268v.006l1.44-1.274.017-1.257.389-.22-.225-4.004-.169.325c-.233.45-.311.962-.484 1.402-.168.429-.41.786-.97.99-.56-.204-.802-.561-.97-.99-.173-.44-.252-.952-.485-1.402zM21.583 25.217l-2.226.018v.099l-.06 10.648h2.399l.031-6.147 2.999 6.155h2.302l.01-10.706h-2.341v6.161zm25.248.014-.022.073-3.079 10.6h2.34l.693-2.332h2.282l.677 2.324h2.347L49.13 25.23Zm-16.066.053-.022.073-3.079 10.6h2.34l.693-2.332h2.282l.677 2.323h2.347l-2.939-10.664Zm-15.094.025v.1l-.009 10.489h2.307V25.309zm24.493.014c-.033 0-.065.001-.095.003h-3.512v10.622h2.256v-4.245h1.257c.17.035.334.044.488.142.155.098.314.29.445.72v2.591c.028.149.042.32.098.471a.49.49 0 0 0 .129.203c.062.055.148.09.245.093h2.135l.045-.19c-.272-.135-.434-.372-.447-.832V32.59c-.118-.718-.358-1.136-.648-1.41-.254-.238-.533-.356-.791-.494l.088-.059c.132-.088.317-.218.503-.408.373-.379.752-1 .748-1.983.01-1.031-.519-1.78-1.16-2.254-.602-.445-1.297-.658-1.785-.658zm-1.552 1.683 1.521.017c1.32.091 1.072 2.994.009 3.042h-1.53zm9.313 1.71.878 3.16h-1.797zm-16.066.053.878 3.16H30.94zm-15.92 7.815v.334h35.853v-.334zm13.05 1.078a.655.655 0 0 0-.38.106.85.85 0 0 0-.306.395c-.07.172-.104.369-.104.59 0 .204.031.393.094.567a.844.844 0 0 0 .278.4c.124.092.27.139.436.139.13 0 .26-.033.387-.099a.871.871 0 0 0 .293-.23v-.846h-.692v.357h.368v.27a.68.68 0 0 1-.175.129.436.436 0 0 1-.202.052.382.382 0 0 1-.33-.188c-.084-.127-.126-.316-.126-.568 0-.234.041-.41.124-.53a.39.39 0 0 1 .335-.177c.093 0 .17.03.232.09s.104.143.127.247l.319-.08a.806.806 0 0 0-.215-.457c-.11-.112-.265-.167-.463-.167Zm4.787 0a.685.685 0 0 0-.343.084.657.657 0 0 0-.206.191 1.074 1.074 0 0 0-.148.292 1.757 1.757 0 0 0-.073.544c0 .339.07.604.21.797.14.193.328.289.564.289.234 0 .42-.097.56-.29.14-.194.21-.463.21-.806 0-.346-.07-.616-.212-.81a.66.66 0 0 0-.562-.291zm3.187 0a.626.626 0 0 0-.314.074.49.49 0 0 0-.198.216.683.683 0 0 0-.069.303c0 .168.05.31.147.427.07.083.19.153.362.21.134.045.22.076.258.093a.259.259 0 0 1 .115.093.23.23 0 0 1 .033.127.299.299 0 0 1-.079.206c-.052.058-.13.087-.233.087a.295.295 0 0 1-.234-.099.586.586 0 0 1-.114-.308l-.312.04c.02.238.085.42.193.544.108.123.262.185.463.185a.708.708 0 0 0 .347-.077.52.52 0 0 0 .215-.237.785.785 0 0 0 .076-.342.792.792 0 0 0-.064-.338.518.518 0 0 0-.176-.216 1.284 1.284 0 0 0-.347-.153c-.156-.05-.254-.097-.295-.142a.187.187 0 0 1-.048-.13c0-.054.018-.098.052-.131a.302.302 0 0 1 .219-.077c.09 0 .158.024.203.073.045.047.075.125.089.234l.321-.019a.72.72 0 0 0-.16-.468c-.1-.117-.25-.175-.45-.175zm2.232 0a.63.63 0 0 0-.54.294c-.137.195-.205.47-.205.823 0 .335.068.598.204.791.136.193.31.289.521.289.17 0 .312-.056.422-.168.112-.113.191-.286.239-.518l-.311-.132a.718.718 0 0 1-.133.342.28.28 0 0 1-.22.11c-.116 0-.21-.058-.282-.172-.073-.114-.109-.305-.109-.574 0-.253.037-.436.11-.549.074-.113.17-.17.287-.17.086 0 .158.032.217.096.06.064.1.15.119.261l.318-.101a.94.94 0 0 0-.163-.392.577.577 0 0 0-.474-.23zm1.621 0a.685.685 0 0 0-.343.084.657.657 0 0 0-.206.191 1.074 1.074 0 0 0-.148.292 1.757 1.757 0 0 0-.072.544c0 .339.07.604.21.797a.66.66 0 0 0 .564.289.66.66 0 0 0 .56-.29c.14-.194.21-.463.21-.806 0-.346-.071-.616-.212-.81a.66.66 0 0 0-.563-.291zm8.727 0a.685.685 0 0 0-.343.084.657.657 0 0 0-.206.191 1.073 1.073 0 0 0-.148.292 1.757 1.757 0 0 0-.072.544c0 .339.07.604.209.797.14.193.328.289.564.289.234 0 .42-.097.56-.29.14-.194.21-.463.21-.806 0-.346-.07-.616-.212-.81a.66.66 0 0 0-.562-.291zm-33.761.036v2.125h1.21v-.358h-.889v-.579h.799v-.357h-.799v-.471h.859v-.36zm2.83 0v2.125h.322v-2.125zm.514 0v.36h.472v1.765h.321v-1.765h.472v-.36zm1.472 0v2.125h1.21v-.358h-.889v-.579h.799v-.357h-.799v-.471h.859v-.36zm2.84 0v2.125h.604a.744.744 0 0 0 .284-.045.551.551 0 0 0 .226-.17c.074-.096.13-.22.17-.375.033-.127.05-.277.05-.452a2.05 2.05 0 0 0-.053-.502 1.029 1.029 0 0 0-.152-.345.534.534 0 0 0-.24-.195.874.874 0 0 0-.302-.04zm2.064 0-.62 2.125h.34l.132-.483h.636l.14.483h.349l-.637-2.125zm1.15 0v2.125h.299v-1.386l.641 1.386h.323v-2.125h-.299v1.419l-.651-1.419zm3.332 0v2.125h1.21v-.358h-.89v-.579h.8v-.357h-.8v-.471h.86v-.36zm1.483 0v2.125h.322v-.887h.065c.074 0 .128.008.162.024a.25.25 0 0 1 .096.089c.03.042.087.146.17.311l.232.463h.384l-.194-.415a2.486 2.486 0 0 0-.184-.345.817.817 0 0 0-.171-.178.47.47 0 0 0 .315-.196.694.694 0 0 0 .105-.395.772.772 0 0 0-.07-.335.408.408 0 0 0-.185-.203c-.077-.039-.2-.058-.37-.058zm3.332 0v1.133c0 .238.01.418.031.54a.71.71 0 0 0 .09.236.544.544 0 0 0 .186.182c.079.047.194.07.346.07a.639.639 0 0 0 .306-.064.514.514 0 0 0 .187-.174.691.691 0 0 0 .096-.267c.018-.105.026-.285.026-.54v-1.116h-.32v1.175c0 .168-.006.289-.015.361a.326.326 0 0 1-.083.184c-.047.05-.116.074-.207.074a.287.287 0 0 1-.213-.078.378.378 0 0 1-.097-.21 3.199 3.199 0 0 1-.012-.355v-1.15zm7.038 0v2.125h.298V38.15l.315 1.673h.31l.315-1.673v1.673h.299v-2.125h-.482l-.286 1.45-.289-1.45zm1.856 0v2.125h.32v-.802h.21c.146 0 .257-.01.334-.03a.42.42 0 0 0 .166-.1.57.57 0 0 0 .135-.21.891.891 0 0 0 .054-.33.81.81 0 0 0-.093-.412.435.435 0 0 0-.229-.209c-.059-.021-.186-.032-.382-.032zm1.775 0-.62 2.125h.341l.132-.483h.636l.139.483h.35l-.638-2.125zm1.151 0v2.125h.298v-1.386l.642 1.386h.322v-2.125h-.298v1.419l-.652-1.419zm1.592 0v2.125h.322v-2.125zm2.36 0v2.125h.298v-1.386l.642 1.386h.322v-2.125h-.298v1.419l-.651-1.419zm-33.298.018v2.107h1.12v-.358h-.798v-1.75zm16.506.313c.133 0 .239.06.318.18.08.12.12.3.12.544 0 .246-.04.431-.123.555-.082.123-.186.184-.315.184-.128 0-.233-.062-.317-.185-.083-.125-.124-.307-.124-.548 0-.244.04-.427.121-.548a.37.37 0 0 1 .32-.182zm7.04 0c.133 0 .239.06.318.18.08.12.121.3.121.544 0 .246-.041.431-.124.555-.082.123-.186.184-.315.184-.128 0-.233-.062-.316-.185-.084-.125-.125-.307-.125-.548 0-.244.04-.427.121-.548a.37.37 0 0 1 .32-.182zm8.727 0c.133 0 .239.06.318.18.08.12.12.3.12.544 0 .246-.04.431-.123.555-.082.123-.187.184-.315.184s-.233-.062-.317-.185c-.083-.125-.124-.307-.124-.548 0-.244.04-.427.121-.548a.37.37 0 0 1 .32-.182zm-25.787.029h.144c.131 0 .219.006.264.02.06.017.11.05.149.1.039.05.069.118.09.206.022.087.033.214.033.378s-.01.294-.032.39a.498.498 0 0 1-.085.204.276.276 0 0 1-.13.088.662.662 0 0 1-.194.02h-.24zm8.03 0h.25c.13 0 .209.002.235.007.052.011.092.04.12.084.03.043.044.1.044.172a.348.348 0 0 1-.033.16.188.188 0 0 1-.09.09c-.038.017-.134.026-.289.026h-.237zm12.225 0h.155c.116 0 .193.005.231.014a.215.215 0 0 1 .13.094c.033.05.05.114.05.192a.353.353 0 0 1-.036.165.23.23 0 0 1-.1.104.634.634 0 0 1-.254.033h-.176zm-18.346.136.22.788h-.435zm19.966 0 .22.788h-.434zm-23.497.09v.407h.305v-.407zm0 1.131v.408h.305v-.408z" fill="currentColor" fill-opacity=".998" paint-order="markers stroke fill"/>
  <text x="50%" y="93%" font-size="12" alignment="bottom" text-anchor="middle">???</text>

</svg>
