<svg xmlns="http://www.w3.org/2000/svg" viewBox="0 0 67.733 67.733">
  <path d="M30.753 11.375a.668.565 0 0 0-.668.564v11.303a.668.565 0 0 0 .668.564h5.277a.668.565 0 0 0 .667-.564V11.939a.668.565 0 0 0-.667-.564zm-1.4 4.084-5.11 3.67a3.338 3.196 0 0 1 1.435 1.1l3.676-2.64zm-6.733 4.375a2.384 2.36 0 0 0-2.365 2.36 2.384 2.36 0 0 0 2.384 2.358 2.384 2.36 0 0 0 2.384-2.359 2.384 2.36 0 0 0-2.384-2.359 2.384 2.36 0 0 0-.02 0zm3.341 3.636a3.338 3.196 0 0 1-1.212 1.306l5.678 3.005v-1.948Zm6.18.99a.89.852 0 0 0-.89.852v8.524a.89.852 0 0 0 .89.854h2.775a.89.852 0 0 0 .892-.854v-8.524a.89.852 0 0 0-.892-.851zm18.046 7.567a.557.663 89.45 0 0-.383.116l-4.932 3.186h-25.53a.668.537 0 0 0-.668.537v1.792a.668.537 0 0 0 .668.538h26.7a.668.537 0 0 0 .569-.256l5.338-3.45a.557.663 89.45 0 0 .124-.781l-1.338-1.465a.557.663 89.45 0 0-.548-.217z" color="currentColor" overflow="visible" fill="currentColor" stop-color="currentColor"/>
  <path d="M6.685 5.37a1.252 1.282 0 0 0-1.25 1.284v37.042a1.252 1.282 0 0 0 1.25 1.281h54.24a1.252 1.282 0 0 0 1.252-1.28V6.653a1.252 1.282 0 0 0-1.253-1.283Zm1.253 2.567h51.736v34.477H7.938Z" color="currentColor" overflow="visible" fill="currentColor" stop-color="currentColor"/>

  <text x="50%" y="93%" font-size="12" alignment="bottom" text-anchor="middle">landing gear</text>
</svg>
