<svg xmlns="http://www.w3.org/2000/svg" viewBox="0 0 67.733 67.733">
  <path d="m9.26 20.872 2.646-8.648h6.615l3.969-3.706 6.614 1.236 7.938-3.706 14.552 2.47 6.614 9.883-2.646 9.883 3.97 6.177-10.584 7.412-18.52 1.783-5.293-6.39H14.552V29.52z" fill="none" stroke="currentColor" stroke-width="2.117" stop-color="currentColor"/>
  <path d="M25.135 22.49v2.645" fill="none" stroke="currentColor" stroke-width=".794" stop-color="currentColor"/>
  <path d="M23.813 23.813h2.645" fill="none" stroke="currentColor" stroke-width=".794" stop-color="currentColor"/>
  <path d="M25.135 21.96v-.529" fill="none" stroke="currentColor" stroke-width=".794" stop-color="currentColor"/>
  <path d="M27.252 24.077v-.53" fill="none" stroke="currentColor" stroke-width=".794" stop-color="currentColor"/>
  <path d="M25.135 26.194v-.53" fill="none" stroke="currentColor" stroke-width=".794" stop-color="currentColor"/>
  <path d="M23.019 24.077v-.53" fill="none" stroke="currentColor" stroke-width=".794" stop-color="currentColor"/>
  <path d="M38.365 14.552v2.646" fill="none" stroke="currentColor" stroke-width=".794" stop-color="currentColor"/>
  <path d="M37.042 15.875h2.645" fill="none" stroke="currentColor" stroke-width=".794" stop-color="currentColor"/>
  <path d="M38.365 14.023v-.53" fill="none" stroke="currentColor" stroke-width=".794" stop-color="currentColor"/>
  <path d="M40.481 16.14v-.53" fill="none" stroke="currentColor" stroke-width=".794" stop-color="currentColor"/>
  <path d="M38.365 18.256v-.529" fill="none" stroke="currentColor" stroke-width=".794" stop-color="currentColor"/>
  <path d="M36.248 16.14v-.53" fill="none" stroke="currentColor" stroke-width=".794" stop-color="currentColor"/>
  <path d="M41.01 31.75v2.646" fill="none" stroke="currentColor" stroke-width=".794" stop-color="currentColor"/>
  <path d="M39.688 33.073h2.645" fill="none" stroke="currentColor" stroke-width=".794" stop-color="currentColor"/>
  <path d="M41.01 31.22v-.528" fill="none" stroke="currentColor" stroke-width=".794" stop-color="currentColor"/>
  <path d="M43.127 33.337v-.529" fill="none" stroke="currentColor" stroke-width=".794" stop-color="currentColor"/>
  <path d="M41.01 35.454v-.529" fill="none" stroke="currentColor" stroke-width=".794" stop-color="currentColor"/>
  <path d="M38.894 33.337v-.529" fill="none" stroke="currentColor" stroke-width=".794" stop-color="currentColor"/>
  <path d="m18.52 12.224 3.97 3.651" fill="none" stroke="currentColor" stroke-width=".794" stop-color="currentColor"/>
  <path d="m51.594 8.518-3.969 7.357" fill="none" stroke="currentColor" stroke-width=".794" stop-color="currentColor"/>
  <path d="m55.562 29.104-5.291-1.323-2.646 1.323" fill="none" stroke="currentColor" stroke-width=".794" stop-color="currentColor"/>
  <path d="m30.427 43.656 2.646-3.968" fill="none" stroke="currentColor" stroke-width=".794" stop-color="currentColor"/>
  <path d="m14.552 37.042 5.292-3.97 1.323-2.645" fill="none" stroke="currentColor" stroke-width=".794" stop-color="currentColor"/>
  <text x="50%" y="93%" font-size="17" alignment="bottom" text-anchor="middle">???</text>

</svg>
