<svg xmlns="http://www.w3.org/2000/svg" viewBox="0 0 67.733 67.733">
  <path d="M25.334 19.35a4.716 4.855 0 0 0-4.709 4.859v140.252a4.716 4.855 0 0 0 4.709 4.851h204.322a4.716 4.855 0 0 0 4.719-4.851V24.209a4.716 4.855 0 0 0-4.719-4.86zm4.719 9.718h194.894v130.536H30.053ZM56.623 35v6.205H35.631v1.074h20.992v16.453H35.631v1.075h20.992v16.455H35.631v1.082h20.992v16.455H35.631v1.074h20.992v6.182c.342-.226.69-.444 1.043-.653v-5.529h22.533v4.27c.08.04.163.074.242.115l.801-.729v-3.656h4.022l1.181-1.074h-5.203V77.344h22.531v.683c.645-.59 1.294-1.176 1.94-1.765h-.895V59.807h10.395c.02-.36.056-.717.101-1.075h-10.496V42.28h22.532v2.047c.344-.091.692-.169 1.045-.234V42.28h22.53v16.453h-2.888c.043.358.073.716.092 1.075h2.797v11.795c.348.421.694.844 1.043 1.265v-13.06h22.533v16.455h-19.715c.3.36.602.72.902 1.082h18.813v1.802c.349.043.696.094 1.043.149v-1.951h22.531V93.8h-1.025c.216.354.426.711.627 1.074h.398v.73c.382.737.729 1.491 1.045 2.26v-2.99h19.877V93.8h-19.877V77.344h19.877v-1.082h-19.877V59.807h19.877v-1.075h-19.877V42.28h19.877v-1.074h-19.877V35h-1.045v6.205h-22.531V35h-1.043v6.205h-22.533V35h-1.043v6.205h-22.531V35h-1.045v6.205h-22.532V35h-1.045v6.205h-22.53V35h-1.044v6.205H57.666V35Zm1.043 7.28h22.533v16.452H57.666Zm23.576 0h22.531v16.452h-22.53Zm70.727 0h22.533v16.452h-22.533zm23.576 0h22.531v16.452h-22.531ZM57.666 59.806h22.533v16.455H57.666Zm23.576 0h22.531v16.455h-22.53Zm94.303 0h22.531v16.455h-22.531ZM129.279 76.52c-.643.583-1.286 1.168-1.93 1.75V93.8h-17.117l-1.185 1.074h18.303v14.168l1.045-.066V94.873h15.931c.197-.363.406-.72.617-1.074h-16.548V77.344h6.484l-.215-.258c-1.269-1.227-3.672.157-5.385-.565zm-71.613.823h22.533v16.455H57.666Zm47.152 21.365-1.045.95v10.857l1.045-.065zm-69.187 12.617v1.074h12.086c.082-.22.16-.441.25-.66.051-.14.112-.275.166-.414zm165.691 0a30.17 30.17 0 0 1-.107 1.074h17.783v-1.074zm-2.2 9.248a32.238 32.238 0 0 1-1.046 2.309v5.972h-3.863c-.302.368-.61.73-.928 1.083h4.791v16.455h-22.531v-6.924c-.347.049-.694.094-1.043.13v6.794h-22.533V133.05a29.989 29.989 0 0 1-1.043-.858v14.2h-22.531v-16.456h20.17a28.288 28.288 0 0 1-.958-1.082h-19.212v-3.88c-.349.021-.697.045-1.045.066v3.814h-22.532v-2.392l-1.045.064v2.328H92.156v.002c-.123.365-.256.726-.398 1.08h12.015v16.456h-22.53v-5.106c-.344.182-.692.354-1.044.52v4.586H57.666v-5.54a21.27 21.27 0 0 1-1.043-.677v6.217H35.631v1.074h20.992v6.203h1.043v-6.203h22.533v6.203h1.043v-6.203h22.531v6.203h1.045v-6.203h22.532v6.203h1.045v-6.203h22.53v6.203h1.044v-6.203h22.533v6.203h1.043v-6.203h22.531v6.203h1.045v-6.203h19.877v-1.074h-19.877v-16.456h19.877v-1.082h-19.877zM35.63 128.855v1.083h12.758a25.477 25.477 0 0 1-.436-1.083zm69.187 1.083h22.532v16.455h-22.532z" transform="scale(.26458)" color="currentColor" overflow="visible" fill="currentColor" stop-color="currentColor"/>
  <path d="M34.817 13.182a2.764 2.764 0 0 0-2.737 2.764 2.764 2.764 0 0 0 .784 1.928l-11.41 10.374a4.678 4.678 0 0 0-2.933-1.034 4.678 4.678 0 0 0-4.678 4.677 4.678 4.678 0 0 0 4.678 4.678 4.678 4.678 0 0 0 4.67-4.417l15.991-.998a6.45 6.45 0 0 0 6.056 4.234 6.45 6.45 0 0 0 6.45-6.45 6.45 6.45 0 0 0-6.45-6.449 6.45 6.45 0 0 0-3.54 1.059l-4.796-5.757a2.764 2.764 0 0 0 .706-1.845 2.764 2.764 0 0 0-2.764-2.764 2.764 2.764 0 0 0-.027 0zm1.24 5.248 4.808 5.77a6.45 6.45 0 0 0-2.076 4.738 6.45 6.45 0 0 0 .108 1.173l-15.767.986a4.678 4.678 0 0 0-.932-2.096l11.564-10.512a2.764 2.764 0 0 0 1.082.22 2.764 2.764 0 0 0 1.212-.28z" fill="currentColor" paint-order="markers fill stroke"/>

  <text x="50%" y="93%" font-size="12" alignment="bottom" text-anchor="middle">nav panel</text>
</svg>
