<svg xmlns="http://www.w3.org/2000/svg" viewBox="0 0 67.733 67.733">
  <path d="m9.405 11.986-.065.046-.51.371-.254.185-.658.48.354.488.187.255.185.254.37.51.185.254.186.254.37.51.186.256.184.255.372.509.185.255.184.255.371.507.186.257.184.253.371.51.186.254.184.256.371.508.185.255.186.255.37.511.185.253.185.255.37.51.186.254.185.255.185.255.113.155.056-.127c.06-.136.133-.265.224-.38l.003-.003.001-.004c.037-.06.08-.114.124-.166l.04-.048-.109-.147-.183-.253-.186-.255-.372-.51-.184-.256-.185-.254-.371-.51-.186-.254-.184-.255-.37-.508-.187-.256-.184-.253-.37-.51-.185-.254-.186-.255-.37-.51-.185-.255-.186-.254-.37-.51-.186-.255-.185-.255-.37-.51-.186-.254-.185-.254-.37-.508-.186-.256-.076-.106.02-.014.191-.14.139.191.184.255.185.255.372.51.184.254.185.254.372.51.184.255.185.254.37.51.187.254.184.255.37.51.186.254.185.255.371.51.185.255.185.253.371.51.185.256.185.253.37.51.186.255.185.254.37.51.216.297.063-.042c.174-.116.37-.192.576-.23l.121-.023-.152-.211-.186-.256-.37-.508-.184-.255-.186-.254-.372-.51-.185-.254-.185-.255-.37-.511-.186-.254-.184-.255-.37-.509-.187-.256-.185-.253-.37-.51-.185-.255-.186-.254-.37-.51-.184-.254-.186-.255-.37-.51-.186-.254-.185-.255-.372-.51-.184-.254-.185-.255-.37-.508zm14.45.122-.048.062-.32.416-.193.249-.193.25-.383.498-.193.25-.192.249-.386.5-.191.25-.193.248-.385.499-.192.25-.193.249-.384.498-.193.25-.192.249-.384.499-.192.248-.193.252-.385.498-.192.249-.192.248-.385.501-.192.249-.193.249-.385.499-.191.25-.193.249-.192.248-.117.152.136.018c.147.019.292.054.428.108l.005.001.003.002c.068.019.132.043.195.07l.056.025.111-.143.192-.249.192-.249.385-.5.193-.25.192-.248.385-.5.192-.25.192-.248.385-.498.193-.25.192-.25.384-.498.192-.249.193-.25.385-.499.191-.25.193-.249.385-.498.193-.25.191-.249.385-.5.192-.249.193-.249.385-.497.192-.251.08-.103.02.015.187.144-.144.186-.193.25-.192.249-.384.499-.194.25-.191.249-.385.498-.193.25-.193.249-.383.498-.193.25-.192.25-.386.498-.19.25-.194.249-.384.499-.192.25-.192.247-.387.501-.191.249-.192.249-.385.5-.193.249-.192.249-.384.498-.224.291.058.048c.16.135.288.3.383.488l.056.111.159-.206.193-.25.384-.498.191-.25.194-.25.384-.498.193-.25.192-.249.384-.5.193-.248.192-.25.384-.497.194-.252.191-.248.385-.5.192-.248.193-.25.384-.498.192-.25.193-.249.385-.5.192-.248.192-.249.386-.5.192-.249.192-.249.384-.499.242-.313-.563-.432-.25-.193zm-13.606 7.51-.01.08-.042.311-.752 5.593 13.268 1.78.14-1.04 5.46.732-.041.313.781.104.042-.312 1.04.14.14-1.04 3.12.418.246-1.82-3.123-.42.14-1.04-1.04-.14.043-.312-.782-.105-.042.312-5.461-.733.14-1.04-3.782-.508-.028.036-.444.578-.084.108 3.451.463-.593 4.421-11.704-1.57.592-4.42 2.299.308-.109-.15-.512-.706-.02-.026zm5.576.749.108.148.475.654.061.085.065-.083.413-.535.083-.108zm-4.765.314-.01.079-.029.208-.178 1.325 3.83.515-.108-.149-.34-.469-.02-.027-2.713-.363.063-.47 2.265.305-.107-.149-.343-.47-.02-.026zm5.45 1.032a1.524 1.524 0 1 0 .098 3.047 1.524 1.524 0 0 0-.099-3.047zm2.558.043-.028.037-.297.383-.082.109 3.142.42-.063.468-3.476-.465.03.114c.036.134.052.27.052.409v.07l3.89.521.217-1.612zm-2.562.533a.963.963 0 0 1 .631.196.942.942 0 0 1 .172 1.329.942.942 0 0 1-1.328.173.943.943 0 0 1-.173-1.33.946.946 0 0 1 .698-.368zm.056.108a.844.844 0 1 0 .001 1.687.844.844 0 0 0 0-1.687zm-5.754.157-.01.078-.029.208-.26 1.952 5.773.775.073-.55-.074-.013a1.733 1.733 0 0 1-.39-.116l-.095-.042-.01.07-4.63-.62.147-1.093 3.516.473-.021-.109a1.539 1.539 0 0 1-.024-.407l.004-.073zm12.463.667 5.461.732-.035.26-5.46-.732zm-4.954.34-.017.07c-.032.134-.08.264-.14.388l-.05.098 3.442.462-.146 1.092-4.421-.593.013-.11-.109.024c-.136.03-.273.04-.408.034l-.072-.003-.073.55 5.565.748.3-2.239zm11.197.497.258.035-.035.26-.258-.036zm-6.383.203 5.462.732-.035.26-5.461-.733zm6.244.837.258.035-.035.26-.258-.036zm1.039.14 2.34.312-.035.26-2.34-.313zm-7.423.064 5.462.732-.035.259-5.46-.733zm6.243.837.26.035-.036.258-.259-.033z" color="currentColor" overflow="visible" fill="currentColor" stop-color="currentColor"/>
  <rect width="55.563" height="25.135" x="6.085" y="6.615" rx="2.222" ry="1.341" fill="none" stroke="currentColor" stroke-width="1.588" stroke-linecap="square" paint-order="markers fill stroke"/>
  <path d="m42.598 40.217-7.938 4.582v-9.165Z" fill="currentColor" paint-order="markers fill stroke"/>
  <path d="m34.396 40.217-7.938 4.582v-9.165z" fill="currentColor" paint-order="markers fill stroke"/>
  <path d="m35.08 11.986-.064.046-.51.371-.254.185-.658.48.354.488.187.255.185.254.37.51.185.254.186.254.37.51.186.256.184.255.372.509.185.255.184.255.371.507.186.257.184.253.371.51.186.254.184.256.371.508.185.255.186.255.37.511.185.253.185.255.37.51.186.254.185.255.185.255.113.155.056-.127c.06-.136.133-.265.224-.38l.003-.003.001-.004c.037-.06.08-.114.124-.166l.04-.048-.109-.147-.183-.253-.186-.255-.372-.51-.184-.256-.185-.254-.371-.51-.186-.254-.184-.255-.37-.508-.187-.256-.184-.253-.37-.51-.185-.254-.186-.255-.37-.51-.185-.255-.186-.254-.37-.51-.186-.255-.185-.255-.37-.51-.186-.254-.185-.254-.37-.508-.186-.256-.076-.106.02-.014.191-.14.139.191.184.255.185.255.372.51.184.254.185.254.372.51.184.255.185.254.37.51.187.254.184.255.37.51.186.254.185.255.371.51.185.255.185.253.371.51.185.256.185.253.37.51.186.255.185.254.37.51.216.297.063-.042c.174-.116.37-.192.576-.23l.121-.023-.152-.211-.186-.256-.37-.508-.184-.255-.186-.254-.372-.51-.185-.254-.185-.255-.37-.511-.186-.254-.184-.254-.37-.51-.187-.256-.185-.253-.37-.51-.185-.255-.186-.254-.37-.51-.185-.254-.185-.255-.37-.51-.186-.254-.185-.255-.372-.51-.184-.254-.185-.255-.37-.508Zm14.451.122-.048.062-.32.416-.193.249-.193.25-.383.498-.193.25-.192.249-.386.5-.191.25-.193.248-.385.499-.192.25-.193.249-.384.498-.193.25-.192.249-.384.499-.192.248-.193.252-.385.498-.192.249-.192.248-.385.501-.192.249-.193.249-.385.499-.191.25-.193.249-.192.248-.117.152.136.018c.147.019.292.054.428.108l.005.001.003.002c.068.019.132.043.195.07l.056.025.111-.143.192-.249.192-.249.385-.5.193-.25.192-.248.385-.5.192-.25.192-.248.385-.498.193-.25.192-.25.384-.498.192-.249.193-.25.385-.499.191-.25.193-.249.385-.498.193-.25.191-.249.385-.5.193-.249.192-.249.385-.497.192-.251.08-.103.02.015.187.144-.144.186-.193.25-.192.249-.384.499-.194.25-.191.249-.385.498-.193.25-.193.249-.383.498-.193.25-.192.25-.385.498-.192.25-.193.249-.384.499-.192.25-.192.247-.387.501-.191.249-.192.249-.385.5-.193.249-.192.249-.384.498-.224.291.058.048c.16.135.288.3.383.488l.056.111.159-.206.193-.25.384-.498.191-.25.194-.25.384-.498.193-.25.192-.249.384-.5.193-.248.192-.25.384-.497.194-.252.191-.248.385-.5.192-.248.193-.25.384-.498.192-.25.193-.249.385-.5.192-.248.192-.249.386-.5.192-.249.192-.249.384-.499.242-.313-.563-.432-.25-.193zm-13.606 7.51-.01.08-.042.311-.752 5.593 13.268 1.78.14-1.04 5.46.732-.041.313.781.104.042-.312 1.04.14.14-1.04 3.12.418.246-1.82-3.123-.42.14-1.04-1.04-.14.043-.312-.782-.105-.042.312-5.461-.733.14-1.04-3.782-.508-.028.036-.444.578-.084.108 3.451.463-.593 4.421-11.704-1.57.592-4.42 2.299.308-.109-.15-.512-.706-.02-.026zm5.576.749.108.148.475.654.061.085.065-.083.413-.535.083-.108zm-4.765.314-.01.079-.029.208-.178 1.325 3.83.515-.108-.149-.34-.469-.02-.027-2.713-.363.063-.47 2.265.305-.107-.149-.343-.47-.02-.026zm5.45 1.032a1.524 1.524 0 1 0 .098 3.047 1.524 1.524 0 0 0-.099-3.047zm2.558.043-.028.037-.297.383-.082.109 3.142.42-.063.468-3.476-.465.03.114c.036.134.052.27.052.409v.07l3.89.521.217-1.612zm-2.562.533a.941.941 0 0 1 .632.197c.417.321.493.91.171 1.328a.942.942 0 0 1-1.328.173.943.943 0 0 1-.173-1.33.946.946 0 0 1 .698-.368zm.056.108a.844.844 0 1 0 .001 1.687.844.844 0 0 0 0-1.687zm-5.754.157-.01.078-.029.208-.26 1.952 5.773.775.073-.55-.074-.013a1.733 1.733 0 0 1-.39-.116l-.095-.042-.01.07-4.63-.62.147-1.093 3.516.473-.021-.109a1.538 1.538 0 0 1-.024-.407l.004-.073zm12.463.667 5.461.732-.035.26-5.46-.732zm-4.954.34-.017.07a1.84 1.84 0 0 1-.14.388l-.05.098 3.442.462-.146 1.092-4.421-.593.013-.11-.109.024c-.136.03-.273.04-.408.034l-.072-.003-.073.55 5.565.748.3-2.239zm11.197.497.258.035-.035.26-.258-.036zm-6.382.203 5.46.732-.034.26-5.461-.733zm6.243.837.258.035-.035.26-.258-.036zm1.039.14 2.34.312-.035.26-2.34-.313zm-7.423.064 5.462.732-.035.259-5.46-.733zm6.243.837.26.035-.036.258-.259-.033z" color="currentColor" overflow="visible" fill="currentColor" stop-color="currentColor"/>
  <text x="50%" y="93%" font-size="17" alignment="bottom" text-anchor="middle">???</text>

</svg>
