<svg xmlns="http://www.w3.org/2000/svg" viewBox="0 0 67.733 67.733">
  <path d="M29.104 35.718h10.583v5.292H29.104z" fill="currentColor" paint-order="markers fill stroke"/>
  <path d="m43.656 38.364-5.292 4.583v-9.165z" fill="currentColor" paint-order="markers fill stroke"/>
  <path d="M32.372 12.348a6.967 6.967 0 0 0-5.985 7.827 6.967 6.967 0 0 0 1.406 3.358c4.182-.507 8.294-1.415 12.271-2.64a6.967 6.967 0 0 0 .134-2.559 6.967 6.967 0 0 0-7.826-5.986zm6.807.285c-.377.05-.76.105-1.141.16a8.018 8.018 82.408 0 1 1.055.926l.226-.031c4.891-.641 9.33-.845 12.9-.636 2.595.151 4.732.523 6.22 1.077 1.49.555 2.252 1.255 2.398 1.984.145.729-.287 1.67-1.448 2.756-.22.205-.47.414-.736.624a2.656 2.656 0 0 0-2.16-.688 2.656 2.656 0 0 0-2.28 2.983 2.656 2.656 0 0 0 .073.36l-.223.112c-4.675 2.279-11.383 4.463-18.97 5.982-7.587 1.52-14.62 2.088-19.812 1.785-2.596-.151-4.732-.524-6.221-1.078-1.49-.554-2.251-1.257-2.397-1.986-.146-.728.287-1.667 1.448-2.752 1.16-1.085 2.989-2.253 5.326-3.392 3.264-1.591 7.519-3.135 12.371-4.44a8.018 8.018 82.408 0 1 .617-1.263c-5.273 1.365-9.905 3.02-13.453 4.75-2.397 1.168-4.3 2.364-5.587 3.567-1.287 1.203-2.019 2.473-1.765 3.739.253 1.266 1.417 2.156 3.068 2.771 1.652.615 3.869.99 6.53 1.144 5.325.31 12.422-.27 20.083-1.804 7.66-1.535 14.434-3.732 19.228-6.069l.24-.12a2.656 2.656 0 0 0 2.426.975 2.656 2.656 0 0 0 2.282-2.983 2.656 2.656 0 0 0-.206-.728c.302-.238.589-.477.844-.715 1.287-1.204 2.018-2.473 1.764-3.74-.253-1.265-1.417-2.155-3.068-2.77-1.651-.614-3.868-.987-6.53-1.142-3.66-.214-8.159-.006-13.102.642zm.06 1.244a8.018 8.018 82.408 0 1 .772 1.002c1.722-.149 3.31-.213 4.678-.175 1.64.045 2.985.226 3.899.513.457.143.802.315 1.02.482.22.167.304.309.332.445.028.136.007.3-.128.54-.135.24-.383.534-.746.847-.726.625-1.889 1.325-3.376 2.016-2.974 1.381-7.247 2.746-12.071 3.744-4.734.978-9.115 1.418-12.375 1.35a1.77 1.77 0 0 0-1.95-1.324 1.77 1.77 0 0 0-1.37 1.005 7.993 7.993 0 0 1-.771-.196c-.457-.143-.805-.313-1.023-.48-.22-.166-.303-.31-.33-.446-.029-.137-.009-.3.126-.54.135-.24.385-.535.748-.848.726-.625 1.89-1.325 3.376-2.016 1.492-.693 3.311-1.381 5.362-2.022a8.018 8.018 82.408 0 1 .326-1.206c-2.344.705-4.434 1.476-6.135 2.266-1.541.717-2.771 1.442-3.621 2.175-.425.366-.758.734-.98 1.13-.223.396-.334.84-.244 1.276.09.435.368.799.73 1.074.36.275.813.482 1.348.65.29.091.608.17.947.239a1.77 1.77 0 0 0 1.978 1.45 1.77 1.77 0 0 0 1.42-1.124c3.38.075 7.835-.376 12.652-1.371 4.891-1.011 9.221-2.39 12.304-3.822 1.542-.716 2.772-1.443 3.622-2.176.425-.367.757-.736.98-1.132.222-.396.334-.84.244-1.275-.09-.435-.369-.799-.73-1.074-.361-.276-.813-.482-1.349-.65-1.07-.336-2.487-.514-4.186-.56-1.602-.044-3.455.033-5.479.233zm-.793 10.067a74.68 74.68 0 0 1-7.894 1.716 6.967 6.967 0 0 0 3.66.5 6.967 6.967 0 0 0 4.234-2.216z" color="currentColor" overflow="visible" fill="currentColor" paint-order="markers fill stroke" stop-color="currentColor"/>
  <text x="50%" y="93%" font-size="17" alignment="bottom" text-anchor="middle">???</text>

</svg>
