<svg xmlns="http://www.w3.org/2000/svg" viewBox="0 0 67.733 67.733">
  <path d="M25.832 20.68a4.716 4.855 0 0 0-4.709 4.86v140.25a4.716 4.855 0 0 0 4.709 4.85h204.322a4.716 4.855 0 0 0 4.721-4.85V25.539a4.716 4.855 0 0 0-4.72-4.86zm4.72 9.718h194.893v130.536H30.553Zm26.57 5.932v6.205H36.128v1.074H57.12v16.453H36.13v1.075h20.99v16.455H36.13v1.082h20.99v11.238c.345-.47.69-.94 1.045-1.4v-9.838h9.094c.4-.364.798-.727 1.205-1.082H58.166V61.137h22.531v7.63c.347-.205.694-.41 1.043-.61v-7.02h15.49c1.098-.378 2.2-.738 3.311-1.075h-18.8V43.61h22.532v15.41c.348-.09.695-.18 1.043-.265V43.609h22.534v12.46c.347-.001.695.005 1.043.007V43.61h22.53v15.21c.35.086.697.182 1.046.273V43.609H175v16.453h-19.08a91.21 91.21 0 0 1 3.309 1.075H175v7.218c.35.204.696.413 1.043.622v-7.84h22.533v16.455H187.9c.41.358.82.716 1.223 1.082h9.453v10.305c.354.465.7.936 1.043 1.41V78.674h19.877v-1.082H199.62V61.137h19.877v-1.075H199.62V43.61h19.877v-1.074H199.62V36.33h-1.043v6.205h-22.533V36.33H175v6.205h-22.531V36.33h-1.045v6.205h-22.531V36.33h-1.043v6.205h-22.534V36.33h-1.043v6.205H81.74V36.33h-1.043v6.205H58.166V36.33zm1.044 7.28h22.531v16.453H58.166zm117.877 0h22.533v16.453h-22.533zM36.129 95.128v1.074h18.674a8.679 8.679 0 0 1 .006-1.074zm166.644 0c.132.216.27.427.399.644l-.297.43h16.621V95.13zm-3.154 5.736c-.184.258-.362.52-.549.776-.16.221-.33.435-.494.654v10.361h-9.357c-.396.364-.8.72-1.203 1.074h10.56v16.454h-22.533v-7.727c-.347.208-.693.42-1.043.623v7.104h-15.566a92.98 92.98 0 0 1-3.334 1.084H175v16.455h-22.531v-15.428c-.348.09-.696.183-1.045.27v15.158h-22.531V135.37a90.79 90.79 0 0 1-1.043.006v12.346h-22.534V132.65c-.347-.086-.696-.167-1.043-.256v15.328H81.74v-16.455h18.553a92.878 92.878 0 0 1-3.352-1.084h-15.2v-6.918c-.349-.2-.699-.395-1.044-.6v7.518H58.166V113.73h10.205c-.4-.352-.79-.714-1.183-1.075h-9.022v-9.869c-.124-.162-.252-.32-.375-.484a7.854 7.854 0 0 1-.67-.629v10.982H36.13v1.075h20.99v16.453H36.13v1.084h20.99v16.455H36.13v1.074h20.99V155h1.045v-6.203h22.531V155h1.043v-6.203h22.533V155h1.043v-6.203h22.534V155h1.043v-6.203h22.53V155h1.046v-6.203H175V155h1.043v-6.203h22.533V155h1.043v-6.203h19.877v-1.074H199.62v-16.455h19.877v-1.084H199.62V113.73h19.877v-1.074H199.62ZM58.166 131.268h22.531v16.455H58.166zm117.877 0h22.533v16.455h-22.533z" transform="scale(.26458)" color="currentColor" overflow="visible" fill="currentColor" stop-color="currentColor"/>
  <path d="M33.92 16.943a19.951 16.758 0 0 0-17.279 8.38 19.951 16.758 0 0 0 17.279 8.379 19.951 16.758 0 0 0 17.278-8.38 19.951 16.758 0 0 0-17.278-8.379Zm-.065 1.995a6.384 6.384 0 0 1 .065 0 6.384 6.384 0 0 1 6.384 6.384 6.384 6.384 0 0 1-6.384 6.385 6.384 6.384 0 0 1-6.385-6.385 6.384 6.384 0 0 1 6.32-6.384zM34 20.375a4.977 4.977 0 0 0-4.978 4.977A4.977 4.977 0 0 0 34 30.329a4.977 4.977 0 0 0 3.382-1.326 3.891 3.891 0 0 1-1.346.24 3.891 3.891 0 0 1-3.892-3.891 3.891 3.891 0 0 1 3.892-3.891 3.891 3.891 0 0 1 1.346.24A4.977 4.977 0 0 0 34 20.375z" fill="currentColor" paint-order="markers stroke fill"/>

  <text x="50%" y="93%" font-size="12" alignment="bottom" text-anchor="middle">night vision</text>
</svg>
