<svg xmlns="http://www.w3.org/2000/svg" viewBox="0 0 67.733 67.733">
  <path d="M32.8 17.174a.514.514 0 0 0-.272.084l-.973.636a.55.55 0 0 0-.164.745l1.848 3.013a.514.514 0 0 0 .723.166l.974-.636a.55.55 0 0 0 .163-.745l-1.848-3.013a.518.518 0 0 0-.452-.25zm-17.38.041a.519.519 0 0 0-.43.25l-1.848 3.014a.55.55 0 0 0 .163.745l.973.635c.245.16.568.085.723-.166l1.848-3.013a.55.55 0 0 0-.163-.745l-.973-.636a.513.513 0 0 0-.293-.084zm1.856 1.826a.52.52 0 0 0-.386.185.547.547 0 0 0 .051.76l2 1.782a.517.517 0 0 0 .74-.053.547.547 0 0 0-.05-.76l-2-1.782a.518.518 0 0 0-.355-.132zm13.806 0a.513.513 0 0 0-.352.132l-2 1.783a.547.547 0 0 0-.05.76c.19.223.521.247.74.052l2-1.783a.547.547 0 0 0 .051-.76.52.52 0 0 0-.389-.184zm-10.645 1.25a.468.468 0 0 0-.46.476v6.537c0 .262.206.475.46.475h7.487a.468.468 0 0 0 .46-.475v-6.537a.468.468 0 0 0-.46-.475zm.575.596h6.336c.254 0 .46.212.46.475v3.565a.468.468 0 0 1-.46.476h-6.335a.468.468 0 0 1-.461-.476v-3.565c0-.262.206-.475.46-.475zm-6.91 4.208c-.87 0-1.576.723-1.576 1.615v4.159c0 .891.706 1.615 1.577 1.614.87 0 1.575-.723 1.575-1.614v-4.16c0-.891-.705-1.614-1.575-1.614zm4.032 0c-.871 0-1.577.723-1.577 1.615v4.159c0 .892.706 1.615 1.577 1.614.87 0 1.576-.723 1.576-1.614v-4.16c0-.891-.706-1.614-1.576-1.614zm12.093 0c-.87 0-1.576.723-1.576 1.615v4.159c0 .891.706 1.615 1.576 1.614.87 0 1.576-.723 1.576-1.614v-4.16c0-.891-.705-1.614-1.576-1.614zm4.032 0c-.871 0-1.577.723-1.577 1.615v4.159c0 .892.706 1.615 1.577 1.614.87 0 1.575-.723 1.575-1.614v-4.16c0-.89-.705-1.614-1.575-1.614zm-13.246 3.454c-.29 0-.525.24-.526.537 0 .297.236.539.526.538h6.334c.29 0 .526-.24.526-.538a.532.532 0 0 0-.526-.537z" color="currentColor" overflow="visible" fill="currentColor" stop-color="currentColor"/>
  <path d="M39.822 13.269a.417.427 0 0 0-.417.429v8.548a.417.427 0 0 0 .417.427H55.12a.417.427 0 0 0 .416-.427v-8.548a.417.427 0 0 0-.416-.429zm.416.856h14.464v7.692H40.238Z" color="currentColor" overflow="visible" fill="currentColor" paint-order="markers fill stroke" stop-color="currentColor"/>
  <path d="M39.822 26.091a.417.427 0 0 0-.417.43v9.971a.417.427 0 0 0 .417.427H55.12a.417.427 0 0 0 .416-.427V26.52a.417.427 0 0 0-.416-.429zm.416.856h14.464v9.118H40.238Z" color="currentColor" overflow="visible" fill="currentColor" paint-order="markers fill stroke" stop-color="currentColor"/>
  <path d="M41.212 16.547h5.563" fill="currentColor" stroke="currentColor" stroke-width=".845" stroke-linejoin="round" stroke-dashoffset="6" paint-order="markers fill stroke"/>
  <path d="M41.212 17.971h8.345" fill="currentColor" stroke="currentColor" stroke-width=".845" stroke-linejoin="round" stroke-dashoffset="6" paint-order="markers fill stroke"/>
  <path d="M41.212 19.396h5.563" fill="currentColor" stroke="currentColor" stroke-width=".845" stroke-linejoin="round" stroke-dashoffset="6" paint-order="markers fill stroke"/>
  <path d="M49.557 29.369h4.172" fill="currentColor" stroke="currentColor" stroke-width=".845" stroke-linejoin="round" stroke-dashoffset="6" paint-order="markers fill stroke"/>
  <path d="M43.994 30.793h9.735" fill="currentColor" stroke="currentColor" stroke-width=".845" stroke-linejoin="round" stroke-dashoffset="6" paint-order="markers fill stroke"/>
  <path d="M43.994 33.643h-2.782" fill="currentColor" stroke="currentColor" stroke-width=".845" stroke-linejoin="round" stroke-dashoffset="6" paint-order="markers fill stroke"/>
  <path d="M46.775 33.643h6.954" fill="currentColor" stroke="currentColor" stroke-width=".845" stroke-linejoin="round" stroke-dashoffset="6" paint-order="markers fill stroke"/>
  <path d="M6.542 5.29a1.252 1.282 0 0 0-1.25 1.284v37.042a1.252 1.282 0 0 0 1.25 1.281h54.24a1.252 1.282 0 0 0 1.252-1.28V6.573a1.252 1.282 0 0 0-1.253-1.283Zm1.252 2.567h51.737v34.476H7.794Z" color="currentColor" overflow="visible" fill="currentColor" stop-color="currentColor"/>
  <path d="M12.006 10.848h6.954" fill="none" stroke="currentColor" stroke-width=".563" stroke-linejoin="round" stroke-dashoffset="6" paint-order="markers fill stroke"/>
  <path d="M12.006 12.273h4.173" fill="none" stroke="currentColor" stroke-width=".563" stroke-linejoin="round" stroke-dashoffset="6" paint-order="markers fill stroke"/>
  <path d="M12.006 13.697h6.954" fill="none" stroke="currentColor" stroke-width=".563" stroke-linejoin="round" stroke-dashoffset="6" paint-order="markers fill stroke"/>

  <text x="50%" y="93%" font-size="12" alignment="bottom" text-anchor="middle">role panel</text>

</svg>
