<svg xmlns="http://www.w3.org/2000/svg" viewBox="0 0 67.733 67.733">
  <path d="M27.885 16.078a.674.6 0 0 0-.676.599v3.393h-1.57a.674.6 0 0 0-.674.602v1.398h-3.816a.674.6 0 0 0-.676.598.674.6 0 0 0 .676.599h3.816v2.795h-3.816a.674.6 0 0 0-.676.601.674.6 0 0 0 .676.6h3.816v1.397a.674.6 0 0 0 .673.598h1.571v3.397a.674.6 0 0 0 .676.599.674.6 0 0 0 .674-.6v-3.396h4.04v3.397a.674.6 0 0 0 .674.599.674.6 0 0 0 .672-.6v-3.396h4.492v3.397a.674.6 0 0 0 .674.599.674.6 0 0 0 .676-.6v-3.396h1.57a.674.6 0 0 0 .674-.598v-1.398h3.816a.674.6 0 0 0 .676-.599.674.6 0 0 0-.676-.601H42.03v-2.795h3.816a.674.6 0 0 0 .676-.599.674.6 0 0 0-.676-.598H42.03v-1.398a.674.6 0 0 0-.673-.602h-1.571v-3.393a.674.6 0 0 0-.676-.599.674.6 0 0 0-.674.599v3.393h-4.04v-3.393a.674.6 0 0 0-.674-.599.674.6 0 0 0-.672.599v3.393h-4.492v-3.393a.674.6 0 0 0-.674-.599zm0 5.394h11.226a1.347 1.198 0 0 1 1.348 1.196v3.995a1.347 1.198 0 0 1-1.348 1.198H27.885a1.347 1.198 0 0 1-1.349-1.198v-3.995a1.347 1.198 0 0 1 1.35-1.196z" color="currentColor" overflow="visible" fill="currentColor" stop-color="currentColor"/>
  <path d="M40.499 5.78v2.296c6.57 2.707 11.189 9.166 11.189 16.722 0 7.557-4.618 14.018-11.19 16.725v2.296c7.772-2.825 13.334-10.282 13.334-19.02 0-8.74-5.562-16.194-13.333-19.019zm-13.904.04C18.881 8.674 13.372 16.1 13.372 24.798c0 8.699 5.509 16.126 13.223 18.981v-2.298c-6.513-2.734-11.078-9.167-11.078-16.683 0-7.515 4.565-13.947 11.078-16.68z" color="currentColor" overflow="visible" fill="currentColor" paint-order="markers fill stroke" stop-color="currentColor"/>
  <path d="m24.892 11.936-3.637-5.962 6.983-.169Z" fill="currentColor" paint-order="markers fill stroke"/>
  <path d="m44.445 44.45-6.981-.167 3.636-5.964Z" fill="currentColor" paint-order="markers fill stroke"/>
  <text x="50%" y="93%" font-size="17" alignment="bottom" text-anchor="middle">???</text>

</svg>
