<svg xmlns="http://www.w3.org/2000/svg" viewBox="0 0 67.733 67.733">
  <path d="M6.542 5.29a1.252 1.282 0 0 0-1.25 1.284v37.042a1.252 1.282 0 0 0 1.25 1.281h54.24a1.252 1.282 0 0 0 1.252-1.28V6.573a1.252 1.282 0 0 0-1.253-1.283Zm1.252 2.567h51.737v34.476H7.794Z" color="currentColor" overflow="visible" fill="currentColor" stop-color="currentColor"/>
  <path d="M40.502 12.72 26.884 36.93l1.583.89 2.656-4.72a18.915 15.888 0 0 0 2.264.114 18.915 15.888 0 0 0 16.381-7.944 18.915 15.888 0 0 0-10.254-7.087l2.572-4.572zm-7.115 4.606a18.915 15.888 0 0 0-16.38 7.944 18.915 15.888 0 0 0 10.504 7.158l1.61-2.864a6.053 6.053 0 0 1-1.786-4.294 6.053 6.053 0 0 1 5.991-6.053 6.053 6.053 0 0 1 .061 0 6.053 6.053 0 0 1 1.455.178l1.083-1.926a18.915 15.888 0 0 0-2.538-.143zm4.448 3.84a6.053 6.053 0 0 1 1.605 4.104 6.053 6.053 0 0 1-6.053 6.053 6.053 6.053 0 0 1-1.197-.12z" fill="currentColor" paint-order="markers stroke fill"/>

  <text x="50%" y="93%" font-size="12" alignment="bottom" text-anchor="middle">silent runn.</text>
</svg>
