<svg xmlns="http://www.w3.org/2000/svg" viewBox="0 0 67.733 67.733">
  <g stroke-width="1.397" color="currentColor" fill="currentColor">
    <path d="M25.256 9.625a.928.935 0 0 0-.928.935v12.855a.928.935 0 0 0 .928.936h15.082a.928.935 0 0 0 .929-.936V10.56a.928.935 0 0 0-.929-.935Zm1.16 1.17h12.763a.928.935 0 0 1 .928.934v7.012a.928.935 0 0 1-.928.936H26.416a.928.935 0 0 1-.929-.936V11.73a.928.935 0 0 1 .929-.934z" transform="translate(10.523 3.55) scale(.7156)" overflow="visible" stop-color="currentColor"/>
    <path d="M12.492 19.072a3.175 3.175 0 0 0-3.174 3.174v8.182a3.175 3.175 0 0 0 3.174 3.174 3.175 3.175 0 0 0 3.176-3.174v-8.182a3.175 3.175 0 0 0-3.176-3.174z" transform="translate(10.523 3.55) scale(.7156)" overflow="visible" stop-color="currentColor"/>
    <path d="M20.615 19.072a3.175 3.175 0 0 0-3.176 3.174v8.182a3.175 3.175 0 0 0 3.176 3.174 3.175 3.175 0 0 0 3.174-3.174v-8.182a3.175 3.175 0 0 0-3.174-3.174z" transform="translate(10.523 3.55) scale(.7156)" overflow="visible" stop-color="currentColor"/>
    <path d="M44.979 19.072a3.175 3.175 0 0 0-3.174 3.174v8.182a3.175 3.175 0 0 0 3.174 3.174 3.175 3.175 0 0 0 3.175-3.174v-8.182a3.175 3.175 0 0 0-3.175-3.174z" transform="translate(10.523 3.55) scale(.7156)" overflow="visible" stop-color="currentColor"/>
    <path d="M53.102 19.072a3.175 3.175 0 0 0-3.176 3.174v8.182a3.175 3.175 0 0 0 3.176 3.174 3.175 3.175 0 0 0 3.173-3.174v-8.182a3.175 3.175 0 0 0-3.173-3.174z" transform="translate(10.523 3.55) scale(.7156)" overflow="visible" stop-color="currentColor"/>
    <path d="M26.416 25.863a1.058 1.058 0 0 0-1.059 1.059 1.058 1.058 0 0 0 1.059 1.058h12.762a1.058 1.058 0 0 0 1.058-1.058 1.058 1.058 0 0 0-1.058-1.059z" transform="translate(10.523 3.55) scale(.7156)" overflow="visible" stop-color="currentColor"/>
    <path d="M18.887 7.164a1.058 1.058 0 0 0-.78.363 1.058 1.058 0 0 0 .104 1.494l4.03 3.506a1.058 1.058 0 0 0 1.491-.103 1.058 1.058 0 0 0-.103-1.494l-4.027-3.506a1.058 1.058 0 0 0-.715-.26Z" transform="translate(10.523 3.55) scale(.7156)" overflow="visible" stop-color="currentColor"/>
    <path d="M46.64 7.166a1.058 1.058 0 0 0-.648.258l-4.027 3.506a1.058 1.058 0 0 0-.104 1.494 1.058 1.058 0 0 0 1.493.103l4.029-3.506a1.058 1.058 0 0 0 .103-1.494 1.058 1.058 0 0 0-.845-.361Z" transform="translate(10.523 3.55) scale(.7156)" overflow="visible" stop-color="currentColor"/>
    <path d="M15.314-4.249h2.325V2.75h-2.325z" transform="matrix(.6034 .38472 -.38077 .6059 10.523 3.55)" overflow="visible" stop-color="currentColor"/>
    <path d="M15.314-5.307a1.058 1.058 0 0 0-1.058 1.059v6.996a1.058 1.058 0 0 0 1.058 1.059h2.325a1.058 1.058 0 0 0 1.058-1.059v-6.996a1.058 1.058 0 0 0-1.058-1.059zm1.059 2.118h.207v4.88h-.207z" transform="matrix(.6034 .38472 -.38077 .6059 10.523 3.55)" overflow="visible" stop-color="currentColor"/>
    <path d="M-40.063 30.817h2.326v6.997h-2.326z" transform="matrix(-.6034 .38472 .38077 .6059 10.523 3.55)" overflow="visible" stop-color="currentColor"/>
    <path d="M-40.063 29.758a1.058 1.058 0 0 0-1.058 1.058v6.998a1.058 1.058 0 0 0 1.059 1.059h2.324a1.058 1.058 0 0 0 1.058-1.059v-6.998a1.058 1.058 0 0 0-1.058-1.058zm1.06 2.117h.208v4.88h-.209z" transform="matrix(-.6034 .38472 .38077 .6059 10.523 3.55)" overflow="visible" stop-color="currentColor"/>
  </g>
  <path d="M29.178 30.034a.581.517 0 0 0-.583.516v2.93h-1.356a.581.517 0 0 0-.582.519v1.206h-3.293a.581.517 0 0 0-.584.517.581.517 0 0 0 .584.516h3.293v2.413h-3.293a.581.517 0 0 0-.584.52.581.517 0 0 0 .584.517h3.293v1.206a.581.517 0 0 0 .582.516h1.356v2.932a.581.517 0 0 0 .583.517.581.517 0 0 0 .582-.517V41.41h3.488v2.932a.581.517 0 0 0 .58.517.581.517 0 0 0 .58-.517V41.41h3.878v2.932a.581.517 0 0 0 .581.517.581.517 0 0 0 .584-.517V41.41h1.356a.581.517 0 0 0 .581-.516v-1.206h3.294a.581.517 0 0 0 .583-.518.581.517 0 0 0-.583-.519h-3.294v-2.413h3.294a.581.517 0 0 0 .583-.516.581.517 0 0 0-.583-.517h-3.294V34a.581.517 0 0 0-.581-.52h-1.356v-2.93a.581.517 0 0 0-.584-.516.581.517 0 0 0-.581.516v2.93h-3.488v-2.93a.581.517 0 0 0-.58-.516.581.517 0 0 0-.581.516v2.93H29.76v-2.93a.581.517 0 0 0-.582-.516zm0 4.655h9.69a1.163 1.034 0 0 1 1.164 1.033v3.448a1.163 1.034 0 0 1-1.165 1.034h-9.689a1.163 1.034 0 0 1-1.164-1.034v-3.448a1.163 1.034 0 0 1 1.164-1.033z" color="currentColor" overflow="visible" fill="currentColor" stop-color="currentColor"/>
  <path d="M58.13 32.15v5.291h-7.938" fill="none" stroke="currentColor" stroke-width="1.587" stroke-linecap="round" stroke-linejoin="round"/>
  <path d="M9.182 32.15v5.291h7.937" fill="none" stroke="currentColor" stroke-width="1.587" stroke-linecap="round" stroke-linejoin="round"/>

  <text x="50%" y="93%" font-size="12" alignment="bottom" text-anchor="middle">drive assist</text>
</svg>
