<svg xmlns="http://www.w3.org/2000/svg" viewBox="0 0 67.733 67.733">
  <path d="M190.863 33.594a3.987 4.013 12.666 0 0-2.062.625l-7.412 4.726a3.987 4.013 12.666 0 0-1.246 5.54l14.074 22.394a3.987 4.013 12.666 0 0 5.502 1.236l7.414-4.726a3.987 4.013 12.666 0 0 1.244-5.54l-14.074-22.394a3.987 4.013 12.666 0 0-3.44-1.861zm-132.334.31a4.013 3.987 77.334 0 0-3.271 1.862L41.184 58.16a4.013 3.987 77.334 0 0 1.244 5.537l7.408 4.723a4.013 3.987 77.334 0 0 5.502-1.236l14.074-22.395a4.013 3.987 77.334 0 0-1.246-5.539l-7.406-4.723a4.013 3.987 77.334 0 0-2.23-.623zM72.66 47.473a4 4 0 0 0-2.937 1.373 4 4 0 0 0 .39 5.646l15.221 13.252a4 4 0 0 0 5.648-.392 4 4 0 0 0-.392-5.647l-15.23-13.25a4 4 0 0 0-2.7-.982zm105.13.004a4 4 0 0 0-.233.003 4 4 0 0 0-2.452.975l-15.22 13.25a4 4 0 0 0-.393 5.647 4 4 0 0 0 5.64.392l15.23-13.252a4 4 0 0 0 .392-5.646 4 4 0 0 0-2.965-1.37zM96.733 56.77a3.508 3.534 0 0 0-3.507 3.536v48.586a3.508 3.534 0 0 0 3.507 3.535h57.004a3.508 3.534 0 0 0 3.51-3.535V60.307a3.508 3.534 0 0 0-3.51-3.536H96.734zm4.375 4.422a3.508 3.534 0 0 1 .008 0h48.238a3.508 3.534 0 0 1 3.51 3.534v26.502a3.508 3.534 0 0 1-3.51 3.535h-48.238a3.508 3.534 0 0 1-3.51-3.535V64.727a3.508 3.534 0 0 1 3.502-3.534zm-52.611 31.28a12 12 0 0 0-12.002 12.004v30.914a12 12 0 0 0 12.002 12.004 12 12 0 0 0 11.996-12.004v-30.914a12 12 0 0 0-11.996-12.004zm30.695 0a12 12 0 0 0-12.004 12.004v30.914a12 12 0 0 0 12.004 12.004 12 12 0 0 0 12.002-12.004v-30.914a12 12 0 0 0-12.002-12.004zm92.088 0a12 12 0 0 0-12.002 12.004v30.914a12 12 0 0 0 12.002 12.004 12 12 0 0 0 11.996-12.004v-30.914a12 12 0 0 0-11.996-12.004zm30.696 0a12 12 0 0 0-12.004 12.004v30.914a12 12 0 0 0 12.004 12.004 12 12 0 0 0 11.994-12.004v-30.914a12 12 0 0 0-11.994-12.004zm-100.86 25.673a4 4 0 0 0-4.002 3.995 4 4 0 0 0 4.002 4.002h48.233a4 4 0 0 0 4.002-4.002 4 4 0 0 0-4.002-3.995h-48.233z" transform="scale(.26458)" color="currentColor" overflow="visible" fill="currentColor" stop-color="currentColor"/>

  <text x="50%" y="93%" font-size="12" alignment="bottom" text-anchor="middle">brake</text>
</svg>
