<svg xmlns="http://www.w3.org/2000/svg" viewBox="0 0 67.733 67.733">
  <path d="M32.486 17.532a7.005 7.005 0 0 0-6.018 7.87 7.005 7.005 0 0 0 1.414 3.375c4.204-.509 8.339-1.422 12.338-2.654a7.005 7.005 0 0 0 .135-2.573 7.005 7.005 0 0 0-7.87-6.018zm6.844.287c-.379.05-.764.105-1.147.16a8.061 8.061 82.408 0 1 1.06.932l.228-.032c4.918-.645 9.38-.85 12.97-.64 2.61.152 4.758.527 6.255 1.084 1.497.557 2.263 1.262 2.41 1.994.146.733-.289 1.68-1.456 2.771-.22.206-.472.416-.74.627a2.67 2.67 0 0 0-2.17-.691 2.67 2.67 0 0 0-2.295 2.999 2.67 2.67 0 0 0 .075.362c-.076.037-.148.075-.225.112-4.7 2.292-11.445 4.488-19.073 6.016-7.629 1.528-14.7 2.099-19.92 1.794-2.61-.152-4.758-.527-6.256-1.084-1.497-.557-2.263-1.264-2.41-1.996-.146-.733.29-1.677 1.456-2.768 1.167-1.09 3.006-2.265 5.356-3.41 3.281-1.6 7.56-3.153 12.438-4.464a8.061 8.061 82.408 0 1 .621-1.27c-5.302 1.372-9.96 3.036-13.527 4.775-2.41 1.175-4.323 2.377-5.617 3.587-1.295 1.21-2.03 2.486-1.775 3.76.255 1.273 1.425 2.168 3.085 2.786 1.66.618 3.89.994 6.566 1.15 5.353.313 12.49-.271 20.192-1.814 7.702-1.543 14.513-3.752 19.333-6.102.082-.04.16-.081.24-.121a2.67 2.67 0 0 0 2.44.98 2.67 2.67 0 0 0 2.295-2.999 2.67 2.67 0 0 0-.208-.732c.305-.24.592-.479.85-.719 1.293-1.21 2.028-2.486 1.773-3.759-.255-1.273-1.425-2.168-3.085-2.786-1.66-.618-3.89-.992-6.566-1.148-3.68-.215-8.203-.006-13.173.646zm.06 1.25a8.061 8.061 82.408 0 1 .777 1.008c1.73-.15 3.328-.214 4.704-.177 1.647.045 3 .228 3.92.516.459.144.806.318 1.026.485.22.168.305.31.333.447.028.138.007.303-.129.544-.135.241-.385.536-.75.85-.73.63-1.9 1.333-3.394 2.028-2.99 1.389-7.287 2.761-12.138 3.764-4.76.984-9.164 1.426-12.442 1.357a1.78 1.78 0 0 0-1.961-1.33 1.78 1.78 0 0 0-1.377 1.01 8.035 8.035 0 0 1-.775-.197c-.46-.144-.809-.314-1.029-.482-.22-.168-.304-.312-.332-.45-.029-.137-.008-.3.127-.541.136-.242.388-.539.752-.853.73-.63 1.9-1.333 3.395-2.027 1.5-.697 3.33-1.39 5.391-2.033a8.061 8.061 82.408 0 1 .328-1.213c-2.357.708-4.458 1.484-6.168 2.278-1.55.72-2.787 1.45-3.642 2.186-.427.369-.762.74-.985 1.137-.224.398-.336.846-.245 1.283.09.438.37.803.733 1.08s.818.485 1.357.654c.291.091.61.17.951.24a1.78 1.78 0 0 0 1.99 1.457 1.78 1.78 0 0 0 1.427-1.13c3.399.076 7.877-.377 12.721-1.378 4.918-1.017 9.271-2.402 12.371-3.843 1.55-.72 2.787-1.45 3.642-2.188.427-.368.76-.74.984-1.138.224-.398.337-.844.246-1.282-.09-.437-.37-.803-.733-1.08-.364-.277-.818-.485-1.357-.654-1.076-.337-2.5-.516-4.209-.563-1.61-.044-3.474.034-5.508.235zm-.797 10.122a75.087 75.087 0 0 1-7.937 1.725 7.005 7.005 0 0 0 3.68.504 7.005 7.005 0 0 0 4.257-2.23z" color="currentColor" overflow="visible" fill="currentColor" paint-order="markers fill stroke" stop-color="currentColor"/>
  <text x="50%" y="93%" font-size="12" alignment="bottom" text-anchor="middle">???</text>
</svg>
