<svg xmlns="http://www.w3.org/2000/svg" viewBox="0 0 67.733 67.733">
  <path d="M25.258 19.35a4.716 4.855 0 0 0-4.71 4.859v140.252a4.716 4.855 0 0 0 4.71 4.851H229.58a4.716 4.855 0 0 0 4.719-4.851V24.209a4.716 4.855 0 0 0-4.719-4.86zm4.719 9.718H224.87v130.536H29.977ZM56.547 35v6.205H35.553v1.074h20.994v16.453H35.553v1.075h20.994v16.455H35.553v1.082h20.994v9.031c.347-.188.694-.377 1.043-.563v-8.468h19.23c1-.368 2.003-.73 3.01-1.082H57.59V59.807h22.53V76.16l1.045-.361V59.807h22.531v9.19l1.043-.288v-8.902h21.01a28.31 28.31 0 0 1 3.156 0h21.944v.447l1.043-.115v-.332h2.998c4.733-.482 9.474-.869 14.228-1.075h-17.226V42.28h22.53v16.313c.349-.005.697 0 1.046-.004v-16.31H198v16.453h-11.979c3.832.174 7.652.509 11.446 1.075H198v.084c.348.054.696.106 1.043.164v-.248h19.879v-1.075h-19.879V42.28h19.879v-1.074h-19.879V35H198v6.205h-22.531V35h-1.045v6.205h-22.531V35h-1.043v6.205h-22.534V35h-1.043v6.205H104.74V35h-1.043v6.205H81.166V35h-1.045v6.205H57.59V35Zm1.043 7.28h22.53v16.452H57.59zm23.576 0h22.531v16.452H81.166Zm23.574 0h22.533v16.452H104.74zm23.576 0h22.534v16.452h-22.534zM198 75.41v.852h-8.834c.046.357.08.718.094 1.082H198v3.47c.345-.102.692-.19 1.043-.267v-3.203h5.836a32.684 32.684 0 0 0-3.225-1.082h-2.611v-.65c-.346-.074-.695-.136-1.043-.202ZM35.553 93.8v1.074h7.68c.233-.187.465-.378.7-.557.243-.178.495-.341.739-.517zm54.9 0a63.95 63.95 0 0 0-2.355 1.074h12.13c-.093-.356-.168-.715-.248-1.074zm86.46 0a60.16 60.16 0 0 1-2.49 1.414v3.285c.35-.13.698-.262 1.046-.393v-3.232h8.146c.839-.352 1.674-.712 2.508-1.074zm39.276 0c-.071.337-.093.7-.09 1.074h2.823V93.8Zm-158.6 9.64a61.3 61.3 0 0 0-1.042.704v7.183H49.99c.333.39.872.712 1.58.903.147.06.295.113.442.171h4.535v1.48c.347.09.694.177 1.043.259v-1.74h16.285c-.093-.1-.181-.213-.277-.306a16.382 16.382 0 0 1-2.34-.768H57.59Zm94.304.604a12.45 12.45 0 0 0-1.043.436v1.394c.347-.09.695-.176 1.043-.268zM198 108.607v2.72h-14.082c-.953.36-1.905.722-2.861 1.073H198v16.455h-22.531v-14.459c-.348.12-.697.237-1.045.356v14.103h-22.531v-7.384c-.348.09-.695.179-1.043.267v7.117h-22.534V126.6l-1.043.185v2.07h-13.548c-3.337.442-6.68.834-10.028 1.174v16.364H81.166v-14.998c-.348.006-.697.01-1.045.015v14.983H57.59v-16.456h1.113a83.572 83.572 0 0 1-5.285-1.082H35.553v1.083h20.994v16.455H35.553v1.074h20.994v6.203h1.043v-6.203h22.53v6.203h1.045v-6.203h22.531v6.203h1.043v-6.203h22.533v6.203h1.043v-6.203h22.534v6.203h1.043v-6.203h22.53v6.203h1.046v-6.203H198v6.203h1.043v-6.203h19.879v-1.074h-19.879v-16.456h19.879v-1.082h-19.879V112.4h19.879v-1.074h-19.879v-2.494c-.35-.06-.698-.136-1.043-.225zm-93.26 4.872c-.348.034-.695.062-1.043.095v1.049c.348-.04.695-.084 1.043-.125zm0 16.459h22.533v16.455H104.74zm23.576 0h22.534v16.455h-22.534zm23.577 0h22.53v16.455h-22.53zm23.576 0H198v16.455h-22.531z" transform="scale(.26458)" color="currentColor" overflow="visible" fill="currentColor" stop-color="currentColor"/>
  <path d="M32.914 17.442a5.829 5.829 0 0 0-5.007 6.548 5.829 5.829 0 0 0 1.177 2.809A58.98 58.98 0 0 0 39.35 24.59a5.829 5.829 0 0 0 .112-2.14 5.829 5.829 0 0 0-6.548-5.008zm5.695.238c-.315.042-.635.088-.955.134a6.708 6.708 82.408 0 1 .883.775l.189-.026c4.092-.537 7.805-.707 10.792-.533 2.171.127 3.96.438 5.205.902 1.246.464 1.883 1.05 2.005 1.66.122.609-.24 1.397-1.211 2.305a9.882 9.882 0 0 1-.616.522 2.222 2.222 0 0 0-1.806-.576 2.222 2.222 0 0 0-1.909 2.496 2.222 2.222 0 0 0 .062.3c-.063.032-.123.064-.187.095-3.911 1.906-9.523 3.734-15.87 5.005-6.348 1.271-12.231 1.747-16.575 1.493-2.172-.126-3.96-.438-5.205-.902-1.246-.464-1.883-1.052-2.005-1.661-.122-.61.24-1.395 1.21-2.303.972-.908 2.502-1.884 4.457-2.838 2.73-1.33 6.29-2.623 10.35-3.714a6.708 6.708 82.408 0 1 .516-1.057c-4.411 1.142-8.287 2.527-11.255 3.973-2.005.978-3.597 1.979-4.674 2.985-1.077 1.007-1.69 2.069-1.477 3.128.212 1.06 1.186 1.805 2.567 2.319 1.382.514 3.237.827 5.464.957 4.454.26 10.392-.226 16.8-1.51 6.41-1.283 12.077-3.121 16.087-5.076.069-.034.133-.068.2-.102a2.222 2.222 0 0 0 2.03.817 2.222 2.222 0 0 0 1.91-2.496 2.222 2.222 0 0 0-.173-.61c.253-.198.493-.398.706-.598 1.077-1.006 1.689-2.068 1.476-3.127-.212-1.06-1.185-1.804-2.567-2.318-1.381-.515-3.236-.826-5.463-.956-3.062-.179-6.825-.005-10.961.537zm.05 1.04a6.708 6.708 82.408 0 1 .646.84c1.44-.126 2.77-.179 3.914-.147 1.371.037 2.497.189 3.262.428.382.12.67.265.854.404.183.14.253.258.277.372.024.115.006.252-.107.453-.113.2-.32.446-.624.707-.607.524-1.58 1.11-2.825 1.687-2.488 1.156-6.062 2.298-10.099 3.132-3.96.819-7.625 1.187-10.352 1.13a1.481 1.481 0 0 0-1.633-1.108 1.481 1.481 0 0 0-1.146.841 6.684 6.684 0 0 1-.644-.163c-.383-.12-.673-.262-.856-.402-.183-.14-.253-.26-.277-.374-.023-.114-.006-.25.107-.45.112-.201.322-.449.625-.71.607-.524 1.581-1.11 2.825-1.687 1.248-.58 2.77-1.156 4.486-1.692a6.708 6.708 82.408 0 1 .272-1.009c-1.96.59-3.71 1.235-5.132 1.896-1.29.6-2.319 1.206-3.03 1.82-.355.306-.634.614-.82.945-.186.331-.279.703-.204 1.067.075.364.308.669.61.9.303.23.681.402 1.129.543.243.076.508.142.792.2a1.481 1.481 0 0 0 1.655 1.212 1.481 1.481 0 0 0 1.188-.94c2.828.063 6.554-.314 10.585-1.147 4.092-.846 7.714-1.999 10.294-3.197 1.29-.6 2.318-1.207 3.03-1.82.355-.307.633-.616.819-.947.186-.332.28-.703.204-1.067-.075-.364-.308-.669-.61-.9-.302-.23-.68-.402-1.129-.543-.896-.28-2.08-.43-3.502-.469-1.34-.036-2.89.029-4.583.196zm-.663 8.423a62.478 62.478 0 0 1-6.604 1.435 5.829 5.829 0 0 0 3.062.42 5.829 5.829 0 0 0 3.542-1.855z" color="currentColor" overflow="visible" fill="currentColor" paint-order="markers fill stroke" stop-color="currentColor"/>

  <text x="50%" y="93%" font-size="12" alignment="bottom" text-anchor="middle">system map</text>
</svg>
