<svg xmlns="http://www.w3.org/2000/svg" viewBox="0 0 67.733 67.733">
  <path d="M21.714 19.826a.44.45 0 0 0-.308.13l-8.237 8.275a.44.45 0 0 0-.132.322v1.852a.44.45 0 0 0 .44.45H34.35a.44.45 0 0 0 .44-.45v-1.852a.44.45 0 0 0-.132-.322l-8.238-8.276a.44.45 0 0 0-.308-.129zm.668.9h3.154l-1.577 1.627zm-.369.1 1.714 1.767-6.424 6.626zm3.833.059 3.824 6.812.729 1.3-6.208-6.404zm.557.314 7.508 7.543v1.213h-2.583l-.027-.028-1.638-2.918zm-4.98 0-4.914 8.756h-2.593v-1.213zm2.536 1.633 6.904 7.123H17.055Z" color="currentColor" overflow="visible" fill="currentColor" stop-color="currentColor"/>
  <path d="M39.822 13.269a.417.427 0 0 0-.417.429v7.122a.417.427 0 0 0 .417.43H55.12a.417.427 0 0 0 .416-.43v-7.122a.417.427 0 0 0-.416-.429zm.416.856h14.464v6.268H40.238Z" color="currentColor" overflow="visible" fill="currentColor" paint-order="markers fill stroke" stop-color="currentColor"/>
  <path d="M43.577 30.684a.417.427 0 0 0-.417.43v5.697a.417.427 0 0 0 .417.427h11.127a.417.427 0 0 0 .417-.427v-5.698a.417.427 0 0 0-.417-.429zm.417.856h10.29v4.844h-10.29Z" color="currentColor" overflow="visible" fill="currentColor" paint-order="markers fill stroke" stop-color="currentColor"/>
  <path d="m31.477 22.245 8.345-4.274" fill="none" stroke="currentColor" stroke-width="1.126" stroke-linejoin="round" stroke-dashoffset="6" paint-order="markers fill stroke"/>
  <path d="M35.65 30.793s8.033 2.863 8.344 2.85" fill="none" stroke="currentColor" stroke-width="1.126" stroke-linejoin="round" stroke-dashoffset="6" paint-order="markers fill stroke"/>
  <path d="M6.542 5.29a1.252 1.282 0 0 0-1.25 1.284v37.042a1.252 1.282 0 0 0 1.25 1.281h54.24a1.252 1.282 0 0 0 1.252-1.28V6.573a1.252 1.282 0 0 0-1.253-1.283Zm1.252 2.567h51.737v34.476H7.794Z" color="currentColor" overflow="visible" fill="currentColor" stop-color="currentColor"/>
  <path d="M12.006 35.067h8.345" fill="none" stroke="currentColor" stroke-width=".563" stroke-linejoin="round" stroke-dashoffset="6" paint-order="markers fill stroke"/>
  <path d="M12.006 36.492h5.563" fill="none" stroke="currentColor" stroke-width=".563" stroke-linejoin="round" stroke-dashoffset="6" paint-order="markers fill stroke"/>
  <path d="M12.006 37.917h12.517" fill="none" stroke="currentColor" stroke-width=".563" stroke-linejoin="round" stroke-dashoffset="6" paint-order="markers fill stroke"/>
  <path d="M42.603 16.547h1.39" fill="none" stroke="currentColor" stroke-width=".563" stroke-linejoin="round" stroke-dashoffset="6" paint-order="markers fill stroke"/>
  <path d="M48.166 17.971h5.563" fill="none" stroke="currentColor" stroke-width=".563" stroke-linejoin="round" stroke-dashoffset="6" paint-order="markers fill stroke"/>
  <path d="M45.385 33.643h4.172" fill="none" stroke="currentColor" stroke-width=".563" stroke-linejoin="round" stroke-dashoffset="6" paint-order="markers fill stroke"/>
  <path d="M45.385 35.067h6.953" fill="none" stroke="currentColor" stroke-width=".563" stroke-linejoin="round" stroke-dashoffset="6" paint-order="markers fill stroke"/>
  <path d="M42.603 15.122h6.954" fill="none" stroke="currentColor" stroke-width=".563" stroke-linejoin="round" stroke-dashoffset="6" paint-order="markers fill stroke"/>

  <text x="50%" y="93%" font-size="12" alignment="bottom" text-anchor="middle">sys panel</text>

</svg>
