<svg xmlns="http://www.w3.org/2000/svg" viewBox="0 0 67.733 67.733">
  <path d="m10.342 9.724-.857.623-.427.311-.998.726.519.714.31.427.313.429.622.855.31.426.311.428.623.856.31.428.312.428.622.856.31.427.312.428.622.854.312.43.31.426.622.856.311.426.311.43.622.855.31.426.312.428.623.857.31.427.311.428.623.856.31.427.312.427.31.427.054.075a3.09 3.09 0 0 1 .394-.668c.066-.105.14-.203.217-.294l-.119-.164-.31-.426-.31-.428-.624-.856-.31-.428-.311-.427-.623-.856-.312-.428-.31-.427-.621-.855-.313-.429-.31-.427-.622-.855-.31-.427-.313-.429-.622-.855-.31-.428-.31-.426-.624-.857-.31-.428-.31-.427-.624-.856-.311-.428-.31-.427-.622-.854-.313-.43-.205-.284.14-.102.428-.311.31.428.31.427.311.427.623.856.311.428.31.427.624.856.311.428.31.427.622.855.312.429.31.427.622.855.311.427.312.429.622.855.31.428.311.426.623.857.31.428.311.427.623.857.312.427.31.427.621.855.288.396a2.752 2.752 0 0 1 1.015-.407l-.133-.184-.312-.43-.622-.853-.31-.427-.311-.428-.623-.856-.311-.428-.31-.427-.624-.856-.31-.428-.31-.427-.623-.855-.312-.43-.31-.426-.622-.855-.31-.427-.313-.43-.621-.854-.31-.427-.312-.428-.623-.856-.31-.427-.311-.428-.623-.857-.311-.427-.31-.427-.622-.854Zm24.319.205-.539.699-.323.418-.324.42-.644.836-.323.419-.323.419-.647.838-.323.418-.323.419-.646.839-.323.418-.323.418-.645.838-.324.42-.322.418-.646.837-.323.418-.324.42-.645.837-.322.418-.323.419-.647.839-.323.418-.323.419-.646.838-.323.419-.323.418-.322.418-.056.073c.259.032.512.095.752.19.12.034.234.077.343.125l.123-.16.322-.417.323-.419.647-.839.323-.418.322-.418.647-.839.323-.419.322-.418.646-.836.324-.42.322-.419.646-.837.322-.418.325-.42.645-.837.323-.42.322-.417.647-.839.322-.418.323-.418.647-.84.323-.418.322-.418.645-.836.325-.421.214-.278.138.106.418.323-.322.418-.323.418-.322.418-.647.839-.323.419-.323.418-.646.838-.323.42-.322.418-.646.836-.324.42-.322.419-.646.837-.322.418-.325.42-.646.838-.322.418-.322.418-.647.838-.323.419-.323.419-.646.838-.323.419-.323.418-.645.837-.3.388c.284.237.51.53.676.86l.139-.181.324-.42.645-.837.323-.418.323-.42.647-.837.322-.419.323-.418.647-.84.323-.417.322-.419.646-.836.323-.421.323-.418.645-.837.323-.418.324-.42.645-.837.323-.419.323-.418.647-.84.322-.417.323-.419.647-.838.322-.418.323-.419.646-.837.324-.42-.84-.648-.418-.322zM11.9 22.505l-.07.524-1.242 9.26 22.016 2.954.234-1.746 9.432 1.265-.07.524 1.05.14.07-.523 1.747.234.234-1.746 5.242.703.375-2.796-5.242-.703.235-1.75-1.746-.234.07-.523-1.05-.141-.07.523-9.433-1.265.234-1.747-6.142-.824-.747.97 5.698.764-1.03 7.687-19.916-2.672 1.03-7.687 3.685.495-.861-1.185zm9.54 1.28.797 1.096.692-.897zm-8.177.505-.046.348-.282 2.097 5.993.804-.572-.787-4.628-.622.14-1.048 3.629.487-.573-.788zm9.043 1.715a2.43 2.43 0 0 0-1.845.942 2.434 2.434 0 0 0 .44 3.406 2.434 2.434 0 0 0 3.406-.44 2.434 2.434 0 0 0-.44-3.406 2.416 2.416 0 0 0-1.561-.502zm4.348.081-.497.645 5.182.695-.14 1.048-5.773-.774c.064.238.091.48.091.723l6.287.843.327-2.445zm-4.16.622c.33.021.658.139.942.358.757.583.896 1.659.312 2.416a1.717 1.717 0 0 1-2.416.312 1.717 1.717 0 0 1-.312-2.416 1.719 1.719 0 0 1 1.473-.67zm-.105.446a1.284 1.284 0 0 0-1.285 1.285 1.284 1.284 0 0 0 1.285 1.284 1.284 1.284 0 0 0 1.284-1.284 1.284 1.284 0 0 0-1.284-1.285zm-9.548.28-.047.348-.422 3.148 9.433 1.266.09-.668a3.048 3.048 0 0 1-.685-.204l-.01.078-8.035-1.078.282-2.097 5.85.785a2.718 2.718 0 0 1-.044-.718zm20.7.821 9.433 1.266-.095.699-9.432-1.266zm-8.105.869a3.228 3.228 0 0 1-.246.679l5.727.768-.281 2.097-7.687-1.032.017-.128a2.71 2.71 0 0 1-.72.06l-.09.674 9.085 1.22.469-3.497zm18.588.538.696.093-.094.7-.696-.095zM33.308 30l9.433 1.266-.095.699-9.432-1.266zm10.483 1.407.696.093-.094.699-.696-.094zm1.746.234 4.191.562-.094.699-4.19-.562zm-12.464.108 9.433 1.266-.094.696-9.432-1.266zm18.853.56-.142 1.047 1.05.141.141-1.047zm2.096.281-.14 1.048 1.047.14.14-1.047zm2.097.281-.14 1.048 1.047.14.14-1.047zm2.098.282-.14 1.047 1.046.14.14-1.047zm-14.661.003.696.093-.094.696-.696-.093zm16.755.278-.14 1.047 1.05.142.14-1.049z" color="currentColor" overflow="visible" fill="currentColor" stroke="currentColor" stroke-width=".265" stop-color="currentColor"/>

  <text x="50%" y="93%" font-size="12" alignment="bottom" text-anchor="middle">???</text>

</svg>
