<svg viewBox="0 0 67.733 67.733" xmlns="http://www.w3.org/2000/svg">
  <path d="m14.839 8.226-.093.068-.743.54-.37.268-.957.696.517.712.269.37.27.37.54.742.27.369.268.37.54.743.268.37.27.37.54.741.268.37.27.371.537.74.27.372.27.369.538.742.27.369.27.37.537.741.27.37.27.371.54.741.268.37.27.371.539.743.269.369.269.37.269.37.164.227.08-.184a2.56 2.56 0 0 1 .328-.553l.003-.006.003-.005a2.25 2.25 0 0 1 .178-.242l.057-.069-.155-.213-.269-.37-.269-.37-.54-.742-.269-.37-.269-.37-.54-.742-.268-.37-.269-.37-.538-.74-.27-.372-.27-.369-.538-.74-.269-.371-.272-.373-.538-.739-.269-.37-.269-.37-.54-.743-.269-.37-.269-.37-.539-.742-.269-.37-.269-.37-.538-.739-.27-.372-.112-.153.028-.021.278-.203.201.277.269.37.269.371.542.741.269.37.269.371.539.741.269.37.269.371.538.74.27.372.27.37.538.74.269.37.27.372.538.74.269.372.269.368.54.743.269.37.27.369.54.743.269.37.269.369.538.741.313.431.093-.06a2.23 2.23 0 0 1 .835-.336l.178-.032-.22-.306-.272-.372-.538-.74-.27-.37-.268-.37-.54-.743-.269-.369-.269-.37-.54-.743-.268-.37-.27-.369-.537-.741-.272-.372-.268-.369-.538-.741-.27-.37-.271-.37-.538-.742-.269-.37-.269-.37-.54-.742-.269-.37-.269-.37-.54-.742-.268-.37-.269-.37-.538-.74Zm21.017.176-.071.091-.466.606-.28.362-.281.364-.559.724-.279.363-.279.362-.562.726-.278.362-.28.364-.56.725-.279.364-.28.362-.559.724-.28.364-.28.362-.56.726-.279.362-.28.364-.559.725-.279.362-.28.362-.559.728-.28.362-.28.362-.56.725-.279.364-.28.362-.28.362-.169.221.198.026c.215.027.424.079.623.158h.004l.007.003c.098.027.192.063.283.103l.081.035.16-.208.28-.361.28-.364.56-.726.28-.362.279-.362.562-.727.279-.362.279-.362.558-.725.28-.365.28-.362.56-.725.279-.363.28-.363.56-.724.28-.364.28-.362.559-.726.279-.362.28-.362.56-.727.28-.362.279-.364.558-.724.281-.364.117-.15.029.024.272.21-.21.27-.28.362-.28.362-.56.726-.279.363-.28.363-.56.725-.28.364-.279.362-.558.724-.28.364-.28.363-.56.724-.28.362-.28.364-.56.726-.28.362-.278.362-.56.725-.28.364-.28.362-.56.728-.279.361-.28.363-.557.724-.327.424.083.07c.232.195.418.436.556.708l.084.163.23-.301.28-.364.56-.724.28-.362.278-.364.562-.726.28-.362.278-.361.56-.728.28-.362.279-.362.56-.726.28-.363.28-.362.558-.726.28-.362.28-.364.56-.724.278-.362.28-.363.56-.726.279-.362.28-.364.56-.726.28-.362.279-.362.56-.726.35-.454-.817-.632-.362-.279zm-19.79 10.925-.016.115-.061.453-1.091 8.134 19.295 2.588.203-1.513 7.942 1.066-.06.453 1.138.153.06-.454 1.513.203.201-1.512 4.54.609.356-2.647-4.54-.61.204-1.515-1.512-.203.06-.454-1.138-.152-.06.454-7.943-1.066.203-1.514-5.498-.738-.04.053-.649.84-.12.158 5.018.671-.863 6.432-17.021-2.284.863-6.43 3.342.449-.157-.217-.746-1.027-.029-.039zm8.109 1.087.157.217.692.95.09.124.093-.12.598-.778.123-.158zm-6.93.459-.014.113-.041.303-.259 1.929 5.569.747-.157-.217-.496-.681-.029-.04-3.943-.529.091-.681 3.294.443-.157-.216c-.165-.228-.33-.457-.496-.684l-.028-.04zm7.926 1.5a2.213 2.213 0 0 0-1.683.86 2.224 2.224 0 0 0 .4 3.11 2.224 2.224 0 0 0 3.112-.4 2.224 2.224 0 0 0-.403-3.111 2.208 2.208 0 0 0-1.426-.459zm3.72.063-.04.052-.43.559-.122.157 4.571.612-.09.68-5.058-.676.046.166a2.3 2.3 0 0 1 .074.595v.102l5.659.757.314-2.344zm-3.726.774a1.367 1.367 0 0 1 .92.286 1.37 1.37 0 0 1 .25 1.932 1.37 1.37 0 0 1-1.932.25 1.37 1.37 0 0 1-.25-1.93 1.372 1.372 0 0 1 1.012-.538zm.082.158a1.228 1.228 0 0 0 0 2.454 1.23 1.23 0 0 0 1.228-1.226 1.23 1.23 0 0 0-1.228-1.228zm-8.366.228-.016.113-.04.302-.381 2.84 8.397 1.127.107-.8-.108-.019a2.525 2.525 0 0 1-.567-.171l-.14-.06-.014.104-6.731-.902.213-1.59 5.112.687-.03-.157a2.24 2.24 0 0 1-.038-.592l.009-.107zm18.124.97 7.944 1.065-.053.378-7.942-1.066zm-7.207.495-.023.102a2.68 2.68 0 0 1-.205.563l-.07.142 5.004.672-.213 1.59-6.43-.863.022-.16-.16.035a2.226 2.226 0 0 1-.593.05l-.104-.006-.109.802 8.097 1.086.436-3.255zm16.286.723.377.05-.05.377-.378-.05zm-9.282.294 7.944 1.066-.053.377-7.942-1.066zm9.08 1.218.376.05-.05.378-.376-.05zm1.513.203 3.402.455-.05.379-3.403-.457zm-10.796.093 7.942 1.066-.049.375-7.944-1.065zm16.131.227-.015.113-.137 1.022 1.137.152.152-1.133zm1.817.245-.015.113-.137 1.02 1.135.152.15-1.133zm1.815.242-.015.115-.135 1.02 1.133.152.153-1.135zm1.817.245-.015.114-.137 1.02 1.135.152.152-1.133zm1.813.244-.015.113-.135 1.02 1.135.152.152-1.135zm-14.314.015.377.05-.05.376-.378-.05z" color="currentColor" overflow="visible" fill="currentColor" stop-color="currentColor"/>

  <path d="M7.88 38.516h9.052v8.99H7.88Z"  stroke="#808080" fill="#808080" stroke-width="1.5" stroke-linecap="square" style="{0}" />
  <path d="M22.365 38.516h9.051v8.99h-9.051z" stroke="#808080" fill="#808080" stroke-width="1.5" stroke-linecap="square" style="{1}"/>
  <path d="M36.847 38.516H45.9v8.99h-9.052z"  stroke="#808080" fill="#808080" stroke-width="1.5" stroke-linecap="square" style="{2}"/>
  <path d="M51.33 38.516h9.052v8.99H51.33z" stroke="#808080" fill="#808080" stroke-width="1.5" stroke-linecap="square" style="{3}"/>

  <path d="M7.88 38.516h9.052v8.99H7.88Z"  stroke="currentColor" fill="currentColor" stroke-width="1.5" stroke-linecap="square" style="{4}"/>
  <path d="M22.365 38.516h9.051v8.99h-9.051z" stroke="currentColor" fill="currentColor" stroke-width="1.5" stroke-linecap="square" style="{5}"/>
  <path d="M36.847 38.516H45.9v8.99h-9.052z"  stroke="currentColor" fill="currentColor" stroke-width="1.5" stroke-linecap="square" style="{6}"/>
  <path d="M51.33 38.516h9.052v8.99H51.33z" stroke="currentColor" fill="currentColor" stroke-width="1.5" stroke-linecap="square" style="{7}"/>

  <text x="50%" y="93%" font-size="12" text-anchor="middle">WEP</text>
</svg>
