<svg xmlns="http://www.w3.org/2000/svg" viewBox="0 0 67.733 67.733">
  <path d="M33.84 5.604a6.029 6.029 0 0 0-5.92 5.247c-6.72 2.448-11.53 8.9-11.53 16.456 0 .786.056 1.557.157 2.316a6.029 6.029 0 0 0-2.656 4.997 6.029 6.029 0 0 0 6.029 6.028 6.029 6.029 0 0 0 2.186-.41 17.44 17.44 0 0 0 11.792 4.577 17.44 17.44 0 0 0 11.743-4.533 6.029 6.029 0 0 0 2.07.366 6.029 6.029 0 0 0 6.028-6.028 6.029 6.029 0 0 0-2.505-4.892c.11-.792.172-1.599.172-2.42 0-7.557-4.81-14.008-11.53-16.457a6.029 6.029 0 0 0-5.978-5.247 6.029 6.029 0 0 0-.059 0zm-5.703 7.806a6.029 6.029 0 0 0 5.761 4.25 6.029 6.029 0 0 0 5.76-4.25 15.02 15.02 0 0 1 9.211 15.294 6.029 6.029 0 0 0-1.159-.113 6.029 6.029 0 0 0-6.028 6.029 6.029 6.029 0 0 0 1.793 4.29 14.987 14.987 0 0 1-9.577 3.434 14.98 14.98 0 0 1-9.666-3.511 6.029 6.029 0 0 0 1.716-4.213 6.029 6.029 0 0 0-6.028-6.029 6.029 6.029 0 0 0-.994.083 15.02 15.02 0 0 1 9.212-15.264z" color="currentColor" overflow="visible" fill="currentColor" paint-order="markers fill stroke" stop-color="currentColor"/>
  <path d="M28.733 28.581H38.93v7.138H28.733z" fill="currentColor" paint-order="markers fill stroke"/>
  <path d="M37.83 25.646a3.962 4.101 0 0 0-1.982-3.552 3.962 4.101 0 0 0-3.962 0 3.962 4.101 0 0 0-1.982 3.552" fill="none" stroke="currentColor" stroke-width="2.381" stroke-linecap="square" paint-order="markers fill stroke"/>

  <text x="50%" y="93%" font-size="17" alignment="bottom" text-anchor="middle">???</text>

</svg>
